<?xml version="1.0" encoding="utf-8"?>
<!-- Generator: Adobe Illustrator 23.0.4, SVG Export Plug-In . SVG Version: 6.00 Build 0)  -->
<svg version="1.1" id="Layer_1" xmlns="http://www.w3.org/2000/svg" xmlns:xlink="http://www.w3.org/1999/xlink" x="0px" y="0px"
	 width="225px" height="57px" viewBox="0 0 225 57" style="enable-background:new 0 0 225 57;" xml:space="preserve">
<style type="text/css">
	.st0{fill:#050402;}
	.st1{fill:#DC0000;}
	.st2{fill:#FFFFFF;}
	.st3{fill:#010100;}
	.st4{fill:#323E48;}
	.st5{fill:#D8DFE1;}
	.st6{fill:#CE0E2D;}
	.st7{fill:none;stroke:#271C19;stroke-width:9.787641e-02;stroke-miterlimit:10;}
	.st8{fill:#9B2326;}
	.st9{fill:none;stroke:#271C19;stroke-width:9.781332e-02;stroke-miterlimit:10;}
	.st10{fill:none;}
</style>
<g id="XMLID_1471_">
	<g id="XMLID_1480_">
		<path class="st0" d="M81.5,19.6c-2.6,5.1-5.2,10.2-7.7,15.3c-0.2,0.4,0,0.7,0.3,0.7h9.6c0.3,0,0.6-0.2,0.8-0.5
			c0.8-1.6,1.6-3.1,2.4-4.7c0.1-0.3,0.5-0.5,0.8-0.5h9.5c0.4,0,0.5,0.3,0.3,0.7c-0.7,1.5-1.5,2.9-2.2,4.4c-0.2,0.4,0,0.7,0.3,0.7
			h9.6c0.3,0,0.6-0.2,0.8-0.5c2.6-5.1,5.2-10.2,7.7-15.3c0.2-0.4,0-0.7-0.3-0.7H82.2C82,19.1,81.6,19.3,81.5,19.6 M99,26.5h-9.5
			c-0.4,0-0.5-0.3-0.3-0.7c0.5-0.9,0.9-1.9,1.4-2.8c0.1-0.3,0.5-0.5,0.8-0.5h9.5c0.4,0,0.5,0.3,0.3,0.7c-0.5,0.9-0.9,1.9-1.4,2.8
			C99.6,26.2,99.2,26.5,99,26.5"/>
	</g>
	<g id="XMLID_1477_">
		<path class="st0" d="M45,19.6c-2.6,5.1-5.2,10.2-7.7,15.3c-0.2,0.4,0,0.7,0.3,0.7h9.6c0.3,0,0.6-0.2,0.8-0.5
			c0.8-1.6,1.6-3.1,2.4-4.7c0.1-0.3,0.5-0.5,0.8-0.5h19.8c0.3,0,0.6-0.2,0.8-0.5c1.6-3.2,3.2-6.4,4.8-9.6c0.2-0.4,0-0.7-0.3-0.7
			H45.8C45.5,19.1,45.1,19.3,45,19.6 M61.8,26.5H53c-0.4,0-0.5-0.3-0.3-0.7c0.5-0.9,0.9-1.9,1.4-2.8c0.1-0.3,0.5-0.5,0.8-0.5h8.9
			c0.4,0,0.5,0.3,0.3,0.7c-0.5,0.9-0.9,1.9-1.4,2.8C62.4,26.3,62.1,26.5,61.8,26.5"/>
	</g>
	<g id="XMLID_1474_">
		<path class="st0" d="M149.6,19.1h-30.1c-0.3,0-0.6,0.2-0.8,0.5c-2.6,5.1-5.2,10.2-7.7,15.3c-0.2,0.4,0,0.7,0.3,0.7h9.6
			c0.3,0,0.6-0.2,0.8-0.5c0.8-1.6,1.6-3.1,2.4-4.7c0.1-0.3,0.5-0.5,0.8-0.5h6c0.3,0,0.7,0.2,0.8,0.5c0.8,1.5,1.5,3.1,2.3,4.5
			c0.2,0.4,0.6,0.7,1,0.7h8.2c0.3,0,0.4-0.2,0.3-0.5c-0.7-1.3-1.7-3.3-2.4-4.7c-0.1-0.3,0-0.5,0.3-0.5h3c0.3,0,0.6-0.2,0.8-0.5
			c1.6-3.2,3.2-6.4,4.8-9.6C150.1,19.4,149.9,19.1,149.6,19.1 M137.4,23.2c-0.5,0.9-0.9,1.9-1.4,2.8c-0.1,0.3-0.5,0.5-0.8,0.5h-8.5
			c-0.4,0-0.5-0.3-0.3-0.7c0.5-0.9,0.9-1.9,1.4-2.8c0.1-0.3,0.5-0.5,0.8-0.5h8.5C137.4,22.5,137.6,22.8,137.4,23.2"/>
	</g>
	<g id="XMLID_1473_">
		<path class="st0" d="M23.1,29.8c-0.3,0.5-0.7,1.3-0.9,1.8c-0.1,0.3-0.5,0.5-0.8,0.5H2.5c-0.3,0-0.6,0.2-0.8,0.5
			c-0.4,0.7-0.8,1.5-1.1,2.2c-0.2,0.4,0,0.7,0.3,0.7c9.3,0,21.3,0,30.6,0c0.3,0,0.6-0.2,0.8-0.5c0.8-1.6,2.2-4.4,3.1-6.2
			c0.2-0.4,0.1-0.6-0.2-0.7c-0.1,0-13.8-2.6-17.2-3.3c-0.3-0.1-0.4-0.3-0.2-0.7c0.2-0.3,0.4-0.8,0.6-1.1c0.1-0.3,0.5-0.5,0.8-0.5
			h18.9c0.3,0,0.6-0.2,0.8-0.5c0.4-0.7,0.8-1.5,1.1-2.2c0.2-0.4,0-0.7-0.3-0.7c-9.3,0-21.3,0-30.6,0c-0.3,0-0.6,0.2-0.8,0.5
			c-0.7,1.4-1.7,3.3-2.7,5.2c-0.2,0.4-0.1,0.6,0.2,0.7c0.3,0.1,13.9,2.9,17.1,3.6C23.2,29.2,23.3,29.4,23.1,29.8"/>
	</g>
	<g id="XMLID_1472_">
		<path class="st0" d="M181.6,35c0.2,0.3,0.2,0.5-0.1,0.5h-9.6c-0.4,0-0.9-0.3-1.2-0.7l-4.9-6.5c-0.1-0.2-0.3-0.2-0.5-0.1l-5,1.9
			c-0.2,0.1-0.3,0.2-0.4,0.4c-0.7,1.5-1.6,3.1-2.3,4.6c-0.1,0.3-0.5,0.5-0.8,0.5h-9.6c-0.4,0-0.5-0.3-0.3-0.7
			c2.6-5.1,5.2-10.2,7.7-15.3c0.1-0.3,0.5-0.5,0.8-0.5h9.6c0.4,0,0.5,0.3,0.3,0.7c-1.1,2.2-2.3,4.5-3.4,6.7
			c-0.1,0.2,0.1,0.4,0.3,0.3l20.6-7.5c0.3-0.1,0.6-0.2,0.9-0.2h5c0.2,0,0.3,0.3,0.1,0.4l-14.3,5.3c-0.2,0.1-0.3,0.4-0.2,0.6
			L181.6,35z"/>
	</g>
</g>
<g>
	<g>
		<path class="st1" d="M82,1.4H68.1c-0.1,0-0.2,0-0.2,0.1l-2.1,2.4c-0.1,0.1,0,0.2,0.1,0.2h13.9c0.1,0,0.2,0,0.2-0.1l2.1-2.4
			C82.2,1.5,82.1,1.4,82,1.4z"/>
	</g>
</g>
<g>
	<g>
		<path class="st2" d="M69.2,3.4h-0.5L68.8,3h-0.6l-0.1,0.4h-0.5l0.3-1l0.3-0.2h1l0.2,0.2L69.2,3.4z M68.9,2.7L69,2.4l-0.6,0
			l-0.1,0.3H68.9z"/>
	</g>
	<g>
		<path class="st2" d="M70.9,3.4h-1.4l0.4-1.2h0.5l-0.3,0.9h0.9L70.9,3.4z"/>
	</g>
	<g>
		<path class="st2" d="M72.4,3.4H71l0.4-1.2h0.5l-0.3,0.9l0.9,0L72.4,3.4z"/>
	</g>
	<g>
		<path class="st2" d="M73.5,3l-0.8,0l0.1-0.2h0.8L73.5,3z"/>
	</g>
	<g>
		<path class="st2" d="M75.3,3.4h-0.5l-0.5-0.7l-0.2,0.7h-0.5L74,2.1l0.4,0L75,2.8l0.2-0.7h0.5L75.3,3.4z"/>
	</g>
	<g>
		<path class="st2" d="M77.2,3.4l-1.6,0l0.4-1.2h1.6l-0.1,0.3h-1l-0.1,0.2h0.9l-0.4,0.2h-0.6l-0.1,0.2h1.1L77.2,3.4z"/>
	</g>
	<g>
		<path class="st2" d="M79.7,3.4h-2.2l0.4-1.2h0.5l-0.3,0.9h0.4l0.3-0.9h0.5l-0.3,0.9h0.4l0.3-0.9h0.5L79.7,3.4z"/>
	</g>
</g>
<g id="XMLID_1465_">
	<g id="XMLID_1470_">
		<path class="st3" d="M85.1,0.2c-0.1,0-0.8,0-0.9,0c-0.1,0-0.2,0.1-0.2,0.2V4c0,0.2,0.1,0.2,0.2,0.2c0.1,0,0.8,0,0.8,0
			c0.2,0,0.2-0.1,0.2-0.2c0-0.3,0-3.3,0-3.5C85.3,0.3,85.3,0.2,85.1,0.2"/>
	</g>
	<g id="XMLID_1469_">
		<path class="st3" d="M89.9,2.3c-0.3-0.2-2.1-0.8-2.5-1c-0.1,0-0.1-0.1-0.1-0.2c0-0.1,0.1-0.1,0.2-0.1c0,0,0.4,0,2.6,0
			c0.1,0,0.2,0,0.2-0.2c0-0.1,0-0.5,0-0.5c0-0.2,0-0.2-0.2-0.2c-0.2,0-2.4,0-3.1,0c-0.8,0-1,0.4-1.1,0.8c-0.1,0.4,0.1,0.8,0.4,1
			c0.3,0.2,1.5,0.6,2.5,1c0.2,0.1,0.2,0.1,0.2,0.2c0,0-0.1,0-0.2,0c-0.3,0-2.5,0-2.6,0c-0.2,0-0.2,0.1-0.2,0.2c0,0,0,0.4,0,0.4
			c0,0.2,0,0.2,0.2,0.2c1,0,2.6,0,2.9,0c0.6,0,0.9-0.1,1.1-0.4C90.5,3.4,90.6,2.7,89.9,2.3"/>
	</g>
	<g id="XMLID_1468_">
		<path class="st3" d="M97.6,3c0.5-0.2,1.7-0.8,2.4-1.2c0.4-0.2,0.6-0.7,0.4-1.1c-0.1-0.4-0.4-0.5-1-0.5c-0.4,0-3,0-3.1,0
			c-0.2,0-0.2,0.1-0.2,0.2c0,0,0,0.4,0,0.5c0,0.1,0.1,0.2,0.2,0.2c0.1,0,2.5,0,2.7,0c0.1,0,0.1,0,0.1,0.1c0,0,0,0.1-0.1,0.1
			c-0.8,0.4-2,1-2.4,1.2c-0.6,0.3-0.7,0.6-0.7,1c0,0.4,0.2,0.7,1,0.7c0.7,0,2.7,0,3.1,0c0.2,0,0.2-0.1,0.2-0.2c0-0.1,0-0.4,0-0.4
			c0-0.2,0-0.3-0.2-0.3c-0.1,0-2.1,0-2.6,0c-0.1,0-0.1-0.1-0.1-0.1C97.4,3.1,97.5,3.1,97.6,3"/>
	</g>
	<g id="XMLID_1467_">
		<path class="st3" d="M95.1,0.2c-0.1,0-0.8,0-0.9,0c-0.1,0-0.2,0-0.2,0.2c0,0.1,0,1.8,0,2.1c0,0.4-0.1,0.7-0.5,0.7
			c-0.3,0-0.5,0-0.7,0c-0.4,0-0.5-0.2-0.5-0.8c0-0.4,0-1.9,0-2c0-0.1,0-0.2-0.2-0.2c-0.1,0-0.8,0-0.8,0c-0.1,0-0.2,0-0.2,0.2
			c0,0.1,0,1.3,0,2.4c0,1.3,0.9,1.3,1.3,1.3c0.2,0,1.3,0,1.8,0C95,4,95.3,3.6,95.3,2.9c0-0.4,0-2.1,0-2.5
			C95.3,0.3,95.3,0.2,95.1,0.2"/>
	</g>
	<g id="XMLID_1466_">
		<path class="st3" d="M105.3,0.4c0-0.1,0-0.2-0.2-0.2c-0.1,0-0.8,0-0.8,0c-0.1,0-0.2,0.1-0.2,0.2c0,0.1,0,1.9,0,2.2
			c0,0.5-0.2,0.5-0.4,0.6c-0.2,0.1-0.9,0-1,0c-0.3,0-0.4-0.1-0.4-0.6c0-0.4,0-2.1,0-2.2c0-0.1-0.1-0.2-0.2-0.2c-0.1,0-0.7,0-0.9,0
			c-0.2,0-0.2,0.1-0.2,0.2c0,0.3,0,2.2,0,2.5c0.1,0.8,0.4,1.1,1,1.1c0.6,0.1,1.9,0.1,2.3,0c0.7-0.2,0.8-0.7,0.8-1.4
			C105.4,2.3,105.3,0.6,105.3,0.4"/>
	</g>
</g>
<g id="XMLID_1452_">
	<g id="XMLID_1453_">
		<g id="XMLID_1462_">
			<g id="XMLID_1463_">
				<path class="st3" d="M119.8,14.4h3.7c0.1,0,0.2-0.2,0.1-0.3l-4-3.8c-0.1-0.1-0.1-0.2,0-0.3l3.9-3.5c0.1-0.1,0-0.3-0.1-0.3h-4
					c-0.1,0-0.2,0-0.3,0.1L117.4,8c-0.1,0.1-0.2,0.1-0.3,0l-1.5-1.5c-0.1-0.1-0.1-0.1-0.2-0.1h-3.6c-0.1,0-0.2,0.2-0.1,0.3l3.2,3.1
					c0.1,0.1,0.1,0.2,0,0.3l-2.9,2.5c-0.1,0.1-0.2,0-0.3-0.1l-1.9-5.8c0-0.1-0.1-0.2-0.3-0.2h-3.4c-0.1,0-0.2,0-0.3,0.1l-4.9,5.9
					c-0.1,0.1-0.2,0-0.3-0.1l-0.5-5.8c0-0.1-0.1-0.2-0.2-0.2h-2.4c-0.1,0-0.2,0-0.3,0.1l-2.3,3c-0.1,0.1-0.2,0-0.2-0.1l-0.1-2.9
					c0-0.1-0.1-0.2-0.2-0.2h-2.8c-0.1,0-0.2,0-0.2,0.1l-5.2,7.6c-0.1,0.1,0,0.3,0.1,0.3h3c0.1,0,0.1,0,0.2-0.1l2.1-2.8
					c0-0.1,0.1-0.1,0.2-0.1h0.7c0,0,0.1,0,0.1,0.1l0,2.7c0,0.1,0.1,0.2,0.2,0.2h2.1c0.1,0,0.1,0,0.2-0.1l2.1-2.8
					c0-0.1,0.1-0.1,0.2-0.1h0.7c0.1,0,0.1,0,0.1,0.1l0.2,2.7c0,0.1,0.1,0.2,0.2,0.2h4.4c0.1,0,0.1,0,0.2-0.1l3.6-4.2
					c0.1-0.1,0.1-0.1,0.2-0.1h0.7c0.1,0,0.1,0,0.1,0.1l0.8,2.1c0,0.1,0,0.1,0,0.2l-1.9,1.7c-0.1,0.1,0,0.3,0.1,0.3h7.9
					c0.1,0,0.2,0,0.2-0.1l2.3-2.1c0.1-0.1,0.2-0.1,0.3,0l2.1,2.1C119.6,14.4,119.7,14.4,119.8,14.4z"/>
			</g>
		</g>
		<g id="XMLID_1458_">
			<g id="XMLID_1459_">
				<g id="XMLID_1460_">
					<path class="st3" d="M85.2,8.4l-1,3.3c0,0.1,0.1,0.2,0.1,0.1c1-0.5,2.7-1.2,3.8-1.8c0.1-0.1,0.1-0.2,0-0.3
						c-0.7-0.4-1.9-1.1-2.7-1.5C85.3,8.2,85.2,8.3,85.2,8.4z"/>
				</g>
			</g>
		</g>
		<g id="XMLID_1454_">
			<g id="XMLID_1455_">
				<path class="st3" d="M65.9,14.4h12.5c0.2,0,0.3,0,0.5-0.1c1.3-0.5,2.9-1.3,4.1-1.9c0.1-0.1,0.3-0.2,0.3-0.4l1.2-3.9
					c0-0.1,0-0.3-0.2-0.3l-3.5-1.3c-0.2-0.1-0.3-0.1-0.5-0.1H66.3c-0.1,0-0.2,0.2-0.1,0.3l1.4,1.6c0,0.1,0.1,0.1,0,0.2l-1.7,5.8
					C65.8,14.3,65.8,14.4,65.9,14.4z M76.9,12.5h-6c-0.1,0-0.1-0.1-0.1-0.1l1.2-4c0-0.1,0.1-0.1,0.1-0.1h6.7c0.1,0,0.3,0,0.4,0.1
					L80,8.7c0,0,0.1,0.1,0.1,0.1l-0.7,2.3c0,0.1-0.1,0.1-0.1,0.2l-2,1C77.1,12.4,77,12.5,76.9,12.5z"/>
			</g>
		</g>
	</g>
</g>
<g id="XMLID_378_">
	<g id="XMLID_481_">
		<path class="st4" d="M149.7,46.2c0.1-0.1,0.1-0.1,0-0.2c0-0.1-0.1-0.1-0.2-0.1h-8c-0.2,0-0.4,0.1-0.6,0.3l-2.3,2.5
			c-0.2,0.2-0.4,0.3-0.6,0.3h-2.8c-0.1,0-0.2,0-0.2-0.1c0-0.1,0-0.2,0-0.2l4.6-5.2c0.1-0.1,0.1-0.1,0-0.2c0-0.1-0.1-0.1-0.2-0.1
			h-7.9c-0.2,0-0.4,0.1-0.6,0.3l-0.6,0.7c-0.2,0.2-0.4,0.3-0.6,0.3h-7.1c-0.2,0-0.4,0.1-0.5,0.2l-3,2.7c0,0-0.1,0.1-0.1,0.1
			c0,0-0.1,0-0.1-0.1l-2.9-2.7c-0.2-0.1-0.3-0.2-0.6-0.2h-8.3c-0.1,0-0.2,0-0.2,0.1c0,0.1,0,0.2,0,0.2l0.9,0.9
			c0.1,0.1,0.1,0.1,0,0.2c0,0.1-0.1,0.1-0.2,0.1h-1.3c-0.2,0-0.4,0.1-0.6,0.3l-2.3,2.5c-0.2,0.2-0.4,0.3-0.6,0.3h-2.5
			c-0.1,0-0.2,0-0.2-0.1c0-0.1,0-0.2,0-0.2l4.6-5.2c0.1-0.1,0.1-0.1,0-0.2c0-0.1-0.1-0.1-0.2-0.1h-8.5c-0.2,0-0.4,0.1-0.6,0.3
			l-9,9.6c-0.1,0.1-0.1,0.1,0,0.2c0,0.1,0.1,0.1,0.2,0.1H99c0.1,0,0.2,0,0.2,0.1c0,0.1,0,0.2,0,0.2l-2.5,2.8c-0.1,0.1-0.1,0.1,0,0.2
			c0,0.1,0.1,0.1,0.2,0.1h8.4c0.2,0,0.4-0.1,0.6-0.3l0.7-0.8c0.2-0.2,0.4-0.3,0.6-0.3l8.5,0c0.2,0,0.4-0.1,0.6-0.2l2.8-2.6
			c0,0,0.1-0.1,0.1-0.1c0,0,0.1,0,0.1,0.1l2.8,2.6c0.2,0.1,0.3,0.2,0.5,0.2h7.6c0.1,0,0.2,0,0.2-0.1c0-0.1,0-0.2,0-0.2l-1.5-1.4
			c-0.1-0.1-0.1-0.1,0-0.2c0-0.1,0.1-0.1,0.2-0.1l5,0c0.1,0,0.2,0,0.2,0.1c0,0.1,0,0.2,0,0.2l-2.5,2.8c-0.1,0.1-0.1,0.1,0,0.2
			c0,0.1,0.1,0.1,0.2,0.1h8c0.2,0,0.4-0.1,0.6-0.3l2.6-2.9c0.2-0.2,0.4-0.3,0.6-0.3h2c0.2,0,0.4-0.1,0.6-0.3l3.4-3.7
			c0.1-0.1,0.1-0.1,0-0.2c0-0.1-0.1-0.1-0.2-0.1h-1.8c-0.1,0-0.2,0-0.2-0.1c0-0.1,0-0.2,0-0.2L149.7,46.2z"/>
	</g>
	<g id="XMLID_477_">
		<path class="st5" d="M103.3,52.1l-2.8,3.2h5.2l2.8-3.2h2.8l1.5-1.4h-3l3.2-3.6l2.9,2.7l-5.1,4.7h6h0l2.2-2.1c0,0,0.1-0.1,0.1-0.1
			c0,0,0.1,0,0.1,0.1l2.2,2.1h6l-0.8-0.8l-1.8-1.6h11.6l-2.8,3.2h5.2l2.8-3.2h2.5l1.3-1.4H143l3.7-4.2h-5.2l-3.7,4.2h-7.4l5.8-6.5
			H131l-6.6,7.3l-1.9-1.7l5.3-4.9h-6l-2.5,2.3c0,0-0.1,0.1-0.1,0.1c0,0-0.1,0-0.1-0.1l-2.5-2.3h0h-6l1.7,1.6h-4l-3.7,4.2h-7.4
			l5.8-6.5h-5.3l-7.1,7.9H103.3z M121.8,45.4h4.5l-4.5,4.1l-2.3-2.1L121.8,45.4z M112,45.4h4.5l9.6,8.7h-4.5l-2.4-2.2l-2.4,2.2h-4.5
			l4.7-4.3L112,45.4z"/>
	</g>
	<g id="XMLID_474_">
		<g id="XMLID_476_">
			<polygon class="st6" points="125.8,45.6 121.8,45.6 119.9,47.4 121.8,49.2 			"/>
		</g>
		<g id="XMLID_475_">
			<polygon class="st6" points="112.5,45.6 117.2,49.8 112.7,53.9 116.6,53.9 119.1,51.6 121.7,53.9 125.6,53.9 116.5,45.6 			"/>
		</g>
	</g>
	<g id="XMLID_473_">
		<path class="st7" d="M126.6,49.2"/>
	</g>
	<g id="XMLID_472_">
		<path class="st7" d="M126.6,49.2"/>
	</g>
	<g id="XMLID_379_">
		<g id="XMLID_471_">
			<path class="st8" d="M121.3,46.1L121.3,46.1c0.7,0.5,1.4,1.2,1.7,2l0.1,0C122.7,47.2,122.1,46.5,121.3,46.1z"/>
		</g>
		<g id="XMLID_470_">
			<path class="st8" d="M118.2,52.5L118.2,52.5c-0.8-0.4-1.5-1.1-1.7-2l-0.1,0.1C116.6,51.5,117.3,52.2,118.2,52.5z"/>
		</g>
		<g id="XMLID_469_">
			<path class="st8" d="M120.3,46.9L120.3,46.9c0.8,0.4,1.5,1.1,1.7,2l0.1-0.1C121.9,48,121.2,47.3,120.3,46.9z"/>
		</g>
		<g id="XMLID_468_">
			<path class="st8" d="M116.4,49.1L116.4,49.1c0.3-0.9,1-1.6,1.9-1.9l-0.1-0.1C117.3,47.5,116.6,48.2,116.4,49.1z"/>
		</g>
		<g id="XMLID_467_">
			<path class="st8" d="M122.1,50.8L122.1,50.8c-0.3,0.8-1,1.6-1.9,1.9l0.1,0.1C121.2,52.4,121.9,51.7,122.1,50.8z"/>
		</g>
		<g id="XMLID_466_">
			<path class="st8" d="M117.9,52.7L117.9,52.7c-0.8-0.4-1.5-1.1-1.7-2l-0.1,0.1C116.4,51.7,117.1,52.4,117.9,52.7z"/>
		</g>
		<g id="XMLID_465_">
			<path class="st8" d="M120.1,47.2L120.1,47.2c0.8,0.4,1.5,1.1,1.7,2l0.1-0.1C121.7,48.2,121,47.5,120.1,47.2z"/>
		</g>
		<g id="XMLID_464_">
			<path class="st8" d="M116.2,48.9L116.2,48.9c0.3-0.8,1-1.6,1.8-1.9l-0.1-0.1C117.1,47.3,116.4,48,116.2,48.9z"/>
		</g>
		<g id="XMLID_463_">
			<path class="st8" d="M121.9,50.5L121.9,50.5c-0.3,0.9-1,1.6-1.9,1.9l0.1,0.1C121,52.2,121.7,51.5,121.9,50.5z"/>
		</g>
		<g id="XMLID_462_">
			<path class="st8" d="M119.9,47.4l0.1,0.1c0.6,0.2,1.1,0.7,1.3,1.2l0.1,0.1C121.2,48.2,120.6,47.6,119.9,47.4z"/>
		</g>
		<g id="XMLID_461_">
			<path class="st8" d="M117.7,53L117.7,53c-0.8-0.4-1.4-1.1-1.7-2l-0.1,0.1C116.2,51.9,116.9,52.6,117.7,53z"/>
		</g>
		<g id="XMLID_460_">
			<path class="st8" d="M115.4,48.2L115.4,48.2c0.4-0.8,1-1.5,1.8-1.9l-0.1-0.1C116.4,46.7,115.8,47.4,115.4,48.2z"/>
		</g>
		<g id="XMLID_459_">
			<path class="st8" d="M121.1,46.3L121.1,46.3c0.7,0.5,1.4,1.2,1.7,2l0.1-0.1C122.5,47.4,121.9,46.7,121.1,46.3z"/>
		</g>
		<g id="XMLID_458_">
			<path class="st8" d="M122.9,51.4L122.9,51.4c-0.4,0.8-1,1.5-1.8,1.9l0.1,0.1C121.9,53,122.5,52.3,122.9,51.4z"/>
		</g>
		<g id="XMLID_457_">
			<path class="st8" d="M117.2,53.4L117.2,53.4c-0.7-0.5-1.4-1.2-1.7-2l-0.1,0.1C115.8,52.3,116.4,53,117.2,53.4z"/>
		</g>
		<g id="XMLID_456_">
			<path class="st8" d="M120.8,46.5L120.8,46.5c0.8,0.5,1.4,1.2,1.7,2l0.1-0.1C122.3,47.6,121.6,46.9,120.8,46.5z"/>
		</g>
		<g id="XMLID_455_">
			<path class="st8" d="M122.6,51.2L122.6,51.2c-0.4,0.8-1,1.5-1.9,1.9l0.1,0.1C121.6,52.8,122.3,52.1,122.6,51.2z"/>
		</g>
		<g id="XMLID_454_">
			<path class="st8" d="M122.4,51L122.4,51c-0.4,0.8-1,1.5-1.9,1.9l0.1,0.1C121.4,52.6,122.1,51.9,122.4,51z"/>
		</g>
		<g id="XMLID_453_">
			<path class="st8" d="M117.5,53.2L117.5,53.2c-0.8-0.5-1.4-1.2-1.7-2l-0.1,0.1C116,52.1,116.7,52.8,117.5,53.2z"/>
		</g>
		<g id="XMLID_452_">
			<path class="st8" d="M115.9,48.7L115.9,48.7c0.4-0.8,1-1.5,1.8-1.9l-0.1-0.1C116.9,47.1,116.2,47.8,115.9,48.7z"/>
		</g>
		<g id="XMLID_451_">
			<path class="st8" d="M121.6,50.3L121.6,50.3c-0.2,0.9-0.9,1.7-1.9,1.9l0.1,0.1C120.8,52,121.5,51.3,121.6,50.3z"/>
		</g>
		<g id="XMLID_450_">
			<path class="st8" d="M120.6,46.7L120.6,46.7c0.8,0.4,1.4,1.1,1.7,2l0.1-0.1C122.1,47.8,121.4,47.1,120.6,46.7z"/>
		</g>
		<g id="XMLID_449_">
			<path class="st8" d="M121,49.8c0,1-0.8,1.8-1.8,1.9l0.1,0.1C120.3,51.7,121.1,50.9,121,49.8C121.1,49.8,121.1,49.8,121,49.8
				l0-0.1C121,49.8,121,49.8,121,49.8z"/>
		</g>
		<g id="XMLID_448_">
			<path class="st8" d="M120.7,49.8c0,0.9-0.7,1.6-1.6,1.6c-0.9,0-1.6-0.7-1.6-1.6c0-0.9,0.7-1.6,1.6-1.6c0.1,0,0.2,0,0.3,0
				l-0.1-0.1c-0.1,0-0.1,0-0.2,0c-0.9,0-1.6,0.7-1.6,1.6c0,0.9,0.7,1.6,1.6,1.6C120,51.5,120.8,50.7,120.7,49.8
				c0.1-0.1,0.1-0.2,0-0.3l-0.1-0.1C120.7,49.5,120.7,49.7,120.7,49.8z"/>
		</g>
		<g id="XMLID_447_">
			<path class="st8" d="M114.3,52.4L114.3,52.4c0.2,0.6,0.6,1.1,1.1,1.5h0.1C115,53.5,114.6,53,114.3,52.4z"/>
		</g>
		<g id="XMLID_446_">
			<path class="st8" d="M124,52.4c-0.3,0.6-0.7,1.1-1.2,1.5h0.1C123.3,53.5,123.7,53,124,52.4L124,52.4z"/>
		</g>
		<g id="XMLID_445_">
			<path class="st8" d="M125.5,53.9L125.5,53.9C125.6,53.9,125.6,53.9,125.5,53.9L125.5,53.9C125.5,53.9,125.5,53.9,125.5,53.9z"/>
		</g>
		<g id="XMLID_444_">
			<polygon class="st8" points="112.5,45.6 112.5,45.6 112.5,45.6 			"/>
		</g>
		<g id="XMLID_443_">
			<path class="st8" d="M124.2,47L124.2,47c-0.2-0.6-0.6-1-1-1.4H123C123.5,46,123.9,46.5,124.2,47z"/>
		</g>
		<g id="XMLID_440_">
			<path class="st8" d="M119.1,49.4c-0.2,0-0.4,0.2-0.4,0.4c0,0.2,0.2,0.4,0.4,0.4c0.2,0,0.4-0.2,0.4-0.4
				C119.6,49.6,119.4,49.4,119.1,49.4z M119.1,50.2c-0.2,0-0.4-0.2-0.4-0.4c0-0.2,0.2-0.4,0.4-0.4c0.2,0,0.4,0.2,0.4,0.4
				C119.5,50,119.3,50.2,119.1,50.2z"/>
		</g>
		<g id="XMLID_437_">
			<path class="st8" d="M119.1,49.1c-0.4,0-0.7,0.3-0.7,0.7c0,0.4,0.3,0.7,0.7,0.7c0.4,0,0.7-0.3,0.7-0.7
				C119.9,49.4,119.6,49.1,119.1,49.1z M119.1,50.5c-0.4,0-0.7-0.3-0.7-0.7c0-0.4,0.3-0.7,0.7-0.7c0.4,0,0.7,0.3,0.7,0.7
				C119.8,50.2,119.5,50.5,119.1,50.5z"/>
		</g>
		<g id="XMLID_436_">
			<path class="st8" d="M118.7,52L118.7,52c-0.9-0.2-1.7-1-1.7-2l-0.1,0.1C117,51,117.8,51.8,118.7,52z"/>
		</g>
		<g id="XMLID_435_">
			<path class="st8" d="M121.4,50.1L121.4,50.1c-0.1,0.9-0.9,1.7-1.9,1.9l0.1,0.1C120.5,51.8,121.3,51,121.4,50.1z"/>
		</g>
		<g id="XMLID_434_">
			<path class="st8" d="M118.5,52.3L118.5,52.3c-0.9-0.3-1.6-1.1-1.7-2l-0.1,0.1C116.8,51.3,117.5,52,118.5,52.3z"/>
		</g>
		<g id="XMLID_433_">
			<path class="st8" d="M116.7,49.4L116.7,49.4c0.2-0.9,0.9-1.7,1.9-1.9l-0.1-0.1C117.5,47.7,116.8,48.4,116.7,49.4z"/>
		</g>
		<g id="XMLID_430_">
			<path class="st8" d="M119.1,48.8c-0.6,0-1,0.5-1,1c0,0.6,0.5,1,1,1c0.6,0,1-0.5,1-1C120.2,49.3,119.7,48.8,119.1,48.8z
				 M119.1,50.8c-0.5,0-1-0.4-1-1c0-0.5,0.4-1,1-1c0.5,0,1,0.4,1,1C120.1,50.4,119.7,50.8,119.1,50.8z"/>
		</g>
		<g id="XMLID_429_">
			<path class="st8" d="M116.9,49.6L116.9,49.6c0.1-0.9,0.9-1.7,1.9-1.9l-0.1-0.1C117.8,47.8,117,48.6,116.9,49.6z"/>
		</g>
		<g id="XMLID_426_">
			<path class="st8" d="M119.1,48.5c-0.7,0-1.3,0.6-1.3,1.3c0,0.7,0.6,1.3,1.3,1.3c0.7,0,1.3-0.6,1.3-1.3c0-0.4-0.1-0.7-0.4-0.9
				l-0.1-0.1C119.8,48.6,119.5,48.5,119.1,48.5z M119.1,51.1c-0.7,0-1.3-0.6-1.3-1.3c0-0.7,0.6-1.3,1.3-1.3c0.7,0,1.3,0.6,1.3,1.3
				C120.4,50.5,119.8,51.1,119.1,51.1z"/>
		</g>
		<g id="XMLID_425_">
			<path class="st8" d="M117.2,49.8c0,1,0.8,1.9,1.8,1.9l0.1-0.1C118.1,51.7,117.3,50.8,117.2,49.8c0.1-1,0.9-1.8,1.9-1.9l-0.1-0.1
				C118,48,117.2,48.8,117.2,49.8z"/>
		</g>
		<g id="XMLID_424_">
			<path class="st8" d="M115.7,48.5L115.7,48.5c0.4-0.8,1-1.5,1.8-1.9l-0.1-0.1C116.6,46.9,116,47.6,115.7,48.5z"/>
		</g>
		<g id="XMLID_423_">
			<path class="st8" d="M113.9,53.9c-0.2-0.2-0.3-0.4-0.5-0.7l-0.1,0C113.5,53.5,113.6,53.7,113.9,53.9L113.9,53.9z"/>
		</g>
		<g id="XMLID_422_">
			<path class="st8" d="M113.4,46.4c0.2-0.3,0.4-0.6,0.6-0.8h-0.1C113.7,45.8,113.5,46.1,113.4,46.4L113.4,46.4z"/>
		</g>
		<g id="XMLID_421_">
			<path class="st8" d="M124.9,53.3c-0.1,0.2-0.3,0.5-0.5,0.7h0.1C124.7,53.7,124.8,53.5,124.9,53.3L124.9,53.3z"/>
		</g>
		<g id="XMLID_420_">
			<path class="st8" d="M113.2,46.2c0.1-0.2,0.3-0.4,0.4-0.6h-0.1C113.4,45.8,113.3,46,113.2,46.2L113.2,46.2z"/>
		</g>
		<g id="XMLID_419_">
			<path class="st8" d="M124.7,45.6c0.2,0.2,0.3,0.4,0.4,0.6l0.1,0C125,46,124.9,45.8,124.7,45.6L124.7,45.6z"/>
		</g>
		<g id="XMLID_418_">
			<path class="st8" d="M124.3,45.6c0.2,0.3,0.4,0.5,0.6,0.8l0.1,0C124.8,46.1,124.6,45.8,124.3,45.6L124.3,45.6z"/>
		</g>
		<g id="XMLID_417_">
			<path class="st8" d="M124.4,52.8c-0.2,0.4-0.5,0.8-0.8,1.1h0.1C124,53.6,124.3,53.3,124.4,52.8L124.4,52.8z"/>
		</g>
		<g id="XMLID_416_">
			<path class="st8" d="M124.6,53c-0.2,0.3-0.4,0.6-0.6,0.9h0.1C124.3,53.7,124.5,53.4,124.6,53L124.6,53z"/>
		</g>
		<g id="XMLID_415_">
			<path class="st8" d="M123.9,45.6c0.3,0.3,0.5,0.7,0.8,1l0.1,0C124.5,46.2,124.2,45.9,123.9,45.6L123.9,45.6z"/>
		</g>
		<g id="XMLID_414_">
			<path class="st8" d="M114.3,53.9c-0.2-0.3-0.4-0.6-0.6-0.9l-0.1,0C113.8,53.4,114,53.7,114.3,53.9L114.3,53.9z"/>
		</g>
		<g id="XMLID_413_">
			<path class="st8" d="M113.6,46.6c0.2-0.4,0.5-0.7,0.8-1h-0.1C114,45.9,113.8,46.2,113.6,46.6L113.6,46.6z"/>
		</g>
		<g id="XMLID_412_">
			<path class="st8" d="M113,46c0.1-0.1,0.2-0.3,0.3-0.4h-0.1C113.1,45.7,113,45.8,113,46L113,46z"/>
		</g>
		<g id="XMLID_411_">
			<path class="st8" d="M113.5,53.9c-0.1-0.2-0.2-0.3-0.3-0.5l-0.1,0C113.2,53.6,113.3,53.8,113.5,53.9L113.5,53.9z"/>
		</g>
		<g id="XMLID_410_">
			<path class="st8" d="M112.7,45.8c0-0.1,0.1-0.1,0.1-0.2h-0.1C112.8,45.6,112.7,45.7,112.7,45.8L112.7,45.8z"/>
		</g>
		<g id="XMLID_409_">
			<path class="st8" d="M112.7,53.9L112.7,53.9C112.7,53.9,112.7,53.9,112.7,53.9L112.7,53.9C112.8,53.9,112.8,53.9,112.7,53.9z"/>
		</g>
		<g id="XMLID_408_">
			<polygon class="st8" points="125.8,45.6 125.8,45.6 125.8,45.6 			"/>
		</g>
		<g id="XMLID_407_">
			<path class="st8" d="M125.3,53.7c-0.1,0.1-0.1,0.2-0.2,0.3h0.1C125.3,53.9,125.3,53.8,125.3,53.7L125.3,53.7z"/>
		</g>
		<g id="XMLID_406_">
			<path class="st8" d="M125.4,45.6c0,0.1,0.1,0.1,0.1,0.2l0.1,0C125.6,45.7,125.5,45.6,125.4,45.6L125.4,45.6z"/>
		</g>
		<g id="XMLID_405_">
			<path class="st8" d="M113.1,53.9c-0.1-0.1-0.1-0.2-0.2-0.3l-0.1,0C113,53.8,113,53.9,113.1,53.9L113.1,53.9z"/>
		</g>
		<g id="XMLID_404_">
			<path class="st8" d="M125.1,53.5c-0.1,0.2-0.2,0.3-0.3,0.5h0.1C125,53.8,125.1,53.7,125.1,53.5L125.1,53.5z"/>
		</g>
		<g id="XMLID_403_">
			<path class="st8" d="M125,45.6c0.1,0.1,0.2,0.3,0.3,0.4l0.1,0C125.3,45.8,125.2,45.7,125,45.6L125,45.6z"/>
		</g>
		<g id="XMLID_402_">
			<path class="st8" d="M114.7,53.9c-0.3-0.3-0.6-0.7-0.8-1.1l-0.1,0C114,53.3,114.3,53.6,114.7,53.9L114.7,53.9z"/>
		</g>
		<g id="XMLID_401_">
			<path class="st8" d="M115.9,53.9h0.1c-0.6-0.5-1.1-1-1.4-1.7l-0.1,0C114.8,52.9,115.3,53.5,115.9,53.9z"/>
		</g>
		<g id="XMLID_400_">
			<path class="st8" d="M121.8,45.6L121.8,45.6c0.7,0.5,1.3,1.2,1.7,2l0.1,0C123.1,46.8,122.5,46.1,121.8,45.6z"/>
		</g>
		<g id="XMLID_399_">
			<path class="st8" d="M123.3,51.8L123.3,51.8c-0.4,0.8-1.1,1.5-1.8,1.9l0.1,0.1C122.3,53.3,122.9,52.7,123.3,51.8z"/>
		</g>
		<g id="XMLID_398_">
			<path class="st8" d="M116.8,53.8L116.8,53.8c-0.7-0.5-1.3-1.2-1.7-2l-0.1,0.1C115.4,52.7,116,53.3,116.8,53.8z"/>
		</g>
		<g id="XMLID_397_">
			<path class="st8" d="M113.9,46.8c0.3-0.5,0.6-0.9,0.9-1.2h-0.1C114.4,45.9,114.1,46.3,113.9,46.8L113.9,46.8z"/>
		</g>
		<g id="XMLID_396_">
			<path class="st8" d="M114.7,47.6L114.7,47.6c0.5-0.8,1.1-1.4,1.8-1.9l-0.1,0C115.8,46.1,115.1,46.8,114.7,47.6z"/>
		</g>
		<g id="XMLID_395_">
			<path class="st8" d="M116.4,53.9h0.1c-0.7-0.5-1.3-1.1-1.7-1.9l-0.1,0C115.1,52.8,115.7,53.5,116.4,53.9z"/>
		</g>
		<g id="XMLID_394_">
			<path class="st8" d="M115,47.8L115,47.8c0.4-0.8,1.1-1.5,1.8-1.9l-0.1,0C116,46.3,115.4,47,115,47.8z"/>
		</g>
		<g id="XMLID_393_">
			<path class="st8" d="M117,53.6L117,53.6c-0.7-0.5-1.4-1.2-1.7-2l-0.1,0C115.6,52.5,116.2,53.1,117,53.6z"/>
		</g>
		<g id="XMLID_392_">
			<path class="st8" d="M123.1,51.6L123.1,51.6c-0.4,0.8-1.1,1.5-1.8,1.9l0.1,0.1C122.1,53.1,122.7,52.5,123.1,51.6z"/>
		</g>
		<g id="XMLID_391_">
			<path class="st8" d="M121.5,45.9L121.5,45.9c0.7,0.5,1.3,1.2,1.7,2l0.1-0.1C122.9,47,122.3,46.3,121.5,45.9z"/>
		</g>
		<g id="XMLID_390_">
			<path class="st8" d="M123.6,52.1L123.6,52.1c-0.4,0.7-1,1.4-1.8,1.9h0.1C122.6,53.5,123.2,52.8,123.6,52.1z"/>
		</g>
		<g id="XMLID_389_">
			<path class="st8" d="M114.1,47c0.3-0.5,0.7-1,1.1-1.5h-0.1C114.7,46,114.3,46.5,114.1,47L114.1,47z"/>
		</g>
		<g id="XMLID_388_">
			<path class="st8" d="M114.3,47.2L114.3,47.2c0.4-0.6,0.9-1.2,1.4-1.6h-0.1C115.1,46,114.6,46.6,114.3,47.2z"/>
		</g>
		<g id="XMLID_387_">
			<path class="st8" d="M115.1,53.9c-0.4-0.4-0.7-0.8-1-1.3l-0.1,0C114.3,53.1,114.6,53.6,115.1,53.9L115.1,53.9z"/>
		</g>
		<g id="XMLID_386_">
			<path class="st8" d="M122.2,45.6h-0.1c0.7,0.5,1.3,1.1,1.6,1.9l0.1,0C123.4,46.7,122.9,46.1,122.2,45.6z"/>
		</g>
		<g id="XMLID_385_">
			<path class="st8" d="M123.5,45.6c0.4,0.4,0.7,0.8,0.9,1.2l0.1,0C124.2,46.3,123.9,45.9,123.5,45.6L123.5,45.6z"/>
		</g>
		<g id="XMLID_384_">
			<path class="st8" d="M124.2,52.6c-0.3,0.5-0.6,0.9-1,1.3h0.1C123.7,53.6,124,53.1,124.2,52.6L124.2,52.6z"/>
		</g>
		<g id="XMLID_383_">
			<path class="st8" d="M114.5,47.4L114.5,47.4c0.4-0.7,1-1.3,1.7-1.8h-0.1C115.4,46.1,114.9,46.7,114.5,47.4z"/>
		</g>
		<g id="XMLID_382_">
			<path class="st8" d="M115.2,48L115.2,48c0.4-0.8,1.1-1.5,1.8-1.9l-0.1-0.1C116.2,46.5,115.6,47.2,115.2,48z"/>
		</g>
		<g id="XMLID_381_">
			<path class="st8" d="M123.8,52.3L123.8,52.3c-0.4,0.6-0.9,1.2-1.5,1.7h0.1C123,53.5,123.4,52.9,123.8,52.3z"/>
		</g>
		<g id="XMLID_380_">
			<path class="st8" d="M122.7,45.6h-0.1c0.6,0.5,1,1,1.4,1.7l0.1,0C123.7,46.6,123.2,46,122.7,45.6z"/>
		</g>
	</g>
</g>
<g>
	<path class="st4" d="M152.2,56.8h-4.6c-0.2,0-0.3-0.2-0.1-0.4l10.6-13.1c0.2-0.2,0.6-0.4,0.8-0.4h4.6c0.2,0,0.3,0.2,0.1,0.4
		L153,56.4C152.8,56.6,152.4,56.8,152.2,56.8z"/>
</g>
<g>
	<path class="st4" d="M224.3,43H203c-0.2,0-0.3,0.1-0.4,0.2l-0.8,0.9c-0.1,0.1-0.3,0.2-0.4,0.2h-5.8c-0.2,0-0.4,0.1-0.5,0.2
		l-2.9,2.7c0,0-0.1,0.1-0.1,0.1c0,0-0.1,0-0.1-0.1l-2.9-2.7c-0.1-0.1-0.3-0.2-0.5-0.2l-8.3,0c-0.1,0-0.1,0-0.2,0.1
		c0,0.1,0,0.2,0,0.2l0.9,0.9c0.1,0.1,0.1,0.2,0,0.3c0,0.1-0.1,0.1-0.2,0.1l-1.3,0c-0.2,0-0.4,0.1-0.6,0.3l-2.3,2.5
		c-0.2,0.2-0.4,0.3-0.6,0.3l-2.5,0c-0.1,0-0.1,0-0.2-0.1c-0.1-0.1-0.1-0.2,0-0.3l4.6-5.2c0.1-0.1,0.1-0.2,0-0.3c0,0-0.1-0.1-0.2-0.1
		h-8.5c-0.2,0-0.4,0.1-0.6,0.3l-9,9.6c-0.1,0.1-0.1,0.2,0,0.3c0,0,0.1,0.1,0.2,0.1l12.2,0c0.1,0,0.1,0,0.2,0.1
		c0.1,0.1,0.1,0.2,0,0.3l-2.5,2.7c-0.1,0.1-0.1,0.2,0,0.3c0,0,0.1,0.1,0.2,0.1l8.4,0c0.2,0,0.4-0.1,0.6-0.3l0.7-0.8
		c0.2-0.2,0.4-0.3,0.6-0.3l8.5,0c0.2,0,0.4-0.1,0.5-0.2l2.8-2.6c0,0,0.1-0.1,0.1-0.1c0,0,0.1,0,0.1,0.1l0.6,0.6l0,0l0.6,0.6
		l-2.3,2.6c-0.1,0.1,0,0.4,0.2,0.4h21.3c0.2,0,0.3-0.1,0.4-0.2l3.8-4.2c0.1-0.1,0-0.4-0.2-0.4h-8.5c-0.1,0-0.1-0.1,0-0.1l10.7-1.9
		c0.1,0,0.2-0.1,0.3-0.2l5.5-6.2C224.6,43.2,224.5,43,224.3,43z"/>
</g>
<g id="XMLID_556_">
	<path class="st9" d="M199.4,49.2"/>
</g>
<g id="XMLID_555_">
	<path class="st9" d="M199.4,49.2"/>
</g>
<g>
	<g>
		<polygon class="st10" points="184.7,45.4 189.6,49.8 184.9,54.1 189.5,54.1 191.9,51.9 194.3,54.1 198.9,54.1 189.3,45.4 		"/>
	</g>
	<g>
		<polygon class="st10" points="199,45.4 194.5,45.4 192.3,47.4 194.6,49.5 		"/>
	</g>
</g>
<g>
	<g id="XMLID_552_">
		<g id="XMLID_554_">
			<polygon class="st6" points="198.5,45.6 194.6,45.6 192.6,47.4 194.6,49.2 			"/>
		</g>
		<g id="XMLID_553_">
			<polygon class="st6" points="185.3,45.6 189.9,49.8 185.4,53.9 189.4,53.9 191.9,51.6 194.4,53.9 198.3,53.9 189.2,45.6 			"/>
		</g>
	</g>
	<g id="XMLID_169_">
		<g id="XMLID_551_">
			<path class="st8" d="M194,46.1L194,46.1c0.7,0.5,1.4,1.2,1.7,2l0.1-0.1C195.5,47.2,194.8,46.5,194,46.1z"/>
		</g>
		<g id="XMLID_550_">
			<path class="st8" d="M190.9,52.5L190.9,52.5c-0.8-0.4-1.5-1.1-1.7-2l-0.1,0.1C189.4,51.5,190.1,52.2,190.9,52.5z"/>
		</g>
		<g id="XMLID_549_">
			<path class="st8" d="M193.1,46.9L193.1,46.9c0.8,0.4,1.5,1.1,1.7,2l0.1-0.1C194.6,48,193.9,47.3,193.1,46.9z"/>
		</g>
		<g id="XMLID_548_">
			<path class="st8" d="M189.1,49.1L189.1,49.1c0.3-0.9,1-1.6,1.8-1.9l-0.1-0.1C190.1,47.5,189.4,48.2,189.1,49.1z"/>
		</g>
		<g id="XMLID_547_">
			<path class="st8" d="M194.9,50.8L194.9,50.8c-0.3,0.8-1,1.6-1.9,1.9l0.1,0.1C193.9,52.4,194.6,51.7,194.9,50.8z"/>
		</g>
		<g id="XMLID_546_">
			<path class="st8" d="M190.7,52.7L190.7,52.7c-0.8-0.4-1.5-1.1-1.7-2l-0.1,0.1C189.2,51.7,189.8,52.4,190.7,52.7z"/>
		</g>
		<g id="XMLID_545_">
			<path class="st8" d="M192.8,47.2L192.8,47.2c0.8,0.4,1.5,1.1,1.7,2l0.1-0.1C194.4,48.2,193.7,47.5,192.8,47.2z"/>
		</g>
		<g id="XMLID_544_">
			<path class="st8" d="M188.9,48.9L188.9,48.9c0.3-0.8,1-1.6,1.8-1.9l-0.1-0.1C189.8,47.3,189.2,48,188.9,48.9z"/>
		</g>
		<g id="XMLID_543_">
			<path class="st8" d="M194.6,50.5L194.6,50.5c-0.3,0.9-1,1.6-1.9,1.9l0.1,0.1C193.7,52.2,194.4,51.5,194.6,50.5z"/>
		</g>
		<g id="XMLID_542_">
			<path class="st8" d="M192.6,47.4l0.1,0.1c0.6,0.2,1.1,0.7,1.3,1.2l0.1,0.1C194,48.2,193.4,47.6,192.6,47.4z"/>
		</g>
		<g id="XMLID_541_">
			<path class="st8" d="M190.5,53L190.5,53c-0.8-0.4-1.4-1.1-1.7-2l-0.1,0.1C189,51.9,189.6,52.6,190.5,53z"/>
		</g>
		<g id="XMLID_540_">
			<path class="st8" d="M188.2,48.3L188.2,48.3c0.4-0.8,1-1.5,1.8-1.9l-0.1-0.1C189.2,46.7,188.5,47.4,188.2,48.3z"/>
		</g>
		<g id="XMLID_539_">
			<path class="st8" d="M193.8,46.3L193.8,46.3c0.7,0.5,1.4,1.2,1.7,2l0.1-0.1C195.2,47.4,194.6,46.7,193.8,46.3z"/>
		</g>
		<g id="XMLID_538_">
			<path class="st8" d="M195.6,51.4L195.6,51.4c-0.4,0.8-1,1.5-1.8,1.9l0.1,0.1C194.6,53,195.2,52.3,195.6,51.4z"/>
		</g>
		<g id="XMLID_537_">
			<path class="st8" d="M190,53.4L190,53.4c-0.7-0.5-1.4-1.2-1.7-2l-0.1,0.1C188.5,52.3,189.2,53,190,53.4z"/>
		</g>
		<g id="XMLID_536_">
			<path class="st8" d="M193.6,46.5L193.6,46.5c0.8,0.5,1.4,1.2,1.7,2l0.1-0.1C195,47.6,194.4,46.9,193.6,46.5z"/>
		</g>
		<g id="XMLID_535_">
			<path class="st8" d="M195.4,51.2L195.4,51.2c-0.4,0.8-1,1.5-1.8,1.9l0.1,0.1C194.4,52.8,195,52.1,195.4,51.2z"/>
		</g>
		<g id="XMLID_534_">
			<path class="st8" d="M195.1,51L195.1,51c-0.4,0.8-1,1.5-1.9,1.9l0.1,0.1C194.2,52.6,194.8,51.9,195.1,51z"/>
		</g>
		<g id="XMLID_533_">
			<path class="st8" d="M190.2,53.2L190.2,53.2c-0.8-0.5-1.4-1.2-1.7-2l-0.1,0.1C188.8,52.1,189.4,52.8,190.2,53.2z"/>
		</g>
		<g id="XMLID_532_">
			<path class="st8" d="M188.7,48.7L188.7,48.7c0.4-0.8,1-1.5,1.8-1.9l-0.1-0.1C189.6,47.1,189,47.8,188.7,48.7z"/>
		</g>
		<g id="XMLID_531_">
			<path class="st8" d="M194.4,50.3L194.4,50.3c-0.2,0.9-0.9,1.7-1.9,1.9l0.1,0.1C193.5,52,194.2,51.3,194.4,50.3z"/>
		</g>
		<g id="XMLID_530_">
			<path class="st8" d="M193.3,46.7L193.3,46.7c0.8,0.4,1.4,1.1,1.7,2l0.1-0.1C194.8,47.8,194.2,47.1,193.3,46.7z"/>
		</g>
		<g id="XMLID_529_">
			<path class="st8" d="M193.8,49.8c0,1-0.8,1.8-1.8,1.9l0.1,0.1C193,51.7,193.8,50.9,193.8,49.8C193.8,49.8,193.8,49.8,193.8,49.8
				l0-0.1C193.8,49.8,193.8,49.8,193.8,49.8z"/>
		</g>
		<g id="XMLID_528_">
			<path class="st8" d="M193.5,49.8c0,0.9-0.7,1.6-1.6,1.6c-0.9,0-1.6-0.7-1.6-1.6c0-0.9,0.7-1.6,1.6-1.6c0.1,0,0.2,0,0.3,0
				l-0.1-0.1c-0.1,0-0.1,0-0.2,0c-0.9,0-1.6,0.7-1.6,1.6c0,0.9,0.7,1.6,1.6,1.6C192.8,51.5,193.5,50.7,193.5,49.8
				c0.1-0.1,0.1-0.2,0-0.3l-0.1-0.1C193.4,49.5,193.5,49.7,193.5,49.8z"/>
		</g>
		<g id="XMLID_527_">
			<path class="st8" d="M187.1,52.4L187.1,52.4c0.2,0.6,0.6,1.1,1.1,1.5h0.1C187.8,53.5,187.4,53,187.1,52.4z"/>
		</g>
		<g id="XMLID_526_">
			<path class="st8" d="M196.7,52.4c-0.3,0.6-0.7,1.1-1.2,1.5h0.1C196.1,53.5,196.5,53,196.7,52.4L196.7,52.4z"/>
		</g>
		<g id="XMLID_525_">
			<path class="st8" d="M198.3,53.9L198.3,53.9C198.3,53.9,198.3,53.9,198.3,53.9L198.3,53.9C198.3,53.9,198.3,53.9,198.3,53.9z"/>
		</g>
		<g id="XMLID_524_">
			<polygon class="st8" points="185.3,45.6 185.3,45.6 185.3,45.6 			"/>
		</g>
		<g id="XMLID_523_">
			<path class="st8" d="M196.9,47L196.9,47c-0.2-0.6-0.6-1-1-1.4h-0.1C196.2,46,196.6,46.5,196.9,47z"/>
		</g>
		<g id="XMLID_520_">
			<path class="st8" d="M191.9,49.4c-0.2,0-0.4,0.2-0.4,0.4c0,0.2,0.2,0.4,0.4,0.4c0.2,0,0.4-0.2,0.4-0.4
				C192.3,49.6,192.1,49.4,191.9,49.4z M191.9,50.2c-0.2,0-0.4-0.2-0.4-0.4c0-0.2,0.2-0.4,0.4-0.4c0.2,0,0.4,0.2,0.4,0.4
				C192.3,50,192.1,50.2,191.9,50.2z"/>
		</g>
		<g id="XMLID_517_">
			<path class="st8" d="M191.9,49.1c-0.4,0-0.7,0.3-0.7,0.7c0,0.4,0.3,0.7,0.7,0.7c0.4,0,0.7-0.3,0.7-0.7
				C192.6,49.4,192.3,49.1,191.9,49.1z M191.9,50.5c-0.4,0-0.7-0.3-0.7-0.7c0-0.4,0.3-0.7,0.7-0.7c0.4,0,0.7,0.3,0.7,0.7
				C192.6,50.2,192.3,50.5,191.9,50.5z"/>
		</g>
		<g id="XMLID_516_">
			<path class="st8" d="M191.5,52L191.5,52c-0.9-0.2-1.7-1-1.7-2l-0.1,0.1C189.8,51,190.5,51.8,191.5,52z"/>
		</g>
		<g id="XMLID_515_">
			<path class="st8" d="M194.1,50.1L194.1,50.1c-0.1,0.9-0.9,1.7-1.9,1.9l0.1,0.1C193.3,51.8,194,51.1,194.1,50.1z"/>
		</g>
		<g id="XMLID_514_">
			<path class="st8" d="M191.2,52.3L191.2,52.3c-0.9-0.3-1.6-1.1-1.7-2l-0.1,0.1C189.6,51.3,190.3,52,191.2,52.3z"/>
		</g>
		<g id="XMLID_513_">
			<path class="st8" d="M189.4,49.4L189.4,49.4c0.2-0.9,0.9-1.7,1.9-1.9l-0.1-0.1C190.3,47.7,189.6,48.4,189.4,49.4z"/>
		</g>
		<g id="XMLID_510_">
			<path class="st8" d="M191.9,48.8c-0.6,0-1,0.5-1,1c0,0.6,0.5,1,1,1c0.6,0,1-0.5,1-1C192.9,49.3,192.5,48.8,191.9,48.8z
				 M191.9,50.8c-0.5,0-1-0.4-1-1c0-0.5,0.4-1,1-1c0.5,0,1,0.4,1,1C192.9,50.4,192.4,50.8,191.9,50.8z"/>
		</g>
		<g id="XMLID_509_">
			<path class="st8" d="M189.7,49.6L189.7,49.6c0.1-0.9,0.9-1.7,1.9-1.9l-0.1-0.1C190.5,47.8,189.8,48.6,189.7,49.6z"/>
		</g>
		<g id="XMLID_506_">
			<path class="st8" d="M191.9,48.5c-0.7,0-1.3,0.6-1.3,1.3c0,0.7,0.6,1.3,1.3,1.3c0.7,0,1.3-0.6,1.3-1.3c0-0.4-0.1-0.7-0.4-0.9
				l-0.1-0.1C192.5,48.6,192.2,48.5,191.9,48.5z M191.9,51.1c-0.7,0-1.3-0.6-1.3-1.3c0-0.7,0.6-1.3,1.3-1.3c0.7,0,1.3,0.6,1.3,1.3
				C193.2,50.5,192.6,51.1,191.9,51.1z"/>
		</g>
		<g id="XMLID_505_">
			<path class="st8" d="M190,49.8c0,1,0.8,1.9,1.8,1.9l0.1-0.1C190.8,51.7,190,50.8,190,49.8c0.1-1,0.9-1.8,1.9-1.9l-0.1-0.1
				C190.8,48,190,48.8,190,49.8z"/>
		</g>
		<g id="XMLID_504_">
			<path class="st8" d="M188.4,48.5L188.4,48.5c0.4-0.8,1-1.5,1.8-1.9l-0.1-0.1C189.4,46.9,188.8,47.6,188.4,48.5z"/>
		</g>
		<g id="XMLID_503_">
			<path class="st8" d="M186.6,53.9c-0.2-0.2-0.3-0.4-0.5-0.7l-0.1,0C186.2,53.5,186.4,53.7,186.6,53.9L186.6,53.9z"/>
		</g>
		<g id="XMLID_502_">
			<path class="st8" d="M186.2,46.4c0.2-0.3,0.4-0.6,0.6-0.8h-0.1C186.5,45.8,186.3,46.1,186.2,46.4L186.2,46.4z"/>
		</g>
		<g id="XMLID_501_">
			<path class="st8" d="M197.6,53.3c-0.1,0.2-0.3,0.5-0.5,0.7h0.1C197.4,53.7,197.5,53.5,197.6,53.3L197.6,53.3z"/>
		</g>
		<g id="XMLID_500_">
			<path class="st8" d="M185.9,46.2c0.1-0.2,0.3-0.4,0.4-0.6h-0.1C186.1,45.8,186,46,185.9,46.2L185.9,46.2z"/>
		</g>
		<g id="XMLID_499_">
			<path class="st8" d="M197.4,45.6c0.2,0.2,0.3,0.4,0.4,0.6l0.1,0C197.8,46,197.6,45.8,197.4,45.6L197.4,45.6z"/>
		</g>
		<g id="XMLID_498_">
			<path class="st8" d="M197,45.6c0.2,0.3,0.4,0.5,0.6,0.8l0.1,0C197.5,46.1,197.3,45.8,197,45.6L197,45.6z"/>
		</g>
		<g id="XMLID_497_">
			<path class="st8" d="M197.2,52.8c-0.2,0.4-0.5,0.8-0.8,1.1h0.1C196.7,53.6,197,53.3,197.2,52.8L197.2,52.8z"/>
		</g>
		<g id="XMLID_496_">
			<path class="st8" d="M197.4,53c-0.2,0.3-0.4,0.6-0.6,0.9h0.1C197.1,53.7,197.3,53.4,197.4,53L197.4,53z"/>
		</g>
		<g id="XMLID_495_">
			<path class="st8" d="M196.6,45.6c0.3,0.3,0.5,0.7,0.8,1l0.1,0C197.2,46.2,197,45.9,196.6,45.6L196.6,45.6z"/>
		</g>
		<g id="XMLID_494_">
			<path class="st8" d="M187,53.9c-0.2-0.3-0.4-0.6-0.6-0.9l-0.1,0C186.5,53.4,186.7,53.7,187,53.9L187,53.9z"/>
		</g>
		<g id="XMLID_493_">
			<path class="st8" d="M186.4,46.6c0.2-0.4,0.5-0.7,0.8-1h-0.1C186.8,45.9,186.6,46.2,186.4,46.6L186.4,46.6z"/>
		</g>
		<g id="XMLID_492_">
			<path class="st8" d="M185.7,46c0.1-0.1,0.2-0.3,0.3-0.4h-0.1C185.8,45.7,185.7,45.8,185.7,46L185.7,46z"/>
		</g>
		<g id="XMLID_491_">
			<path class="st8" d="M186.3,53.9c-0.1-0.2-0.2-0.3-0.3-0.5l-0.1,0C186,53.7,186.1,53.8,186.3,53.9L186.3,53.9z"/>
		</g>
		<g id="XMLID_490_">
			<path class="st8" d="M185.5,45.8c0-0.1,0.1-0.1,0.1-0.2h-0.1C185.5,45.6,185.5,45.7,185.5,45.8L185.5,45.8z"/>
		</g>
		<g id="XMLID_489_">
			<path class="st8" d="M185.5,53.9L185.5,53.9C185.4,53.9,185.4,53.9,185.5,53.9L185.5,53.9C185.5,53.9,185.5,53.9,185.5,53.9z"/>
		</g>
		<g id="XMLID_488_">
			<polygon class="st8" points="198.5,45.6 198.5,45.6 198.5,45.6 			"/>
		</g>
		<g id="XMLID_487_">
			<path class="st8" d="M198.1,53.7c-0.1,0.1-0.1,0.2-0.2,0.3h0.1C198,53.9,198.1,53.8,198.1,53.7L198.1,53.7z"/>
		</g>
		<g id="XMLID_486_">
			<path class="st8" d="M198.2,45.6c0,0.1,0.1,0.1,0.1,0.2l0.1,0C198.3,45.7,198.3,45.6,198.2,45.6L198.2,45.6z"/>
		</g>
		<g id="XMLID_485_">
			<path class="st8" d="M185.9,53.9c-0.1-0.1-0.1-0.2-0.2-0.3l-0.1,0C185.7,53.8,185.8,53.9,185.9,53.9L185.9,53.9z"/>
		</g>
		<g id="XMLID_484_">
			<path class="st8" d="M197.8,53.5c-0.1,0.2-0.2,0.3-0.3,0.5h0.1C197.7,53.8,197.8,53.7,197.8,53.5L197.8,53.5z"/>
		</g>
		<g id="XMLID_483_">
			<path class="st8" d="M197.8,45.6c0.1,0.1,0.2,0.3,0.3,0.4l0.1,0C198,45.8,198,45.7,197.8,45.6L197.8,45.6z"/>
		</g>
		<g id="XMLID_482_">
			<path class="st8" d="M187.4,53.9c-0.3-0.3-0.6-0.7-0.8-1.1l-0.1,0C186.8,53.3,187,53.6,187.4,53.9L187.4,53.9z"/>
		</g>
		<g id="XMLID_377_">
			<path class="st8" d="M188.6,53.9h0.1c-0.6-0.5-1.1-1-1.4-1.7l-0.1,0C187.6,52.9,188.1,53.5,188.6,53.9z"/>
		</g>
		<g id="XMLID_275_">
			<path class="st8" d="M194.5,45.7L194.5,45.7c0.7,0.5,1.3,1.2,1.7,2l0.1,0C195.9,46.8,195.3,46.1,194.5,45.7z"/>
		</g>
		<g id="XMLID_274_">
			<path class="st8" d="M196.1,51.8L196.1,51.8c-0.4,0.8-1.1,1.5-1.8,1.9l0.1,0.1C195.1,53.3,195.7,52.7,196.1,51.8z"/>
		</g>
		<g id="XMLID_273_">
			<path class="st8" d="M189.5,53.8L189.5,53.8c-0.7-0.5-1.3-1.2-1.7-2l-0.1,0.1C188.1,52.7,188.7,53.3,189.5,53.8z"/>
		</g>
		<g id="XMLID_272_">
			<path class="st8" d="M186.6,46.8c0.3-0.5,0.6-0.9,0.9-1.2h-0.1C187.1,45.9,186.8,46.4,186.6,46.8L186.6,46.8z"/>
		</g>
		<g id="XMLID_271_">
			<path class="st8" d="M187.5,47.6L187.5,47.6c0.5-0.8,1.1-1.4,1.8-1.9l-0.1,0C188.5,46.1,187.9,46.8,187.5,47.6z"/>
		</g>
		<g id="XMLID_270_">
			<path class="st8" d="M189.1,53.9h0.1c-0.7-0.5-1.3-1.1-1.7-1.9l-0.1,0C187.9,52.8,188.4,53.5,189.1,53.9z"/>
		</g>
		<g id="XMLID_269_">
			<path class="st8" d="M187.7,47.8L187.7,47.8c0.4-0.8,1.1-1.5,1.8-1.9l-0.1-0.1C188.7,46.3,188.1,47,187.7,47.8z"/>
		</g>
		<g id="XMLID_268_">
			<path class="st8" d="M189.7,53.6L189.7,53.6c-0.7-0.5-1.4-1.2-1.7-2l-0.1,0.1C188.3,52.5,189,53.1,189.7,53.6z"/>
		</g>
		<g id="XMLID_267_">
			<path class="st8" d="M195.8,51.6L195.8,51.6c-0.4,0.8-1.1,1.5-1.8,1.9l0.1,0.1C194.8,53.1,195.5,52.5,195.8,51.6z"/>
		</g>
		<g id="XMLID_266_">
			<path class="st8" d="M194.3,45.9L194.3,45.9c0.7,0.5,1.3,1.2,1.7,2l0.1,0C195.7,47,195,46.3,194.3,45.9z"/>
		</g>
		<g id="XMLID_265_">
			<path class="st8" d="M196.3,52.1L196.3,52.1c-0.4,0.7-1,1.4-1.8,1.9h0.1C195.4,53.5,195.9,52.8,196.3,52.1z"/>
		</g>
		<g id="XMLID_264_">
			<path class="st8" d="M186.9,47c0.3-0.5,0.7-1,1.1-1.5h-0.1C187.5,46,187.1,46.5,186.9,47L186.9,47z"/>
		</g>
		<g id="XMLID_263_">
			<path class="st8" d="M187,47.2L187,47.2c0.4-0.6,0.9-1.2,1.4-1.6h-0.1C187.8,46,187.4,46.6,187,47.2z"/>
		</g>
		<g id="XMLID_262_">
			<path class="st8" d="M187.8,53.9c-0.4-0.4-0.7-0.8-1-1.3l-0.1,0C187.1,53.1,187.4,53.6,187.8,53.9L187.8,53.9z"/>
		</g>
		<g id="XMLID_261_">
			<path class="st8" d="M194.9,45.6h-0.1c0.7,0.5,1.3,1.1,1.6,1.9l0.1,0C196.1,46.7,195.6,46.1,194.9,45.6z"/>
		</g>
		<g id="XMLID_260_">
			<path class="st8" d="M196.2,45.6c0.4,0.4,0.7,0.8,0.9,1.2l0.1,0C197,46.3,196.7,45.9,196.2,45.6L196.2,45.6z"/>
		</g>
		<g id="XMLID_259_">
			<path class="st8" d="M196.9,52.6c-0.3,0.5-0.6,0.9-1,1.3h0.1C196.4,53.6,196.7,53.1,196.9,52.6L196.9,52.6z"/>
		</g>
		<g id="XMLID_257_">
			<path class="st8" d="M187.3,47.4L187.3,47.4c0.4-0.7,1-1.3,1.7-1.8h-0.1C188.2,46.1,187.6,46.7,187.3,47.4z"/>
		</g>
		<g id="XMLID_255_">
			<path class="st8" d="M187.9,48L187.9,48c0.4-0.8,1.1-1.5,1.8-1.9l-0.1-0.1C189,46.5,188.3,47.2,187.9,48z"/>
		</g>
		<g id="XMLID_207_">
			<path class="st8" d="M196.5,52.3L196.5,52.3c-0.4,0.6-0.9,1.2-1.5,1.7h0.1C195.7,53.5,196.2,52.9,196.5,52.3z"/>
		</g>
		<g id="XMLID_205_">
			<path class="st8" d="M195.4,45.6h-0.1c0.6,0.5,1,1,1.4,1.7l0.1,0C196.4,46.6,196,46,195.4,45.6z"/>
		</g>
	</g>
	<g>
		<g>
			<polygon class="st10" points="184.7,45.4 189.6,49.8 184.9,54.1 189.5,54.1 191.9,51.9 194.3,54.1 194.4,54.1 194.4,54.1 
				198.9,54.1 196.4,51.9 196.4,51.9 189.3,45.4 			"/>
		</g>
		<g>
			<polygon class="st10" points="199,45.4 194.5,45.4 192.3,47.4 194.6,49.5 			"/>
		</g>
		<g>
			<polygon class="st10" points="194.5,45.4 192.3,47.4 194.6,49.5 199,45.4 			"/>
		</g>
		<g>
			<polygon class="st5" points="193.7,55.3 210.7,55.3 210.7,55.3 193.7,55.3 			"/>
		</g>
		<g>
			<path class="st5" d="M212.4,46.9C212.4,46.9,212.4,46.9,212.4,46.9c-0.2,0.3-0.5,0.6-0.8,0.9c0,0,0,0,0,0
				C211.9,47.4,212.4,46.9,212.4,46.9z"/>
		</g>
		<g>
			<path class="st5" d="M217.1,48.6l3.8-4.3l-17.8,0l-2,2.3h11.6c-0.1,0.1-1.3,1.4-1.3,1.5l-13.6,2.3l-0.9,1l-1.6-1.5l5.3-4.9h-6
				l-2.5,2.3c0,0-0.1,0.1-0.1,0.1c0,0-0.1,0-0.1-0.1l-2.5-2.3h0h-6l1.7,1.6h-4l-3.7,4.2H170l5.8-6.5h-5.3l-7.1,7.9h12.7l-2.8,3.2
				h5.2l2.8-3.2h2.8l1.5-1.4h-3l3.2-3.6l2.9,2.7l-5.1,4.7h6h0l2.2-2.1c0,0,0.1-0.1,0.1-0.1c0,0,0.1,0,0.1,0.1l2.1,1.9l-0.8,0.9h17.8
				l2-2.2h-11.5c0.4-0.4,1.1-1.3,1.8-2L217.1,48.6z M194.5,45.4h4.5l-4.5,4.1l-2.2-2.1L194.5,45.4z M194.4,54.1L194.4,54.1
				L194.4,54.1l-2.5-2.2l-2.4,2.2h-4.5l4.7-4.3l-4.9-4.5h4.5l7.1,6.5l0,0l2.5,2.2H194.4z"/>
		</g>
	</g>
</g>
</svg>
