<?xml version="1.0" encoding="utf-8"?>
<!-- Generator: Adobe Illustrator 23.0.4, SVG Export Plug-In . SVG Version: 6.00 Build 0)  -->
<svg version="1.1" id="Layer_1" xmlns="http://www.w3.org/2000/svg" xmlns:xlink="http://www.w3.org/1999/xlink" x="0px" y="0px"
	 width="225px" height="50px" viewBox="0 0 225 50" style="enable-background:new 0 0 225 50;" xml:space="preserve">
<style type="text/css">
	.st0{fill:#DC0000;}
	.st1{fill:#111007;}
	.st2{fill:#323E48;}
	.st3{fill:#D8DFE1;}
	.st4{fill:#CE0E2D;}
	.st5{fill:none;stroke:#271C19;stroke-width:0.3064;stroke-miterlimit:10;}
	.st6{fill:#9B2326;}
	.st7{fill:#FFFFFF;}
</style>
<g>
	<g>
		<g id="XMLID_315_">
			<path id="XMLID_5_" class="st0" d="M73.4,0.3c-0.2,0-1.6,0-1.9,0c-0.2,0-0.3,0.1-0.3,0.4v7.4c0,0.3,0.2,0.3,0.4,0.3
				c0.1,0,1.6,0,1.7,0c0.3,0,0.3-0.2,0.4-0.5c0-0.5,0-6.7,0-7.3C73.7,0.4,73.6,0.3,73.4,0.3"/>
			<path id="XMLID_4_" class="st0" d="M83.3,4.7c-0.7-0.4-4.4-1.7-5.2-2c-0.2-0.1-0.3-0.2-0.2-0.3c0-0.2,0.2-0.2,0.3-0.2
				c0.1,0,0.8,0,5.5,0c0.3,0,0.4-0.1,0.4-0.4c0-0.1,0-1,0-1.1c0-0.3-0.1-0.5-0.4-0.5c-0.4,0-4.9,0-6.4,0c-1.6,0.1-2.1,0.9-2.2,1.7
				c-0.1,0.8,0.2,1.6,0.9,2c0.7,0.4,3.1,1.2,5.2,2.1c0.4,0.1,0.4,0.3,0.3,0.4c0,0.1-0.2,0.1-0.4,0.1c-0.5,0-5.2-0.1-5.5-0.1
				c-0.3,0-0.4,0.1-0.4,0.5c0,0.1,0,0.8,0,0.9c0,0.4,0.1,0.5,0.4,0.5c2,0,5.4,0,6.1,0c1.1,0,1.8-0.2,2.2-0.9
				C84.5,6.8,84.6,5.4,83.3,4.7"/>
			<path id="XMLID_3_" class="st0" d="M99.1,6.1c1-0.5,3.6-1.6,4.9-2.5c0.8-0.5,1.2-1.4,0.8-2.3c-0.3-0.7-0.9-1-2.1-1.1
				c-0.9,0-6.2,0-6.4,0c-0.4,0-0.4,0.2-0.4,0.5c0,0.1,0,0.9,0,1c0,0.3,0.2,0.3,0.4,0.3c0.1,0,5.2,0,5.6,0c0.2,0,0.2,0.1,0.2,0.2
				c0,0.1,0,0.2-0.2,0.2c-1.6,0.8-4.2,2-5,2.4c-1.1,0.6-1.4,1.3-1.3,2c0.1,0.8,0.5,1.5,2.1,1.5c1.4,0,5.5,0,6.5,0
				c0.4,0,0.4-0.2,0.4-0.4c0-0.1,0-0.7,0-0.8c0-0.5-0.1-0.6-0.4-0.6c-0.3,0-4.3,0.1-5.4,0.1c-0.2,0-0.2-0.1-0.2-0.2
				C98.8,6.3,98.9,6.2,99.1,6.1"/>
			<path id="XMLID_2_" class="st0" d="M94.1,0.3c-0.2,0-1.7,0-1.8,0c-0.2,0-0.3,0.1-0.3,0.4c0,0.2,0,3.7,0,4.4
				c0,0.9-0.1,1.4-1.1,1.5c-0.6,0-1,0-1.5,0c-0.9-0.1-1.1-0.4-1.1-1.6c0-0.7,0-3.8,0-4.1c0-0.3,0-0.5-0.4-0.5c-0.2,0-1.6,0-1.7,0
				c-0.2,0-0.4,0.1-0.4,0.4c0,0.2,0,2.8,0,4.9c0,2.8,1.8,2.7,2.6,2.8c0.5,0,2.7,0.1,3.7,0c1.8-0.1,2.3-1.1,2.3-2.5
				c0-0.9,0-4.3,0-5.1C94.4,0.4,94.4,0.3,94.1,0.3"/>
			<path id="XMLID_1_" class="st0" d="M115.2,0.7c0-0.3-0.1-0.4-0.3-0.4c-0.3,0-1.6,0-1.8,0c-0.3,0-0.4,0.1-0.4,0.4
				c0,0.2,0,3.9,0,4.6c0,1-0.3,1.1-0.7,1.2c-0.4,0.1-1.8,0.1-2,0.1c-0.5-0.1-0.9-0.3-0.9-1.3c0-0.9,0-4.3,0-4.6
				c0-0.3-0.1-0.4-0.3-0.4c-0.2,0-1.5,0-1.8,0c-0.4,0-0.4,0.2-0.4,0.5c0,0.6,0,4.6,0,5.3c0.1,1.6,0.9,2.2,2.1,2.3
				c1.2,0.1,3.9,0.1,4.8-0.1c1.4-0.3,1.6-1.5,1.7-2.9C115.3,4.6,115.2,1,115.2,0.7"/>
		</g>
		<g id="XMLID_279_">
			<path id="XMLID_290_" class="st1" d="M31,13.4h-7.4c-0.3,0-0.8,0.2-1.1,0.5c-3.3,3-6.7,6-10,9c-0.2,0.2-0.6,0.1-0.7-0.2
				c-0.5-2.9-0.9-5.8-1.4-8.8c0-0.3-0.3-0.5-0.6-0.5H1.1c-0.4,0-0.6,0.3-0.6,0.7C0.9,16.3,2.7,27.5,3,29.7c0,0.3,0.3,0.5,0.6,0.5
				h8.9c0.3,0,0.8-0.2,1.1-0.5c1.6-1.4,9.5-8.5,14-12.5c1.3-1.2,2.5-2.3,3.5-3.2C31.5,13.8,31.3,13.4,31,13.4z"/>
			<path id="XMLID_289_" class="st1" d="M36.6,19.7H29c-0.3,0-0.8,0.2-1.1,0.5c-0.2,0.2-2.2,2-3.4,3.1c-0.2,0.2-0.1,0.6,0.2,0.6h9.9
				c0.3,0,0.7-0.2,0.8-0.5c0.2-0.5,1.2-2.4,1.5-3C37.2,20,37,19.7,36.6,19.7z"/>
			<path id="XMLID_286_" class="st1" d="M97.2,13.3H72.9c-0.3,0-0.6,0.2-0.8,0.5c-2.7,5.2-5.3,10.5-8,15.7c-0.2,0.4,0,0.7,0.3,0.7
				h7.4c0.3,0,0.7-0.2,0.8-0.5c0.8-1.6,1.6-3.2,2.4-4.8c0.1-0.3,0.5-0.5,0.8-0.5h5c0.3,0,0.6,0.2,0.7,0.5c0.4,1.6,0.8,3.2,1.2,4.8
				c0.1,0.3,0.4,0.5,0.7,0.5h6.5c0.4,0,0.6-0.3,0.5-0.7c-0.4-1.7-0.7-2.8-1.1-4.5c-0.1-0.4,0.1-0.7,0.5-0.7h1.9
				c0.3,0,0.7-0.2,0.8-0.5c1.7-3.3,3.3-6.6,5-9.8C97.7,13.6,97.6,13.3,97.2,13.3z M86.7,17.5c-0.5,1-1,1.9-1.5,2.9
				c-0.1,0.3-0.5,0.5-0.8,0.5h-6.7c-0.4,0-0.5-0.3-0.3-0.7c0.5-1,1-1.9,1.5-2.9c0.1-0.3,0.5-0.5,0.8-0.5h6.7
				C86.8,16.8,86.9,17.1,86.7,17.5z"/>
			<path id="XMLID_285_" class="st1" d="M43.5,13.9c-2.7,5.2-5.3,10.5-8,15.7c-0.2,0.4,0,0.7,0.3,0.7h23.5c0.3,0,0.6-0.2,0.8-0.5
				c0.4-0.8,0.8-1.6,1.2-2.4c0.1-0.3,0-0.5-0.3-0.5H46.3c-0.4,0-0.5-0.3-0.3-0.7c1.5-2.9,3-5.8,4.4-8.8c0.1-0.3,0.5-0.5,0.8-0.5
				h14.9c0.3,0,0.7-0.2,0.8-0.5c0.4-0.8,0.8-1.5,1.2-2.3c0.2-0.4,0-0.7-0.3-0.7H44.3C44,13.4,43.7,13.6,43.5,13.9"/>
			<path id="XMLID_282_" class="st1" d="M126.6,13.4l-24.3,0c-0.3,0-0.6,0.2-0.8,0.5c-2.7,5.2-5.3,10.5-8,15.7
				c-0.2,0.4,0,0.7,0.3,0.7h24.3c0.3,0,0.7-0.2,0.8-0.5c1.1-2.3,6.8-13.5,8-15.7C127.2,13.7,127,13.4,126.6,13.4z M116.1,17.5
				c-1.5,2.9-3,5.8-4.4,8.8c-0.1,0.3-0.5,0.5-0.8,0.5h-6.8c-0.4,0-0.5-0.3-0.3-0.7c1.5-2.9,3-5.8,4.4-8.8c0.1-0.3,0.5-0.5,0.8-0.5
				h6.8C116.1,16.9,116.3,17.2,116.1,17.5z"/>
			<path id="XMLID_281_" class="st1" d="M156.1,13.4h-24.3c-0.3,0-0.7,0.2-0.8,0.5c-0.3,0.6-1.9,3.7-2.8,5.5c-0.1,0.3,0,0.6,0.3,0.7
				l13,3.6c0.2,0.1,0.3,0.3,0.2,0.4c-0.5,0.9-1.1,2.2-1.1,2.3c-0.1,0.3-0.5,0.5-0.8,0.5H125c-0.3,0-0.6,0.2-0.8,0.5l-1.1,2.2
				c-0.2,0.4,0,0.7,0.3,0.7h24.3c0.3,0,0.6-0.2,0.8-0.5c0.5-1,2.5-5,3.3-6.5c0.1-0.3,0-0.6-0.3-0.7l-13.2-3.3
				c-0.2,0-0.3-0.3-0.2-0.4c0.3-0.6,0.7-1.4,0.7-1.4c0.1-0.3,0.5-0.5,0.8-0.5h14.9c0.3,0,0.6-0.2,0.8-0.5l1.2-2.3
				C156.6,13.7,156.4,13.4,156.1,13.4z"/>
			<path id="XMLID_280_" class="st1" d="M185.5,13.4h-24.3c-0.3,0-0.7,0.2-0.8,0.5c-0.3,0.6-1.9,3.7-2.8,5.5c-0.1,0.3,0,0.6,0.3,0.7
				l13,3.6c0.2,0.1,0.3,0.3,0.2,0.4c-0.5,0.9-1.1,2.2-1.1,2.3c-0.1,0.3-0.5,0.5-0.8,0.5h-14.8c-0.3,0-0.6,0.2-0.8,0.5l-1.1,2.2
				c-0.2,0.4,0,0.7,0.3,0.7h24.3c0.3,0,0.6-0.2,0.8-0.5c0.5-1,2.5-5,3.3-6.5c0.1-0.3,0-0.6-0.3-0.7l-13.2-3.3
				c-0.2,0-0.3-0.3-0.2-0.4c0.3-0.6,0.7-1.4,0.7-1.4c0.1-0.3,0.5-0.5,0.8-0.5h14.9c0.3,0,0.6-0.2,0.8-0.5l1.2-2.3
				C186,13.7,185.8,13.4,185.5,13.4z"/>
		</g>
		<g id="XMLID_169_">
			<path id="XMLID_278_" class="st2" d="M224.4,37.8c0.1-0.1,0.1-0.2,0-0.2c0-0.1-0.1-0.1-0.2-0.1h-9.1c-0.3,0-0.5,0.1-0.7,0.3
				l-2.6,2.9c-0.2,0.2-0.4,0.3-0.7,0.3H208c-0.1,0-0.2-0.1-0.2-0.1c0-0.1,0-0.2,0-0.2l5.3-5.9c0.1-0.1,0.1-0.2,0-0.2
				c0-0.1-0.1-0.1-0.2-0.1h-9c-0.3,0-0.5,0.1-0.7,0.3l-0.7,0.8c-0.2,0.2-0.4,0.3-0.7,0.3h-8.1c-0.2,0-0.5,0.1-0.6,0.2l-3.4,3.1
				c0,0-0.1,0.1-0.2,0.1c-0.1,0-0.1,0-0.2-0.1l-3.4-3.1c-0.2-0.2-0.4-0.2-0.6-0.2h-9.5c-0.1,0-0.2,0.1-0.2,0.1c0,0.1,0,0.2,0,0.3
				l1,1c0.1,0.1,0.1,0.2,0,0.3c0,0.1-0.1,0.1-0.2,0.1h-1.4c-0.3,0-0.5,0.1-0.7,0.3l-2.6,2.9c-0.2,0.2-0.4,0.3-0.7,0.3h-2.9
				c-0.1,0-0.2-0.1-0.2-0.1c0-0.1,0-0.2,0-0.2l5.3-5.9c0.1-0.1,0.1-0.2,0-0.2c0-0.1-0.1-0.1-0.2-0.1h-9.8c-0.3,0-0.5,0.1-0.7,0.3
				l-10.3,11c-0.1,0.1-0.1,0.2,0,0.2c0,0.1,0.1,0.1,0.2,0.1h13.9c0.1,0,0.2,0.1,0.2,0.1c0,0.1,0,0.2,0,0.2l-2.8,3.1
				c-0.1,0.1-0.1,0.2,0,0.2c0,0.1,0.1,0.1,0.2,0.1h9.6c0.3,0,0.5-0.1,0.7-0.3l0.8-0.9c0.2-0.2,0.4-0.3,0.7-0.3l9.7,0
				c0.2,0,0.5-0.1,0.6-0.2l3.2-3c0,0,0.1-0.1,0.2-0.1c0.1,0,0.1,0,0.2,0.1l3.2,3c0.2,0.2,0.4,0.2,0.6,0.2h8.7c0.1,0,0.2-0.1,0.2-0.1
				c0-0.1,0-0.2-0.1-0.3l-1.7-1.6c-0.1-0.1-0.1-0.2-0.1-0.3c0-0.1,0.1-0.1,0.2-0.1c0,0,5.7,0,5.7,0c0.1,0,0.2,0.1,0.2,0.1
				c0,0.1,0,0.2,0,0.2l-2.8,3.1c-0.1,0.1-0.1,0.2,0,0.2c0,0.1,0.1,0.1,0.2,0.1h9.1c0.3,0,0.5-0.1,0.7-0.3l3-3.3
				c0.2-0.2,0.4-0.3,0.7-0.3h2.3c0.3,0,0.5-0.1,0.7-0.3l3.9-4.3c0.1-0.1,0.1-0.2,0-0.2c0-0.1-0.1-0.1-0.2-0.1h-2
				c-0.1,0-0.2-0.1-0.2-0.1c0-0.1,0-0.2,0-0.2L224.4,37.8z"/>
			<path id="XMLID_274_" class="st3" d="M171.5,44.6l-3.2,3.6h5.9l3.2-3.6h3.2l1.7-1.6h-3.5l3.6-4.1l3.3,3.1l-5.8,5.4h6.9h0l2.5-2.4
				c0,0,0.1-0.1,0.2-0.1c0.1,0,0.1,0,0.2,0.1l2.6,2.4h6.9l-1-0.9l-2-1.9h13.3l-3.2,3.6h5.9l3.2-3.6h2.9l1.5-1.6h-2.9l4.3-4.8h-5.9
				l-4.3,4.8h-8.4l6.7-7.4H203l-7.5,8.4l-2.1-2l6-5.6h-6.9l-2.8,2.6c0,0-0.1,0.1-0.2,0.1c-0.1,0-0.1,0-0.2-0.1l-2.8-2.6h0h-6.8
				l2,1.8h-4.5l-4.3,4.8h-8.4l6.7-7.4h-6.1l-8.1,9H171.5z M192.5,36.9h5.2l-5.1,4.7l-2.6-2.4L192.5,36.9z M181.3,36.9h5.2l11,10
				h-5.2l-2.8-2.5l-2.8,2.5h-5.2l5.4-4.9L181.3,36.9z"/>
			<g id="XMLID_271_">
				<polygon id="XMLID_273_" class="st4" points="197.1,37.1 192.6,37.1 190.3,39.2 192.6,41.2 				"/>
				<polygon id="XMLID_272_" class="st4" points="181.9,37.1 187.3,42 182.1,46.7 186.7,46.7 189.5,44.1 192.4,46.7 196.9,46.7 
					186.5,37.1 				"/>
			</g>
			<path id="XMLID_270_" class="st5" d="M198.1,41.3"/>
			<path id="XMLID_269_" class="st5" d="M198.1,41.3"/>
			<g id="XMLID_170_">
				<path id="XMLID_268_" class="st6" d="M192,37.7L192,37.7c0.8,0.6,1.6,1.3,2,2.3l0.1-0.1C193.6,39,192.9,38.2,192,37.7z"/>
				<path id="XMLID_267_" class="st6" d="M188.4,45L188.4,45c-0.9-0.4-1.7-1.3-2-2.3l-0.1,0.1C186.7,43.8,187.4,44.7,188.4,45z"/>
				<path id="XMLID_266_" class="st6" d="M190.9,38.7L190.9,38.7c0.9,0.5,1.7,1.3,2,2.3l0.1-0.1C192.6,39.9,191.9,39.1,190.9,38.7z"
					/>
				<path id="XMLID_265_" class="st6" d="M186.4,41.2L186.4,41.2c0.3-1,1.1-1.8,2.1-2.2l-0.1-0.1C187.4,39.3,186.7,40.1,186.4,41.2z
					"/>
				<path id="XMLID_264_" class="st6" d="M192.9,43L192.9,43c-0.4,1-1.1,1.8-2.1,2.2l0.1,0.1C191.9,44.9,192.6,44.1,192.9,43z"/>
				<path id="XMLID_263_" class="st6" d="M188.2,45.3L188.2,45.3c-0.9-0.5-1.7-1.3-2-2.3l-0.1,0.1C186.4,44.1,187.2,44.9,188.2,45.3
					z"/>
				<path id="XMLID_262_" class="st6" d="M190.6,38.9L190.6,38.9c0.9,0.4,1.7,1.2,2,2.3l0.1-0.1C192.4,40.1,191.6,39.3,190.6,38.9z"
					/>
				<path id="XMLID_261_" class="st6" d="M186.1,40.9L186.1,40.9c0.4-1,1.1-1.8,2.1-2.2l-0.1-0.1C187.2,39.1,186.4,39.9,186.1,40.9z
					"/>
				<path id="XMLID_260_" class="st6" d="M192.7,42.8L192.7,42.8c-0.3,1-1.1,1.8-2.1,2.2l0.1,0.1C191.6,44.7,192.4,43.8,192.7,42.8z
					"/>
				<path id="XMLID_259_" class="st6" d="M190.4,39.2l0.1,0.1c0.7,0.3,1.2,0.8,1.5,1.4l0.1,0.1C191.9,40.1,191.2,39.5,190.4,39.2z"
					/>
				<path id="XMLID_258_" class="st6" d="M187.9,45.5L187.9,45.5c-0.9-0.5-1.6-1.3-2-2.3l-0.1,0.1C186.2,44.3,186.9,45.1,187.9,45.5
					z"/>
				<path id="XMLID_257_" class="st6" d="M185.3,40.2L185.3,40.2c0.5-0.9,1.2-1.7,2.1-2.2l-0.1-0.1
					C186.4,38.4,185.7,39.2,185.3,40.2z"/>
				<path id="XMLID_256_" class="st6" d="M191.7,37.9L191.7,37.9c0.8,0.5,1.6,1.3,2,2.3l0.1-0.1C193.4,39.2,192.6,38.4,191.7,37.9z"
					/>
				<path id="XMLID_255_" class="st6" d="M193.8,43.8L193.8,43.8c-0.5,0.9-1.2,1.7-2.1,2.2l0.1,0.1
					C192.6,45.5,193.4,44.8,193.8,43.8z"/>
				<path id="XMLID_254_" class="st6" d="M187.3,46L187.3,46c-0.9-0.5-1.6-1.3-2-2.3l-0.1,0.1C185.7,44.8,186.4,45.5,187.3,46z"/>
				<path id="XMLID_253_" class="st6" d="M191.5,38.2L191.5,38.2c0.9,0.5,1.6,1.3,2,2.3l0.1-0.1C193.1,39.4,192.4,38.6,191.5,38.2z"
					/>
				<path id="XMLID_252_" class="st6" d="M193.5,43.5L193.5,43.5c-0.4,0.9-1.2,1.7-2.1,2.2l0.1,0.1
					C192.4,45.3,193.1,44.5,193.5,43.5z"/>
				<path id="XMLID_245_" class="st6" d="M193.2,43.3L193.2,43.3c-0.4,0.9-1.2,1.8-2.1,2.2l0.1,0.1
					C192.1,45.1,192.9,44.3,193.2,43.3z"/>
				<path id="XMLID_244_" class="st6" d="M187.6,45.8L187.6,45.8c-0.9-0.5-1.6-1.3-2-2.3l-0.1,0.1C185.9,44.5,186.7,45.3,187.6,45.8
					z"/>
				<path id="XMLID_243_" class="st6" d="M185.8,40.7L185.8,40.7c0.4-0.9,1.2-1.8,2.1-2.2l-0.1-0.1
					C186.9,38.9,186.2,39.7,185.8,40.7z"/>
				<path id="XMLID_242_" class="st6" d="M192.4,42.5L192.4,42.5c-0.3,1-1.1,1.9-2.1,2.2l0.1,0.1C191.4,44.5,192.2,43.6,192.4,42.5z
					"/>
				<path id="XMLID_241_" class="st6" d="M191.2,38.4L191.2,38.4c0.9,0.5,1.6,1.3,2,2.3l0.1-0.1C192.9,39.7,192.1,38.9,191.2,38.4z"
					/>
				<path id="XMLID_240_" class="st6" d="M191.7,42c0,1.2-0.9,2.1-2.1,2.1l0.1,0.1C190.8,44.1,191.7,43.2,191.7,42
					C191.7,42,191.7,42,191.7,42l0-0.1C191.7,41.9,191.7,41.9,191.7,42z"/>
				<path id="XMLID_239_" class="st6" d="M191.3,42c0,1-0.8,1.8-1.8,1.8c-1,0-1.8-0.8-1.8-1.8c0-1,0.8-1.8,1.8-1.8
					c0.1,0,0.2,0,0.3,0l-0.1-0.1c-0.1,0-0.1,0-0.2,0c-1,0-1.9,0.8-1.9,1.9c0,1,0.8,1.9,1.9,1.9C190.6,43.8,191.4,43,191.3,42
					c0.1-0.1,0.1-0.3,0-0.4l-0.1-0.1C191.3,41.6,191.3,41.8,191.3,42z"/>
				<path id="XMLID_238_" class="st6" d="M184,44.9L184,44.9c0.3,0.7,0.7,1.2,1.2,1.7h0.1C184.8,46.2,184.4,45.6,184,44.9z"/>
				<path id="XMLID_237_" class="st6" d="M195,44.9c-0.4,0.6-0.8,1.2-1.4,1.7h0.1C194.3,46.2,194.8,45.6,195,44.9L195,44.9z"/>
				<path id="XMLID_236_" class="st6" d="M196.8,46.7L196.8,46.7C196.9,46.7,196.9,46.7,196.8,46.7L196.8,46.7
					C196.8,46.6,196.8,46.6,196.8,46.7z"/>
				<polygon id="XMLID_235_" class="st6" points="181.9,37.1 182,37.1 182,37.1 				"/>
				<path id="XMLID_234_" class="st6" d="M195.3,38.8L195.3,38.8c-0.3-0.7-0.7-1.2-1.2-1.7H194C194.5,37.6,194.9,38.2,195.3,38.8z"
					/>
				<path id="XMLID_231_" class="st6" d="M189.5,41.5c-0.3,0-0.5,0.2-0.5,0.5c0,0.3,0.2,0.5,0.5,0.5c0.3,0,0.5-0.2,0.5-0.5
					C190,41.7,189.8,41.5,189.5,41.5z M189.5,42.4c-0.2,0-0.4-0.2-0.4-0.4c0-0.2,0.2-0.4,0.4-0.4c0.2,0,0.4,0.2,0.4,0.4
					C189.9,42.2,189.8,42.4,189.5,42.4z"/>
				<path id="XMLID_228_" class="st6" d="M189.5,41.1c-0.5,0-0.8,0.4-0.8,0.8s0.4,0.8,0.8,0.8s0.8-0.4,0.8-0.8S190,41.1,189.5,41.1z
					 M189.5,42.7c-0.4,0-0.8-0.3-0.8-0.8c0-0.4,0.3-0.8,0.8-0.8c0.4,0,0.8,0.3,0.8,0.8C190.3,42.4,189.9,42.7,189.5,42.7z"/>
				<path id="XMLID_227_" class="st6" d="M189,44.5L189,44.5c-1-0.3-1.9-1.2-2-2.3l-0.1,0.1C187.1,43.4,187.9,44.3,189,44.5z"/>
				<path id="XMLID_226_" class="st6" d="M192.1,42.2L192.1,42.2c-0.2,1.1-1,2-2.1,2.2l0.1,0.1C191.1,44.3,192,43.4,192.1,42.2z"/>
				<path id="XMLID_225_" class="st6" d="M188.7,44.8L188.7,44.8c-1-0.3-1.8-1.2-2-2.3l-0.1,0.1C186.9,43.6,187.7,44.5,188.7,44.8z"
					/>
				<path id="XMLID_224_" class="st6" d="M186.7,41.4L186.7,41.4c0.3-1,1.1-1.9,2.1-2.2l-0.1-0.1C187.7,39.5,186.9,40.4,186.7,41.4z
					"/>
				<path id="XMLID_221_" class="st6" d="M189.5,40.8c-0.7,0-1.2,0.5-1.2,1.2c0,0.7,0.5,1.2,1.2,1.2c0.7,0,1.2-0.5,1.2-1.2
					C190.7,41.3,190.2,40.8,189.5,40.8z M189.5,43.1c-0.6,0-1.1-0.5-1.1-1.1c0-0.6,0.5-1.1,1.1-1.1c0.6,0,1.1,0.5,1.1,1.1
					C190.6,42.6,190.1,43.1,189.5,43.1z"/>
				<path id="XMLID_220_" class="st6" d="M187,41.7L187,41.7c0.2-1.1,1-2,2.1-2.2l-0.1-0.1C187.9,39.7,187.1,40.6,187,41.7z"/>
				<path id="XMLID_217_" class="st6" d="M189.5,40.5c-0.8,0-1.5,0.7-1.5,1.5s0.7,1.5,1.5,1.5c0.8,0,1.5-0.7,1.5-1.5
					c0-0.4-0.2-0.8-0.4-1.1l-0.1-0.1C190.2,40.6,189.9,40.5,189.5,40.5z M189.5,43.4c-0.8,0-1.4-0.6-1.4-1.4c0-0.8,0.6-1.4,1.4-1.4
					c0.8,0,1.4,0.6,1.4,1.4C191,42.8,190.3,43.4,189.5,43.4z"/>
				<path id="XMLID_216_" class="st6" d="M187.3,42c0,1.2,0.9,2.1,2.1,2.2l0.1-0.1C188.3,44.1,187.4,43.1,187.3,42
					c0.1-1.1,1-2.1,2.1-2.1l-0.1-0.1C188.2,39.9,187.3,40.8,187.3,42z"/>
				<path id="XMLID_215_" class="st6" d="M185.6,40.4L185.6,40.4c0.4-0.9,1.2-1.7,2.1-2.2l-0.1-0.1
					C186.7,38.6,185.9,39.4,185.6,40.4z"/>
				<path id="XMLID_214_" class="st6" d="M183.5,46.7c-0.2-0.2-0.4-0.5-0.5-0.8l-0.1,0.1c0.1,0.2,0.3,0.5,0.5,0.7H183.5z"/>
				<path id="XMLID_213_" class="st6" d="M183,38.1c0.2-0.3,0.4-0.7,0.7-1h-0.1C183.3,37.4,183.1,37.7,183,38.1L183,38.1z"/>
				<path id="XMLID_212_" class="st6" d="M196.1,45.9c-0.2,0.3-0.3,0.5-0.5,0.8h0.1C195.8,46.4,196,46.2,196.1,45.9L196.1,45.9z"/>
				<path id="XMLID_211_" class="st6" d="M182.7,37.8c0.2-0.2,0.3-0.5,0.5-0.7h-0.1C183,37.3,182.8,37.6,182.7,37.8L182.7,37.8z"/>
				<path id="XMLID_210_" class="st6" d="M195.8,37.1c0.2,0.2,0.3,0.5,0.5,0.7l0.1-0.1c-0.1-0.2-0.3-0.4-0.4-0.7H195.8z"/>
				<path id="XMLID_209_" class="st6" d="M195.4,37.1c0.2,0.3,0.5,0.6,0.7,0.9l0.1-0.1c-0.2-0.3-0.4-0.6-0.6-0.9H195.4z"/>
				<path id="XMLID_208_" class="st6" d="M195.6,45.4c-0.3,0.4-0.6,0.9-0.9,1.2h0.1C195.1,46.3,195.4,45.9,195.6,45.4L195.6,45.4z"
					/>
				<path id="XMLID_207_" class="st6" d="M195.8,45.7c-0.2,0.4-0.4,0.7-0.7,1h0.1C195.5,46.4,195.7,46,195.8,45.7L195.8,45.7z"/>
				<path id="XMLID_206_" class="st6" d="M194.9,37.1c0.3,0.4,0.6,0.8,0.9,1.2l0.1-0.1c-0.2-0.4-0.5-0.8-0.8-1.1H194.9z"/>
				<path id="XMLID_205_" class="st6" d="M184,46.7c-0.3-0.3-0.5-0.6-0.7-1l-0.1,0.1c0.2,0.3,0.4,0.6,0.7,0.9H184z"/>
				<path id="XMLID_204_" class="st6" d="M183.2,38.3c0.2-0.4,0.5-0.8,0.9-1.2H184C183.7,37.5,183.4,37.9,183.2,38.3L183.2,38.3z"/>
				<path id="XMLID_203_" class="st6" d="M182.5,37.6c0.1-0.2,0.2-0.3,0.3-0.5h-0.1C182.6,37.3,182.5,37.4,182.5,37.6L182.5,37.6z"
					/>
				<path id="XMLID_202_" class="st6" d="M183.1,46.7c-0.1-0.2-0.2-0.3-0.4-0.5l-0.1,0.1c0.1,0.2,0.2,0.3,0.3,0.5H183.1z"/>
				<path id="XMLID_201_" class="st6" d="M182.2,37.4c0.1-0.1,0.1-0.2,0.2-0.2h-0.1C182.2,37.2,182.2,37.2,182.2,37.4L182.2,37.4z"
					/>
				<path id="XMLID_200_" class="st6" d="M182.2,46.6L182.2,46.6C182.1,46.7,182.1,46.7,182.2,46.6L182.2,46.6
					C182.2,46.6,182.2,46.6,182.2,46.6z"/>
				<polygon id="XMLID_199_" class="st6" points="197.1,37.1 197.1,37.1 197.1,37.1 				"/>
				<path id="XMLID_198_" class="st6" d="M196.6,46.4c-0.1,0.1-0.1,0.2-0.2,0.3h0.1C196.5,46.6,196.6,46.5,196.6,46.4L196.6,46.4z"
					/>
				<path id="XMLID_197_" class="st6" d="M196.7,37.1c0.1,0.1,0.1,0.2,0.2,0.2l0.1-0.1C196.9,37.2,196.8,37.2,196.7,37.1L196.7,37.1
					z"/>
				<path id="XMLID_196_" class="st6" d="M182.7,46.7c-0.1-0.1-0.1-0.2-0.2-0.3l-0.1,0.1C182.5,46.5,182.5,46.6,182.7,46.7
					L182.7,46.7z"/>
				<path id="XMLID_195_" class="st6" d="M196.3,46.1c-0.1,0.2-0.2,0.4-0.4,0.5h0.1C196.2,46.5,196.3,46.3,196.3,46.1L196.3,46.1z"
					/>
				<path id="XMLID_194_" class="st6" d="M196.3,37.1c0.1,0.2,0.2,0.3,0.3,0.5l0.1-0.1c-0.1-0.1-0.2-0.3-0.3-0.4H196.3z"/>
				<path id="XMLID_193_" class="st6" d="M184.4,46.7c-0.3-0.4-0.6-0.8-0.9-1.2l-0.1,0.1c0.2,0.4,0.5,0.8,0.9,1.2H184.4z"/>
				<path id="XMLID_192_" class="st6" d="M185.8,46.7h0.1c-0.7-0.5-1.2-1.2-1.6-2l-0.1,0.1C184.6,45.5,185.1,46.1,185.8,46.7z"/>
				<path id="XMLID_191_" class="st6" d="M192.5,37.2L192.5,37.2c0.8,0.6,1.5,1.4,2,2.3l0.1-0.1C194.1,38.5,193.4,37.7,192.5,37.2z"
					/>
				<path id="XMLID_190_" class="st6" d="M194.3,44.3L194.3,44.3c-0.5,0.9-1.2,1.7-2.1,2.2l0.1,0.1C193.1,46,193.9,45.2,194.3,44.3z
					"/>
				<path id="XMLID_189_" class="st6" d="M186.8,46.5L186.8,46.5c-0.8-0.6-1.5-1.4-2-2.3l-0.1,0.1C185.2,45.2,185.9,46,186.8,46.5z"
					/>
				<path id="XMLID_188_" class="st6" d="M183.5,38.5c0.3-0.5,0.7-1,1.1-1.4h-0.1C184.1,37.5,183.7,38,183.5,38.5L183.5,38.5z"/>
				<path id="XMLID_187_" class="st6" d="M184.5,39.4L184.5,39.4c0.5-0.9,1.2-1.6,2.1-2.2l-0.1-0.1C185.7,37.7,185,38.5,184.5,39.4z
					"/>
				<path id="XMLID_186_" class="st6" d="M186.4,46.7h0.1c-0.8-0.5-1.5-1.3-2-2.2l-0.1,0.1C184.9,45.4,185.6,46.1,186.4,46.7z"/>
				<path id="XMLID_185_" class="st6" d="M184.7,39.7L184.7,39.7c0.5-0.9,1.2-1.7,2.1-2.2l-0.1-0.1C185.9,38,185.2,38.8,184.7,39.7z
					"/>
				<path id="XMLID_184_" class="st6" d="M187.1,46.3L187.1,46.3c-0.8-0.6-1.6-1.4-2-2.3L185,44C185.4,45,186.2,45.8,187.1,46.3z"/>
				<path id="XMLID_183_" class="st6" d="M194,44L194,44c-0.5,0.9-1.2,1.7-2.1,2.2l0.1,0.1C192.9,45.8,193.6,45,194,44z"/>
				<path id="XMLID_182_" class="st6" d="M192.3,37.4L192.3,37.4c0.8,0.6,1.5,1.4,2,2.3l0.1-0.1C193.8,38.7,193.1,38,192.3,37.4z"/>
				<path id="XMLID_181_" class="st6" d="M194.6,44.5L194.6,44.5c-0.5,0.8-1.2,1.6-2,2.1h0.1C193.5,46.1,194.1,45.4,194.6,44.5z"/>
				<path id="XMLID_180_" class="st6" d="M183.8,38.8c0.3-0.6,0.8-1.2,1.3-1.7H185C184.5,37.6,184,38.1,183.8,38.8L183.8,38.8z"/>
				<path id="XMLID_179_" class="st6" d="M184,39L184,39c0.5-0.7,1-1.3,1.6-1.8h-0.1C184.9,37.6,184.3,38.3,184,39z"/>
				<path id="XMLID_178_" class="st6" d="M184.9,46.7c-0.4-0.4-0.8-0.9-1.1-1.5l-0.1,0.1c0.3,0.5,0.7,1,1.1,1.4H184.9z"/>
				<path id="XMLID_177_" class="st6" d="M193,37.1h-0.1c0.8,0.5,1.4,1.3,1.9,2.1l0.1-0.1C194.4,38.4,193.8,37.7,193,37.1z"/>
				<path id="XMLID_176_" class="st6" d="M194.5,37.1c0.4,0.4,0.8,0.9,1.1,1.4l0.1-0.1c-0.3-0.5-0.6-1-1-1.4H194.5z"/>
				<path id="XMLID_175_" class="st6" d="M195.3,45.2c-0.3,0.5-0.7,1-1.1,1.5h0.1C194.7,46.2,195.1,45.8,195.3,45.2L195.3,45.2z"/>
				<path id="XMLID_174_" class="st6" d="M184.2,39.2L184.2,39.2c0.5-0.8,1.2-1.5,1.9-2.1H186C185.3,37.7,184.7,38.4,184.2,39.2z"/>
				<path id="XMLID_173_" class="st6" d="M185,39.9L185,39.9c0.5-0.9,1.2-1.7,2.1-2.2l-0.1-0.1C186.2,38.2,185.4,39,185,39.9z"/>
				<path id="XMLID_172_" class="st6" d="M194.8,44.8L194.8,44.8c-0.5,0.7-1,1.4-1.7,1.9h0.1C193.9,46.1,194.4,45.5,194.8,44.8z"/>
				<path id="XMLID_171_" class="st6" d="M193.6,37.1h-0.1c0.6,0.5,1.2,1.2,1.6,1.9l0.1-0.1C194.7,38.3,194.2,37.6,193.6,37.1z"/>
			</g>
		</g>
	</g>
	<g>
		<g>
			<path class="st0" d="M45.7,0.8H7c-0.2,0-0.5,0.1-0.6,0.3L0.6,7.9c-0.2,0.2,0,0.6,0.2,0.6h38.7c0.2,0,0.5-0.1,0.6-0.3L46,1.4
				C46.1,1.2,46,0.8,45.7,0.8z"/>
		</g>
		<g>
			<path class="st7" d="M10,6.4l-1.4,0l0.3-1l-1.8,0l-0.3,1l-1.4,0l0.8-2.9l1-0.5l2.9,0l0.7,0.5L10,6.4z M9.2,4.6l0.2-0.8l-1.8,0
				L7.4,4.6L9.2,4.6z"/>
			<path class="st7" d="M14.6,6.4l-3.8,0l1-3.4l1.3,0l-0.8,2.6l2.4,0L14.6,6.4z"/>
			<path class="st7" d="M18.9,6.4l-3.8,0l1-3.4l1.3,0l-0.8,2.6l2.4,0L18.9,6.4z"/>
			<path class="st7" d="M21.9,5.3l-2.1,0l0.2-0.5l2.1,0L21.9,5.3z"/>
			<path class="st7" d="M27,6.4l-1.4,0l-1.4-1.8l-0.5,1.8l-1.3,0l1-3.4l1.1,0l1.6,1.9L26.6,3l1.3,0L27,6.4z"/>
			<path class="st7" d="M32.4,6.4l-4.6,0l1-3.4l4.5,0l-0.2,0.8l-2.9,0L30,4.3l2.5,0l-1,0.7l-1.7,0l-0.2,0.6l3,0L32.4,6.4z"/>
			<path class="st7" d="M39.3,6.4l-6.2,0l1-3.4l1.4,0l-0.8,2.6l1.1,0L36.5,3l1.4,0l-0.8,2.6l1.1,0L38.9,3l1.4,0L39.3,6.4z"/>
		</g>
	</g>
</g>
</svg>
