<svg xmlns="http://www.w3.org/2000/svg" width="52" height="52" viewBox="0 0 52 52">
  <defs>
    <style>
      .cls-1 {
        fill: #e50011;
        fill-rule: evenodd;
      }
    </style>
  </defs>
  <path id="icon" class="cls-1" d="M18.18,3.647a13.018,13.018,0,0,0-6.232,6.326,15.475,15.475,0,0,0,1.393,16.044L25.292,43.241,37.242,26.016A15,15,0,0,0,40.232,17C40.232,6.412,29.322-1.617,18.18,3.647Zm12.471,18.5A7.616,7.616,0,0,1,21.1,23.284a5.492,5.492,0,0,1-2.049-2.056c-4.079-7.214,3.271-14.6,10.449-10.5a5.468,5.468,0,0,1,2.031,2.035A7.731,7.731,0,0,1,30.651,22.151ZM48.592,51H2.4L9.452,35.182h5.854v2.559H11.1L6.335,48.44H44.659l-4.769-10.7H35.544V35.182h6Z"/>
</svg>
