<?xml version="1.0" encoding="UTF-8"?>
<svg width="186px" height="47px" viewBox="0 0 186 47" version="1.1" xmlns="http://www.w3.org/2000/svg" xmlns:xlink="http://www.w3.org/1999/xlink">
    <!-- Generator: Sketch 54.1 (76490) - https://sketchapp.com -->
    <title>Group 35</title>
    <desc>Created with Sketch.</desc>
    <g id="Page-1" stroke="none" stroke-width="1" fill="none" fill-rule="evenodd">
        <g id="Group-35">
            <path d="M52.1638775,4.10584758 L7.49410661,4.10584758 C7.22179824,4.10448194 6.95413304,4.22575066 6.77960441,4.42977709 L0.0879744493,12.2502441 C-0.107038767,12.4780326 0.0409964758,12.9576449 0.345260793,12.9592837 L45.0150317,12.9592837 C45.2873401,12.9609225 45.5550053,12.8396537 45.7295339,12.6353542 L52.4211639,4.81516035 C52.6161771,4.58709868 52.4681419,4.10748634 52.1638775,4.10584758" id="Fill-1" fill="#EC1D24"></path>
            <path d="M10.0210026,8.41454714 L10.282659,7.51541057 L8.22819207,7.51595683 L7.96653568,8.41509339 L10.0210026,8.41454714 Z M10.9671172,10.5105295 L9.41028899,10.5108026 L9.75743436,9.31941938 L7.7029674,9.31969251 L7.35582203,10.5113489 L5.7987207,10.511622 L6.75603348,7.22398326 L7.86220088,6.62228282 L11.1692317,6.62173656 L11.9247031,7.22289075 L10.9671172,10.5105295 Z" id="Fill-4" fill="#FEFEFE"></path>
            <polygon id="Fill-6" fill="#FEFEFE" points="16.2646485 10.5096828 11.9036176 10.5102291 13.0362784 6.621163 14.5876441 6.62088987 13.7166396 9.61081938 16.5263048 9.61054626"></polygon>
            <polygon id="Fill-8" fill="#FEFEFE" points="21.2049559 10.5086176 16.8439251 10.509437 17.9765859 6.62037093 19.5279515 6.6200978 18.6569471 9.61002731 21.4666123 9.60948106"></polygon>
            <polygon id="Fill-10" fill="#FEFEFE" points="24.670674 9.26061498 22.2239956 9.26116123 22.3990705 8.65973392 24.8457489 8.65918767"></polygon>
            <polygon id="Fill-12" fill="#FEFEFE" points="30.5059665 10.5070335 28.9491383 10.5073066 27.3117374 8.41159736 26.7010238 10.5078529 25.2143894 10.508126 26.3470502 6.61905991 27.5881427 6.61878678 29.4872 8.86089251 30.1402485 6.61824053 31.6386273 6.6179674"></polygon>
            <polygon id="Fill-14" fill="#FEFEFE" points="36.7519066 10.5059683 31.4603295 10.5067877 32.5929903 6.61772159 37.8086379 6.6169022 37.5483471 7.51057621 34.200074 7.51112247 34.0249991 8.11227665 36.8756335 8.1117304 35.7172987 8.89369515 33.7974837 8.89396828 33.5893604 9.60737797 37.013563 9.60683172"></polygon>
            <polygon id="Fill-16" fill="#FEFEFE" points="44.7067524 10.5043568 37.5478009 10.5057225 38.6804617 6.61665639 40.2435718 6.61638326 39.3725674 9.60631278 40.6133868 9.60603965 41.4843912 6.61611013 43.0414925 6.615837 42.1704881 9.60576652 43.4113075 9.60549339 44.2823119 6.61556388 45.8394132 6.61529075"></polygon>
            <path d="M62.1649145,0.351160352 C61.9188264,0.323301322 59.6171789,0.314288106 59.2509145,0.351160352 C58.864985,0.389671366 58.7349762,0.562834361 58.7349762,0.994376211 L58.7349762,12.5138123 C58.7349762,13.0354863 59.0709233,13.02183 59.4117868,13.0414952 C59.640941,13.0554247 61.84317,13.0570634 62.0919894,13.0384907 C62.6101128,13.0016185 62.6352405,12.714015 62.6374256,12.2327639 C62.6423419,11.4073718 62.6374256,1.7766141 62.6374256,0.950948899 C62.6374256,0.561195595 62.5489322,0.39404141 62.1649145,0.351160352" id="Fill-18" fill="#FEFEFE"></path>
            <path d="M77.6242458,7.16599824 C76.5186247,6.51868546 70.7378758,4.50600705 69.5462194,3.99361938 C69.2132767,3.85050044 69.1160432,3.68798943 69.1613824,3.47822731 C69.2162811,3.22503789 69.5454,3.23159295 69.6887921,3.22831542 C69.8155233,3.22503789 71.0063604,3.23951366 78.1942634,3.2665533 C78.5974,3.26819207 78.7831269,3.15894097 78.8284661,2.71565463 C78.8519551,2.49223612 78.84103,1.19351366 78.8358405,1.05367225 C78.8189066,0.553302203 78.7446159,0.34818326 78.2163868,0.346544493 C77.6253383,0.344905727 70.5655322,0.315681057 68.3488273,0.401989427 C65.8622722,0.499222907 65.1267392,1.75260617 64.9513912,3.03357533 C64.779867,4.28613921 65.2163251,5.47014802 66.3345101,6.2021304 C67.3994352,6.89860617 71.0765542,8.11457093 74.469074,9.42776916 C75.0156026,9.6397163 75.0620344,9.84865903 74.9768185,10.0384828 C74.9183692,10.1673991 74.6720079,10.190615 74.3458934,10.1944388 C73.5013824,10.201267 66.285074,10.0786326 65.8548978,10.0906502 C65.3277612,10.1062185 65.2308009,10.2714608 65.2185101,10.8627824 C65.2155057,11.00317 65.2171445,12.063452 65.2190564,12.2185885 C65.2245189,12.7692141 65.3130123,12.9754256 65.8262194,12.9814344 C68.8825189,13.0142097 74.1536115,13.0431612 75.2690652,13.004104 C77.0408449,12.9423771 78.0148185,12.619267 78.6954529,11.6436546 C79.454748,10.5549674 79.5629066,8.30302907 77.6242458,7.16599824" id="Fill-20" fill="#FEFEFE"></path>
            <path d="M102.150408,9.43424229 C103.628029,8.72001322 107.696813,6.90999559 109.741448,5.5932467 C110.957139,4.81046256 111.646787,3.44673568 111.05765,1.96802203 C110.608901,0.842735683 109.689007,0.390982379 107.822998,0.319969163 C106.378152,0.265343612 98.1550952,0.31423348 97.9611744,0.316964758 C97.3818705,0.325977974 97.3455445,0.571792952 97.3368044,1.11722907 C97.3346194,1.25570485 97.3338,2.49597797 97.3507339,2.70328194 C97.3889718,3.15722026 97.6700203,3.20665639 97.966637,3.20665639 C98.157007,3.20665639 106.109395,3.15093833 106.652646,3.15257709 C106.908567,3.15339648 107.013721,3.2451674 107.029835,3.41969604 C107.042945,3.5699163 106.961826,3.66578414 106.773915,3.75919383 C104.331879,4.96887665 100.242337,6.87093833 99.0241877,7.5084185 C97.2469454,8.43978414 96.8353419,9.52164317 96.9320291,10.6037753 C97.0390952,11.8069031 97.7251921,12.8781101 100.237967,12.9644185 C102.444567,13.040348 108.763377,12.9414758 110.311192,12.9005066 C110.870285,12.8860308 110.896505,12.6664361 110.94321,12.24063 C110.963421,12.061185 110.952223,11.1109736 110.95113,10.9705859 C110.94321,10.2137489 110.870831,10.0348502 110.255201,10.0397665 C109.778593,10.0441366 103.585967,10.1749648 101.821835,10.1558458 C101.541606,10.152022 101.461307,9.99169604 101.555809,9.8171674 C101.615624,9.70573128 101.798893,9.60412775 102.150408,9.43424229" id="Fill-22" fill="#FEFEFE"></path>
            <path d="M94.3175956,0.328736564 C93.9551551,0.298146256 91.7313489,0.296507489 91.502741,0.32436652 C91.2175956,0.359326872 90.9693225,0.410401762 90.9693225,0.9746837 C90.9693225,1.33903612 90.9706881,6.69589075 90.9706881,7.73295683 C90.9706881,9.06691278 90.7688467,9.96222555 89.2508026,10.0671066 C88.353578,10.1288335 87.7114546,10.1288335 86.8603885,10.046622 C85.4196396,9.90705374 85.1429612,9.37964405 85.1429612,7.5190978 C85.1429612,6.35857797 85.1557982,1.5474326 85.1547057,1.07819912 C85.1536132,0.607326872 85.1090934,0.357414978 84.5816837,0.335564758 C84.2031286,0.320542731 82.1126088,0.319996476 81.8796308,0.334472247 C81.5988555,0.352498678 81.317807,0.415591189 81.317807,0.995987665 C81.317807,1.3417674 81.2896749,5.32615507 81.3191727,8.65339736 C81.3565912,12.9524282 84.08623,12.8448159 85.3680185,12.9633533 C86.145067,13.0346396 89.597948,13.0502079 91.1378423,12.9275736 C93.9327586,12.7052476 94.7048907,11.1555207 94.7677101,8.96995242 C94.8103181,7.53084229 94.8450053,2.33731806 94.8258863,1.06508899 C94.8182388,0.59175859 94.7472256,0.365335683 94.3175956,0.328736564" id="Fill-24" fill="#FEFEFE"></path>
            <path d="M127.131601,0.982768282 C127.130781,0.556688987 127.037372,0.32534978 126.616482,0.292847577 C126.213892,0.261437885 124.089777,0.272636123 123.898861,0.289843172 C123.445196,0.329719824 123.330755,0.467376211 123.322834,0.920768282 C123.315733,1.28484758 123.314914,7.01670661 123.295795,8.03356123 C123.267663,9.5330326 122.803345,9.73432775 122.133909,9.91623084 C121.461742,10.0989533 119.288737,10.0478784 119.015063,10.0096405 C118.172191,9.89055683 117.635768,9.53030132 117.616649,8.04858326 C117.598623,6.61602819 117.6019,1.40420441 117.6019,0.934970925 C117.6019,0.477755066 117.424641,0.329446696 117.059469,0.306503965 C116.737451,0.286565639 114.757275,0.278098678 114.286949,0.308142731 C113.735231,0.343649339 113.709284,0.592195595 113.702729,1.03739383 C113.689345,1.91413392 113.672685,8.1542837 113.760359,9.19653921 C113.967663,11.6626097 115.084755,12.6663542 117.040077,12.8425216 C118.849275,13.0055789 123.160596,13.0307066 124.465328,12.7040458 C126.576878,12.1749974 127.007055,10.4010326 127.104834,8.16630132 C127.156182,6.99157885 127.132693,1.52137621 127.131601,0.982768282" id="Fill-26" fill="#FEFEFE"></path>
            <path d="M173.574626,46.1189868 L185.428098,46.1189868 C185.835604,46.1189868 186.027886,45.578467 185.723895,45.2870396 L172.988494,33.0612952 C172.757974,32.8403348 172.765622,32.4508546 173.004063,32.2402731 L185.608635,21.1097709 C185.927648,20.8281762 185.741922,20.2726344 185.329226,20.2726344 L172.313596,20.2726344 C172.004688,20.2726344 171.704521,20.3835242 171.461164,20.5875507 L165.804415,25.3334185 C165.53675,25.5582026 165.157922,25.5445463 164.904459,25.3014626 L159.984336,20.5782643 C159.779217,20.3816123 159.51401,20.2726344 159.23897,20.2726344 L147.728547,20.2726344 C147.318856,20.2726344 147.124389,20.8145198 147.428107,21.1094978 L157.838371,31.2280617 C158.065613,31.449022 158.052503,31.8365903 157.811058,32.0392511 L148.40645,39.9296388 C148.090988,40.1940264 147.627217,40.0492687 147.492838,39.6450396 L141.269076,20.89837 C141.14453,20.5230925 140.813499,20.2726344 140.442318,20.2726344 L129.493173,20.2726344 C129.157772,20.2726344 128.838485,20.4264053 128.61534,20.6954361 L112.753446,39.8231189 C112.486054,40.1456828 111.989234,39.9725198 111.948811,39.5428899 L110.206256,20.8953656 C110.173208,20.5416652 109.895983,20.2726344 109.564952,20.2726344 L101.84527,20.2726344 C101.519701,20.2726344 101.211613,20.4294097 101.005675,20.7003524 L93.5776925,30.465489 C93.320133,30.8047137 92.8088379,30.6255419 92.7867145,30.1888106 L92.3144767,20.896185 C92.2967233,20.5465815 92.0274194,20.2726344 91.7010317,20.2726344 L82.5425119,20.2726344 C82.2371551,20.2726344 81.9506441,20.4291366 81.770926,20.6940705 L65.0918335,45.2845815 C64.8566705,45.6317269 65.0874634,46.1189868 65.4873225,46.1189868 L75.2355251,46.1189868 C75.4644062,46.1189868 75.6807233,46.0070044 75.8230229,45.8144493 L82.5613577,36.7056388 C82.7042035,36.5125374 82.9213401,36.4000088 83.1510405,36.4000088 L85.5130493,36.4000088 C85.6681859,36.4000088 85.7938247,36.5360264 85.7927322,36.7026344 L85.7214458,45.4957093 C85.7189877,45.8390308 85.9773665,46.1189868 86.2971991,46.1189868 L93.0177806,46.1189868 C93.2463885,46.1189868 93.4624326,46.0075507 93.6052784,45.8160881 L100.391411,36.7089163 C100.536715,36.51363 100.757129,36.4000088 100.989833,36.4000088 L103.169939,36.4000088 C103.33327,36.4000088 103.469833,36.533022 103.485675,36.7078238 L104.284847,45.4984405 C104.316803,45.8505022 104.592389,46.1189868 104.922054,46.1189868 L119.132618,46.1189868 C119.378433,46.1189868 119.613596,46.0100088 119.781842,45.8174537 L131.49875,32.4328282 C131.666723,32.2408194 131.900794,32.1323877 132.145789,32.1323877 L134.455631,32.1323877 C134.63808,32.1323877 134.801684,32.2525639 134.867507,32.4350132 L137.322107,39.2211454 C137.388204,39.404141 137.339041,39.6119912 137.199472,39.7387225 L131.095886,45.2862203 C130.783155,45.5702731 130.970248,46.1189868 131.380212,46.1189868 L156.841728,46.1189868 C157.129878,46.1189868 157.408741,46.0113744 157.631067,45.8152687 L165.148908,39.1763524 C165.410019,38.9458326 165.78912,38.9553921 166.039578,39.199022 L172.851111,45.8193656 C173.049402,46.0121938 173.307234,46.1189868 173.574626,46.1189868" id="Fill-29" fill="#FEFEFE"></path>
            <path d="M62.2552106,26.7133145 L58.9585586,37.451059 C58.8643295,37.7580546 59.145378,38.0437463 59.4242414,37.9230238 C62.7946379,36.4626097 68.0504352,34.0339577 71.5421004,32.2821163 C71.9034485,32.1007595 71.921748,31.5572352 71.5729639,31.3496581 C69.2912546,29.9913938 65.469378,27.7787859 62.9642502,26.3986714 C62.6875718,26.2462661 62.3524441,26.3964863 62.2552106,26.7133145" id="Fill-31" fill="#FEFEFE"></path>
            <path d="M35.5751084,39.80583 L16.3138661,39.80583 C16.1150291,39.80583 15.973822,39.598526 16.0341833,39.3953189 L19.8607031,26.4509753 C19.9156018,26.2660678 20.0753815,26.1401559 20.2564652,26.1401559 L41.8092493,26.1401559 C42.2547207,26.1401559 42.6941833,26.2485877 43.0948617,26.4578035 L45.6163771,27.7723674 C45.7660511,27.8507551 45.8400687,28.0342969 45.7906326,28.2047286 L43.6435753,35.6037595 C43.5681921,35.8624115 43.3966678,36.0762705 43.1696987,36.1942617 L36.8006326,39.5040238 C36.4185269,39.7025877 35.9995489,39.80583 35.5751084,39.80583 M0.44541674,46.1189048 L40.5796282,46.1189048 C41.0931084,46.1189048 41.6000335,46.0140238 42.0766414,45.809178 C46.118659,44.0718123 51.4397339,41.5691427 55.1709322,39.6517859 C55.6322449,39.4144379 55.9810291,38.9867198 56.1413551,38.4653189 L59.9768881,25.9710899 C60.1115401,25.5327198 59.8963154,25.0593894 59.4918132,24.9031604 L48.2733639,20.5765436 C47.751963,20.3752485 47.2021568,20.2725524 46.6482537,20.2725524 L1.46636828,20.2725524 C1.06131982,20.2725524 0.849372687,20.7893101 1.12277357,21.1102352 L5.49227137,26.2376626 C5.63183965,26.4015392 5.67909075,26.6328784 5.61572511,26.8442793 L0.0217955947,45.4945348 C-0.0707947137,45.8031692 0.143610573,46.1189048 0.44541674,46.1189048" id="Fill-33" fill="#FEFEFE"></path>
        </g>
    </g>
</svg>