<svg xmlns="http://www.w3.org/2000/svg" width="52" height="52" viewBox="0 0 52 52">
  <defs>
    <style>
      .cls-1 {
        fill: #e50011;
        fill-rule: evenodd;
      }
    </style>
  </defs>
  <path id="icon" class="cls-1" d="M25.857,1.994a23.5,23.5,0,1,0,23.5,23.5A23.5,23.5,0,0,0,25.857,1.994ZM8.529,17.567A18.8,18.8,0,0,1,25.857,6.442,18.8,18.8,0,0,1,43.185,17.567c0.608,1.4.036,3.59-3.114,3.057a82.819,82.819,0,0,0-14.214-1.669,82.817,82.817,0,0,0-14.214,1.669C8.493,21.157,7.921,18.971,8.529,17.567Zm27.514,9.17H34.165c-0.878,0-1.163-.382-1.163-0.921v-2.9a0.134,0.134,0,0,1,.132-0.132h1.055a0.135,0.135,0,0,1,.131.132v2.5a0.439,0.439,0,0,0,.422.439H35.81a0.438,0.438,0,0,0,.439-0.439c0-.008,0-0.017,0-0.026V22.919a0.132,0.132,0,0,1,.132-0.132h1.052a0.133,0.133,0,0,1,.132.132V25.64c0,0.878-.44,1.1-1.522,1.095v0ZM15.63,22.919v3.687a0.132,0.132,0,0,1-.131.13l-1.054,0a0.134,0.134,0,0,1-.132-0.131V22.919a0.135,0.135,0,0,1,.132-0.132H15.5A0.134,0.134,0,0,1,15.63,22.919Zm2.264,19.913a20.068,20.068,0,0,1-9.6-9.881c-1.212-2.636.539-3.857,1.324-3.857,0,0,6.99,1.146,7.464,1.242,2.273,0.459,3.9,10.363,3.9,10.363C21.2,42.583,18.44,43.087,17.894,42.832Zm2.385-16.094h-3.6a0.088,0.088,0,0,1-.088-0.087v-0.7a0.09,0.09,0,0,1,.088-0.089h3.155c0.131,0,.145-0.095-0.038-0.169l-2.855-1.1a0.877,0.877,0,0,1-.5-0.833,0.971,0.971,0,0,1,.94-0.97h3.579a0.09,0.09,0,0,1,.088.089v0.7a0.089,0.089,0,0,1-.088.088H17.955a0.075,0.075,0,0,0-.076.075,0.091,0.091,0,0,0,.078.091l2.63,0.979A0.987,0.987,0,0,1,20.279,26.738Zm6.317-1.1c0,0.878-.439,1.1-1.52,1.095v0H23.2c-0.877,0-1.163-.382-1.161-0.921v-2.9a0.133,0.133,0,0,1,.132-0.132h1.052a0.133,0.133,0,0,1,.132.132v2.5a0.44,0.44,0,0,0,.423.438h1.069a0.439,0.439,0,0,0,.439-0.439c0-.009,0-0.018,0-0.027V22.919a0.132,0.132,0,0,1,.132-0.132h1.049a0.134,0.134,0,0,1,.132.132V25.64Zm0.738,0.219a1.051,1.051,0,0,1,.739-0.876l2.689-1.173c0.109-.045.1-0.144,0-0.144h-3.2a0.088,0.088,0,0,1-.087-0.087v-0.7a0.087,0.087,0,0,1,.087-0.089h3.424a1.013,1.013,0,0,1,1.229.878,1.14,1.14,0,0,1-.791.924l-2.468,1.1c-0.183.073-.17,0.169-0.038,0.169H32a0.089,0.089,0,0,1,.088.089v0.7a0.088,0.088,0,0,1-.089.087H28.453A0.911,0.911,0,0,1,27.334,25.859ZM33.82,42.832c-0.545.255-3.3-.249-3.092-2.133,0,0,1.628-9.9,3.9-10.363,0.474-.1,7.464-1.242,7.464-1.242,0.785,0,2.536,1.221,1.324,3.857A20.068,20.068,0,0,1,33.82,42.832Z"/>
</svg>
