<?xml version="1.0" encoding="utf-8"?>
<!-- Generator: Adobe Illustrator 23.0.4, SVG Export Plug-In . SVG Version: 6.00 Build 0)  -->
<svg version="1.1" id="Capa_1" xmlns="http://www.w3.org/2000/svg" xmlns:xlink="http://www.w3.org/1999/xlink" x="0px" y="0px"
	 viewBox="0 0 1757.7 173.6" style="enable-background:new 0 0 1757.7 173.6;" xml:space="preserve">
<style type="text/css">
	.st0{fill:none;}
</style>
<path class="st0" d="M6.5,106.2c0-1.3,0.2-2.4,0.6-3.4c0.4-0.9,1-1.7,1.7-2.2c0.7-0.6,1.6-1,2.6-1.2c1-0.3,2-0.4,3.1-0.4
	s2.1,0.1,3,0.4c1,0.3,1.8,0.7,2.5,1.2c0.7,0.6,1.3,1.3,1.7,2.2c0.4,0.9,0.6,2,0.6,3.4c0,1.3-0.2,2.3-0.6,3.2c-0.4,0.9-1,1.6-1.7,2.2
	s-1.6,1-2.5,1.3c-1,0.3-2,0.4-3,0.4c-1.1,0-2.2-0.1-3.1-0.4c-1-0.3-1.8-0.7-2.6-1.3c-0.7-0.6-1.3-1.3-1.7-2.2S6.5,107.4,6.5,106.2z"
	/>
<path class="st0" d="M33.1,106.2c0-1.3,0.2-2.4,0.6-3.4c0.4-0.9,1-1.7,1.7-2.2c0.7-0.6,1.6-1,2.6-1.2c1-0.3,2-0.4,3.1-0.4
	s2.1,0.1,3,0.4c1,0.3,1.8,0.7,2.5,1.2c0.7,0.6,1.3,1.3,1.7,2.2c0.4,0.9,0.6,2,0.6,3.4c0,1.3-0.2,2.3-0.6,3.2c-0.4,0.9-1,1.6-1.7,2.2
	s-1.6,1-2.5,1.3c-1,0.3-2,0.4-3,0.4c-1.1,0-2.2-0.1-3.1-0.4c-1-0.3-1.8-0.7-2.6-1.3c-0.7-0.6-1.3-1.3-1.7-2.2
	C33.3,108.5,33.1,107.4,33.1,106.2z"/>
<path class="st0" d="M59.8,106.2c0-1.3,0.2-2.4,0.6-3.4c0.4-0.9,1-1.7,1.7-2.2c0.7-0.6,1.6-1,2.6-1.2c1-0.3,2-0.4,3.1-0.4
	s2.1,0.1,3,0.4c1,0.3,1.8,0.7,2.5,1.2c0.7,0.6,1.3,1.3,1.7,2.2c0.4,0.9,0.6,2,0.6,3.4c0,1.3-0.2,2.3-0.6,3.2c-0.4,0.9-1,1.6-1.7,2.2
	s-1.6,1-2.5,1.3c-1,0.3-2,0.4-3,0.4c-1.1,0-2.2-0.1-3.1-0.4c-1-0.3-1.8-0.7-2.6-1.3c-0.7-0.6-1.3-1.3-1.7-2.2
	C60,108.5,59.8,107.4,59.8,106.2z"/>
<path class="st0" d="M1682,106.2c0-1.3,0.2-2.4,0.6-3.4c0.4-0.9,1-1.7,1.7-2.2c0.7-0.6,1.6-1,2.6-1.2c1-0.3,2-0.4,3.1-0.4
	s2.1,0.1,3,0.4s1.8,0.7,2.5,1.2c0.7,0.6,1.3,1.3,1.7,2.2c0.4,0.9,0.6,2,0.6,3.4c0,1.3-0.2,2.3-0.6,3.2c-0.4,0.9-1,1.6-1.7,2.2
	s-1.6,1-2.5,1.3c-1,0.3-2,0.4-3,0.4c-1.1,0-2.2-0.1-3.1-0.4c-1-0.3-1.8-0.7-2.6-1.3c-0.7-0.6-1.3-1.3-1.7-2.2
	C1682.2,108.5,1682,107.4,1682,106.2z"/>
<path class="st0" d="M1708.6,106.2c0-1.3,0.2-2.4,0.6-3.4c0.4-0.9,1-1.7,1.7-2.2c0.7-0.6,1.6-1,2.6-1.2c1-0.3,2-0.4,3.1-0.4
	s2.1,0.1,3,0.4s1.8,0.7,2.5,1.2c0.7,0.6,1.3,1.3,1.7,2.2c0.4,0.9,0.6,2,0.6,3.4c0,1.3-0.2,2.3-0.6,3.2c-0.4,0.9-1,1.6-1.7,2.2
	s-1.6,1-2.5,1.3c-1,0.3-2,0.4-3,0.4c-1.1,0-2.2-0.1-3.1-0.4c-1-0.3-1.8-0.7-2.6-1.3c-0.7-0.6-1.3-1.3-1.7-2.2
	S1708.6,107.4,1708.6,106.2z"/>
<path class="st0" d="M1735.2,106.2c0-1.3,0.2-2.4,0.6-3.4c0.4-0.9,1-1.7,1.7-2.2c0.7-0.6,1.6-1,2.6-1.2c1-0.3,2-0.4,3.1-0.4
	s2.1,0.1,3,0.4s1.8,0.7,2.5,1.2c0.7,0.6,1.3,1.3,1.7,2.2c0.4,0.9,0.6,2,0.6,3.4c0,1.3-0.2,2.3-0.6,3.2c-0.4,0.9-1,1.6-1.7,2.2
	s-1.6,1-2.5,1.3c-1,0.3-2,0.4-3,0.4c-1.1,0-2.2-0.1-3.1-0.4c-1-0.3-1.8-0.7-2.6-1.3c-0.7-0.6-1.3-1.3-1.7-2.2
	C1735.5,108.5,1735.2,107.4,1735.2,106.2z"/>
<g>
	<path d="M182.7,131.2h-16.2l-6.4-15.4h-29.4l-6.1,15.4h-15.8l28.7-68h15.7L182.7,131.2z M155.3,104.3l-10.1-25.2l-9.9,25.2H155.3z"
		/>
	<path d="M189.9,131.2V63.8h14.9v56h36.9v11.5h-51.8V131.2z"/>
	<path d="M251.7,131.2V63.8h14.9v56h36.9v11.5h-51.8V131.2z"/>
	<path d="M311.3,113.1v-13H339v13H311.3z"/>
	<path d="M346.4,131.2v-68h14.5l30.1,45.4V63.2h13.8v68h-14.9l-29.7-44.3v44.3H346.4z"/>
	<path d="M419.4,131.2v-68H474v11.5h-39.7v15.1h36.9v11.5h-36.9v18.5h41.1v11.5L419.4,131.2L419.4,131.2z"/>
	<path d="M497.4,131.2l-17.6-68H495l11.1,46.7l13.4-46.7h17.7l12.9,47.5l11.3-47.5h15l-17.9,68h-15.8L528,80.4l-14.6,50.8H497.4z"/>
	<path d="M610,131.2v-68h14.9v68H610z"/>
	<path d="M634.2,109.1l14.5-1.3c0.9,4.5,2.6,7.8,5.3,9.9s6.2,3.2,10.8,3.2c4.8,0,8.4-0.9,10.8-2.8c2.4-1.9,3.6-4.1,3.6-6.6
		c0-1.6-0.5-3-1.5-4.1s-2.8-2.1-5.3-2.9c-1.7-0.6-5.7-1.5-11.9-3c-8-1.8-13.5-4.1-16.8-6.7c-4.5-3.7-6.8-8.3-6.8-13.7
		c0-3.5,1.1-6.7,3.2-9.7c2.1-3,5.2-5.3,9.2-6.9s8.8-2.4,14.5-2.4c9.2,0,16.2,1.9,20.9,5.6s7.1,8.7,7.4,15l-14.9,0.6
		c-0.6-3.5-2-6-4.1-7.5s-5.2-2.3-9.4-2.3c-4.3,0-7.7,0.8-10.1,2.5c-1.6,1.1-2.4,2.5-2.4,4.2c0,1.6,0.7,3,2.2,4.1
		c1.9,1.5,6.4,3,13.6,4.5c7.2,1.6,12.6,3.2,16,4.9c3.5,1.7,6.2,4,8.1,6.9c2,2.9,2.9,6.5,2.9,10.8c0,3.9-1.2,7.5-3.5,10.9
		s-5.7,5.9-9.9,7.6c-4.3,1.7-9.6,2.5-16,2.5c-9.3,0-16.4-2-21.4-6C638.1,122.5,635.2,116.7,634.2,109.1z"/>
	<path d="M705.4,63.2h14.9V100c0,5.8,0.2,9.6,0.6,11.4c0.6,2.8,2.1,5,4.5,6.7s5.7,2.5,9.8,2.5c4.2,0,7.4-0.8,9.5-2.4
		s3.4-3.5,3.9-5.9s0.7-6.2,0.7-11.5V63.2H764V99c0,8.2-0.4,13.9-1.2,17.3s-2.3,6.2-4.4,8.5c-2.2,2.3-5,4.2-8.7,5.5
		c-3.6,1.4-8.3,2.1-14.2,2.1c-7,0-12.4-0.8-16-2.2c-3.6-1.5-6.5-3.4-8.6-5.8s-3.5-4.9-4.2-7.5c-1-3.9-1.5-9.6-1.5-17.3V63.2H705.4z"
		/>
	<path d="M772.3,131.2v-12.4l38.6-44.1h-34.3V63.2h53.8v10.7l-40.3,45.9H832v11.5h-59.7V131.2z"/>
	<path d="M840.3,63.2h14.9V100c0,5.8,0.2,9.6,0.6,11.4c0.6,2.8,2.1,5,4.5,6.7s5.7,2.5,9.8,2.5c4.2,0,7.4-0.8,9.5-2.4
		s3.4-3.5,3.9-5.9s0.7-6.2,0.7-11.5V63.2H899V99c0,8.2-0.4,13.9-1.2,17.3s-2.3,6.2-4.4,8.5c-2.2,2.3-5,4.2-8.7,5.5
		c-3.6,1.4-8.3,2.1-14.2,2.1c-7,0-12.4-0.8-16-2.2c-3.6-1.5-6.5-3.4-8.6-5.8s-3.5-4.9-4.2-7.5c-1-3.9-1.5-9.6-1.5-17.3V63.2H840.3z"
		/>
	<path d="M941.1,63.2h27.1c6.1,0,10.8,0.4,14,1.3c4.3,1.2,8,3.3,11.1,6.3s5.4,6.7,7,11s2.4,9.7,2.4,16.1c0,5.6-0.8,10.4-2.3,14.5
		c-1.8,4.9-4.5,9-7.9,12c-2.6,2.3-6.1,4.1-10.4,5.4c-3.3,1-7.7,1.4-13.1,1.4h-28v-68H941.1z M955.9,74.7v45H967c4.1,0,7.1-0.2,9-0.7
		c2.4-0.6,4.4-1.5,6-2.8s2.9-3.5,3.9-6.6c1-3,1.5-7.2,1.5-12.5s-0.5-9.3-1.5-12.1c-1-2.8-2.4-5-4.2-6.6s-4.1-2.6-6.9-3.2
		c-2.1-0.4-6.1-0.6-12.2-0.6L955.9,74.7L955.9,74.7z"/>
	<path d="M1012.6,113.1v-13h27.7v13H1012.6z"/>
	<path d="M1047.3,131.2v-68h22.2l13.3,46.4l13.2-46.4h22.3v68h-13.8V77.7l-14.6,53.5h-14.3L1061,77.7v53.5H1047.3z"/>
	<path d="M1198.5,131.2h-16.2l-6.4-15.4h-29.4l-6.1,15.4h-15.8l28.7-68h15.7L1198.5,131.2z M1171.1,104.3L1161,79.1l-9.9,25.2
		H1171.1z"/>
	<path d="M1197.8,131.2l25.1-35.5l-22.8-32.5h17.4l14.8,21.8l14.5-21.8h17.2l-22.9,33l25.1,35h-17.9l-16.3-23.5l-16.4,23.5H1197.8z"
		/>
	<path d="M1296.6,109.1l14.5-1.3c0.9,4.5,2.6,7.8,5.3,9.9c2.7,2.1,6.2,3.2,10.8,3.2c4.8,0,8.4-0.9,10.8-2.8s3.6-4.1,3.6-6.6
		c0-1.6-0.5-3-1.5-4.1s-2.8-2.1-5.3-2.9c-1.7-0.6-5.7-1.5-11.9-3c-8-1.8-13.5-4.1-16.8-6.7c-4.5-3.7-6.8-8.3-6.8-13.7
		c0-3.5,1.1-6.7,3.2-9.7s5.2-5.3,9.2-6.9s8.8-2.4,14.5-2.4c9.2,0,16.2,1.9,20.9,5.6c4.7,3.7,7.1,8.7,7.4,15l-14.9,0.6
		c-0.6-3.5-2-6-4.1-7.5s-5.2-2.3-9.4-2.3c-4.3,0-7.7,0.8-10.1,2.5c-1.6,1.1-2.4,2.5-2.4,4.2c0,1.6,0.7,3,2.2,4.1
		c1.9,1.5,6.4,3,13.6,4.5c7.2,1.6,12.6,3.2,16,4.9c3.5,1.7,6.2,4,8.1,6.9c2,2.9,2.9,6.5,2.9,10.8c0,3.9-1.2,7.5-3.5,10.9
		s-5.7,5.9-9.9,7.6c-4.3,1.7-9.6,2.5-16,2.5c-9.3,0-16.4-2-21.4-6C1300.5,122.5,1297.6,116.7,1296.6,109.1z"/>
	<path d="M1367.9,131.2v-68h23.8c9,0,14.9,0.3,17.7,1c4.2,1,7.7,3.2,10.6,6.7c2.8,3.4,4.3,7.8,4.3,13.2c0,4.2-0.8,7.7-2.5,10.5
		c-1.6,2.8-3.7,5.1-6.2,6.7s-5.1,2.7-7.7,3.2c-3.5,0.6-8.7,1-15.4,1h-9.7v25.7L1367.9,131.2L1367.9,131.2z M1382.7,74.7V94h8.1
		c5.9,0,9.8-0.4,11.7-1.1c2-0.7,3.5-1.8,4.6-3.3s1.7-3.3,1.7-5.3c0-2.5-0.8-4.5-2.4-6.1s-3.6-2.6-6-3c-1.8-0.3-5.3-0.5-10.7-0.5
		H1382.7z"/>
	<path d="M1494.1,131.2H1478l-6.4-15.4h-29.4l-6.1,15.4h-15.8l28.7-68h15.7L1494.1,131.2z M1466.8,104.3l-10.1-25.2l-9.9,25.2
		H1466.8z"/>
	<path d="M1501,131.2v-68h31.3c7.9,0,13.6,0.6,17.1,1.8c3.6,1.2,6.4,3.4,8.6,6.5c2.1,3.1,3.2,6.7,3.2,10.7c0,5.1-1.6,9.3-4.9,12.6
		c-3.2,3.3-8.1,5.4-14.6,6.3c3.2,1.7,5.9,3.6,8,5.7s4.9,5.8,8.5,11l9,13.3h-17.8l-10.7-14.8c-3.8-5.3-6.4-8.6-7.8-10
		s-2.9-2.3-4.5-2.8s-4.1-0.8-7.5-0.8h-3v28.4H1501V131.2z M1515.9,92h11c7.1,0,11.6-0.3,13.3-0.8c1.8-0.6,3.2-1.5,4.2-2.9
		s1.5-3.1,1.5-5.1c0-2.3-0.7-4.1-2-5.5s-3.2-2.3-5.6-2.7c-1.2-0.2-4.8-0.2-10.8-0.2h-11.6V92z"/>
	<path d="M1574.4,131.2v-68h14.9v30.2l30-30.2h20l-27.7,26.5l29.2,41.5h-19.2l-20.2-31.9l-12,11.4v20.5H1574.4z"/>
</g>
</svg>
