<?xml version="1.0" encoding="utf-8"?>
<!-- Generator: Adobe Illustrator 23.0.4, SVG Export Plug-In . SVG Version: 6.00 Build 0)  -->
<svg version="1.1" id="Capa_1" xmlns="http://www.w3.org/2000/svg" xmlns:xlink="http://www.w3.org/1999/xlink" x="0px" y="0px"
	 viewBox="0 0 1757.7 173.6" style="enable-background:new 0 0 1757.7 173.6;" xml:space="preserve">
<style type="text/css">
	.st0{fill:none;}
</style>
<g>
	<path class="st0" d="M6.5,94.1c0-1.3,0.2-2.4,0.6-3.4c0.4-0.9,1-1.7,1.7-2.2c0.7-0.6,1.6-1,2.6-1.2c1-0.3,2-0.4,3.1-0.4
		s2.1,0.1,3,0.4c1,0.3,1.8,0.7,2.5,1.2c0.7,0.6,1.3,1.3,1.7,2.2c0.4,0.9,0.6,2,0.6,3.4c0,1.3-0.2,2.3-0.6,3.2
		c-0.4,0.9-1,1.6-1.7,2.2s-1.6,1-2.5,1.3c-1,0.3-2,0.4-3,0.4c-1.1,0-2.2-0.1-3.1-0.4c-1-0.3-1.8-0.7-2.6-1.3
		c-0.7-0.6-1.3-1.3-1.7-2.2S6.5,95.3,6.5,94.1z"/>
	<path class="st0" d="M33.1,94.1c0-1.3,0.2-2.4,0.6-3.4c0.4-0.9,1-1.7,1.7-2.2c0.7-0.6,1.6-1,2.6-1.2c1-0.3,2-0.4,3.1-0.4
		s2.1,0.1,3,0.4c1,0.3,1.8,0.7,2.5,1.2c0.7,0.6,1.3,1.3,1.7,2.2c0.4,0.9,0.6,2,0.6,3.4c0,1.3-0.2,2.3-0.6,3.2
		c-0.4,0.9-1,1.6-1.7,2.2s-1.6,1-2.5,1.3c-1,0.3-2,0.4-3,0.4c-1.1,0-2.2-0.1-3.1-0.4c-1-0.3-1.8-0.7-2.6-1.3
		c-0.7-0.6-1.3-1.3-1.7-2.2C33.3,96.4,33.1,95.3,33.1,94.1z"/>
	<path class="st0" d="M59.8,94.1c0-1.3,0.2-2.4,0.6-3.4c0.4-0.9,1-1.7,1.7-2.2c0.7-0.6,1.6-1,2.6-1.2c1-0.3,2-0.4,3.1-0.4
		s2.1,0.1,3,0.4c1,0.3,1.8,0.7,2.5,1.2c0.7,0.6,1.3,1.3,1.7,2.2c0.4,0.9,0.6,2,0.6,3.4c0,1.3-0.2,2.3-0.6,3.2
		c-0.4,0.9-1,1.6-1.7,2.2s-1.6,1-2.5,1.3c-1,0.3-2,0.4-3,0.4c-1.1,0-2.2-0.1-3.1-0.4c-1-0.3-1.8-0.7-2.6-1.3
		c-0.7-0.6-1.3-1.3-1.7-2.2C60,96.4,59.8,95.3,59.8,94.1z"/>
	<path class="st0" d="M1682,94.1c0-1.3,0.2-2.4,0.6-3.4c0.4-0.9,1-1.7,1.7-2.2c0.7-0.6,1.6-1,2.6-1.2c1-0.3,2-0.4,3.1-0.4
		s2.1,0.1,3,0.4s1.8,0.7,2.5,1.2c0.7,0.6,1.3,1.3,1.7,2.2c0.4,0.9,0.6,2,0.6,3.4c0,1.3-0.2,2.3-0.6,3.2c-0.4,0.9-1,1.6-1.7,2.2
		s-1.6,1-2.5,1.3c-1,0.3-2,0.4-3,0.4c-1.1,0-2.2-0.1-3.1-0.4c-1-0.3-1.8-0.7-2.6-1.3c-0.7-0.6-1.3-1.3-1.7-2.2
		C1682.2,96.4,1682,95.3,1682,94.1z"/>
	<path class="st0" d="M1708.6,94.1c0-1.3,0.2-2.4,0.6-3.4c0.4-0.9,1-1.7,1.7-2.2c0.7-0.6,1.6-1,2.6-1.2c1-0.3,2-0.4,3.1-0.4
		s2.1,0.1,3,0.4s1.8,0.7,2.5,1.2c0.7,0.6,1.3,1.3,1.7,2.2c0.4,0.9,0.6,2,0.6,3.4c0,1.3-0.2,2.3-0.6,3.2c-0.4,0.9-1,1.6-1.7,2.2
		s-1.6,1-2.5,1.3c-1,0.3-2,0.4-3,0.4c-1.1,0-2.2-0.1-3.1-0.4c-1-0.3-1.8-0.7-2.6-1.3c-0.7-0.6-1.3-1.3-1.7-2.2
		S1708.6,95.3,1708.6,94.1z"/>
	<path class="st0" d="M1735.2,94.1c0-1.3,0.2-2.4,0.6-3.4c0.4-0.9,1-1.7,1.7-2.2c0.7-0.6,1.6-1,2.6-1.2c1-0.3,2-0.4,3.1-0.4
		s2.1,0.1,3,0.4s1.8,0.7,2.5,1.2c0.7,0.6,1.3,1.3,1.7,2.2c0.4,0.9,0.6,2,0.6,3.4c0,1.3-0.2,2.3-0.6,3.2c-0.4,0.9-1,1.6-1.7,2.2
		s-1.6,1-2.5,1.3c-1,0.3-2,0.4-3,0.4c-1.1,0-2.2-0.1-3.1-0.4c-1-0.3-1.8-0.7-2.6-1.3c-0.7-0.6-1.3-1.3-1.7-2.2
		C1735.5,96.4,1735.2,95.3,1735.2,94.1z"/>
	<g>
		<path d="M82.3,128H66.2l-6.4-15.4H30.3L24.2,128H8.5l28.7-68h15.7L82.3,128z M55,101.1L44.8,75.8L34.9,101H55V101.1z"/>
		<path d="M89.6,128V60.5h14.9v56h36.9V128H89.6z"/>
		<path d="M151.3,128V60.5h14.9v56h36.9V128H151.3z"/>
		<path d="M211,109.8v-13h27.7v13H211z"/>
		<path d="M246,128V60h14.5l30.1,45.4V60h13.8v68h-14.9l-29.7-44.3V128H246z"/>
		<path d="M319.1,128V60h54.5v11.5h-39.7v15.1h36.9v11.5h-36.9v18.5H375v11.5L319.1,128L319.1,128z"/>
		<path d="M397,128l-17.6-68h15.2l11.1,46.7L419.1,60h17.7l12.9,47.5L461,60h15l-17.9,68h-15.8l-14.7-50.8L413,128H397z"/>
		<path d="M509.6,128V60h14.9v68H509.6z"/>
		<path d="M533.9,105.9l14.5-1.3c0.9,4.5,2.6,7.8,5.3,9.9s6.2,3.2,10.8,3.2c4.8,0,8.4-0.9,10.8-2.8c2.4-1.9,3.6-4.1,3.6-6.6
			c0-1.6-0.5-3-1.5-4.1s-2.8-2.1-5.3-2.9c-1.7-0.6-5.7-1.5-11.9-3c-8-1.8-13.5-4.1-16.8-6.7c-4.5-3.7-6.8-8.3-6.8-13.7
			c0-3.5,1.1-6.7,3.2-9.7c2.1-3,5.2-5.3,9.2-6.9s8.8-2.4,14.5-2.4c9.2,0,16.2,1.9,20.9,5.6c4.7,3.7,7.1,8.7,7.4,15l-14.9,0.6
			c-0.6-3.5-2-6-4.1-7.5s-5.2-2.3-9.4-2.3c-4.3,0-7.7,0.8-10.1,2.5c-1.6,1.1-2.4,2.5-2.4,4.2c0,1.6,0.7,3,2.2,4.1
			c1.9,1.5,6.4,3,13.6,4.5c7.2,1.6,12.6,3.2,16,4.9c3.5,1.7,6.2,4,8.1,6.9c2,2.9,2.9,6.5,2.9,10.8c0,3.9-1.2,7.5-3.5,10.9
			s-5.7,5.9-9.9,7.6c-4.3,1.7-9.6,2.5-16,2.5c-9.3,0-16.4-2-21.4-6C537.8,119.3,534.8,113.5,533.9,105.9z"/>
		<path d="M605,60h14.9v36.8c0,5.8,0.2,9.6,0.6,11.4c0.6,2.8,2.1,5,4.5,6.7s5.7,2.5,9.8,2.5c4.2,0,7.4-0.8,9.5-2.4s3.4-3.5,3.9-5.9
			s0.7-6.2,0.7-11.5V60h14.9v35.7c0,8.2-0.4,13.9-1.2,17.3c-0.8,3.4-2.3,6.2-4.4,8.5c-2.2,2.3-5,4.2-8.7,5.5
			c-3.6,1.4-8.3,2.1-14.2,2.1c-7,0-12.4-0.8-16-2.2c-3.6-1.5-6.5-3.4-8.6-5.8s-3.5-4.9-4.2-7.5c-1-3.9-1.5-9.6-1.5-17.3V60z"/>
		<path d="M672,128v-12.4l38.6-44.1h-34.3V60h53.8v10.7l-40.3,45.9h41.9v11.5H672V128z"/>
		<path d="M740,60h14.9v36.8c0,5.8,0.2,9.6,0.6,11.4c0.6,2.8,2.1,5,4.5,6.7s5.7,2.5,9.8,2.5c4.2,0,7.4-0.8,9.5-2.4s3.4-3.5,3.9-5.9
			s0.7-6.2,0.7-11.5V60h14.9v35.7c0,8.2-0.4,13.9-1.2,17.3c-0.8,3.4-2.3,6.2-4.4,8.5c-2.2,2.3-5,4.2-8.7,5.5
			c-3.6,1.4-8.3,2.1-14.2,2.1c-7,0-12.4-0.8-16-2.2c-3.6-1.5-6.5-3.4-8.6-5.8s-3.5-4.9-4.2-7.5c-1-3.9-1.5-9.6-1.5-17.3V60z"/>
		<path d="M840.8,60h27.1c6.1,0,10.8,0.4,14,1.3c4.3,1.2,8,3.3,11.1,6.3s5.4,6.7,7,11s2.4,9.7,2.4,16.1c0,5.6-0.8,10.4-2.3,14.5
			c-1.8,4.9-4.5,9-7.9,12c-2.6,2.3-6.1,4.1-10.4,5.4c-3.3,1-7.7,1.4-13.1,1.4h-28V60H840.8z M855.6,71.5v45h11.1
			c4.1,0,7.1-0.2,9-0.7c2.4-0.6,4.4-1.5,6-2.8s2.9-3.5,3.9-6.6c1-3,1.5-7.2,1.5-12.5s-0.5-9.3-1.5-12.1c-1-2.8-2.4-5-4.2-6.6
			s-4.1-2.6-6.9-3.2c-2.1-0.4-6.1-0.6-12.2-0.6L855.6,71.5L855.6,71.5z"/>
		<path d="M912.3,109.8v-13H940v13H912.3z"/>
		<path d="M947,128V60h22.2l13.3,46.4L995.7,60h22.3v68h-13.8V74.5L989.6,128h-14.3l-14.6-53.5V128H947z"/>
		<path d="M1098.1,128H1082l-6.4-15.4h-29.4l-6.1,15.4h-15.8l28.7-68h15.7L1098.1,128z M1070.8,101.1l-10.1-25.2l-9.9,25.2H1070.8z"
			/>
		<path d="M1097.5,128l25.1-35.5L1099.8,60h17.4l14.8,21.8l14.5-21.8h17.2l-22.9,33l25.1,35H1148l-16.3-23.5l-16.4,23.5H1097.5z"/>
		<path d="M1200.1,128V60h14.9v26.8h29.1V60h14.9v68h-15V98.2h-29.1v29.7L1200.1,128L1200.1,128z"/>
		<path d="M1272.8,128V60h14.9v68H1272.8z"/>
		<path d="M1299,109.8v-13h27.7v13H1299z"/>
		<path d="M1334.3,128V60.5h14.9v56h36.9V128H1334.3z"/>
		<path d="M1462,128h-16.2l-6.4-15.4H1410l-6.1,15.4h-15.8l28.7-68h15.7L1462,128z M1434.7,101.1l-10.1-25.2l-9.9,25.2H1434.7z"/>
		<path d="M1469,128V60h14.5l30.1,45.4V60h13.8v68h-14.9l-29.7-44.3V128H1469z"/>
		<path d="M1542,60h27.1c6.1,0,10.8,0.4,14,1.3c4.3,1.2,8,3.3,11.1,6.3s5.4,6.7,7,11s2.4,9.7,2.4,16.1c0,5.6-0.8,10.4-2.3,14.5
			c-1.8,4.9-4.5,9-7.9,12c-2.6,2.3-6.1,4.1-10.4,5.4c-3.3,1-7.7,1.4-13.1,1.4h-28V60H1542z M1556.9,71.5v45h11.1
			c4.1,0,7.1-0.2,9-0.7c2.4-0.6,4.4-1.5,6-2.8s2.9-3.5,3.9-6.6c1-3,1.5-7.2,1.5-12.5s-0.5-9.3-1.5-12.1c-1-2.8-2.4-5-4.2-6.6
			c-1.8-1.6-4.1-2.6-6.9-3.2c-2.1-0.4-6.1-0.6-12.2-0.6L1556.9,71.5L1556.9,71.5z"/>
		<path d="M1615.3,128V60h54.5v11.5h-39.7v15.1h36.9v11.5h-36.9v18.5h41.1v11.5L1615.3,128L1615.3,128z"/>
		<path d="M1682.8,128V60h31.3c7.9,0,13.6,0.6,17.1,1.8c3.6,1.2,6.4,3.4,8.6,6.5c2.1,3.1,3.2,6.7,3.2,10.7c0,5.1-1.6,9.3-4.9,12.6
			c-3.2,3.3-8.1,5.4-14.6,6.3c3.2,1.7,5.9,3.6,8,5.7s4.9,5.8,8.5,11l9,13.3h-17.8l-10.7-14.8c-3.8-5.3-6.4-8.6-7.8-10
			s-2.9-2.3-4.5-2.8s-4.1-0.8-7.5-0.8h-3v28.4h-14.9V128z M1697.7,88.7h11c7.1,0,11.6-0.3,13.3-0.8c1.8-0.6,3.2-1.5,4.2-2.9
			s1.5-3.1,1.5-5.1c0-2.3-0.7-4.1-2-5.5s-3.2-2.3-5.6-2.7c-1.2-0.2-4.8-0.2-10.8-0.2h-11.6V88.7z"/>
	</g>
</g>
</svg>
