<?xml version="1.0" encoding="utf-8"?>
<!-- Generator: Adobe Illustrator 23.0.4, SVG Export Plug-In . SVG Version: 6.00 Build 0)  -->
<svg version="1.1" id="Capa_1" xmlns="http://www.w3.org/2000/svg" xmlns:xlink="http://www.w3.org/1999/xlink" x="0px" y="0px"
	 viewBox="0 0 1757.7 173.6" style="enable-background:new 0 0 1757.7 173.6;" xml:space="preserve">
<style type="text/css">
	.st0{fill:none;}
</style>
<g>
	<g>
		<path class="st0" d="M6.5,106.2c0-1.3,0.2-2.4,0.6-3.4c0.4-0.9,1-1.7,1.7-2.2c0.7-0.6,1.6-1,2.6-1.2c1-0.3,2-0.4,3.1-0.4
			s2.1,0.1,3,0.4c1,0.3,1.8,0.7,2.5,1.2c0.7,0.6,1.3,1.3,1.7,2.2c0.4,0.9,0.6,2,0.6,3.4c0,1.3-0.2,2.3-0.6,3.2
			c-0.4,0.9-1,1.6-1.7,2.2s-1.6,1-2.5,1.3c-1,0.3-2,0.4-3,0.4c-1.1,0-2.2-0.1-3.1-0.4c-1-0.3-1.8-0.7-2.6-1.3
			c-0.7-0.6-1.3-1.3-1.7-2.2S6.5,107.4,6.5,106.2z"/>
		<path class="st0" d="M33.1,106.2c0-1.3,0.2-2.4,0.6-3.4c0.4-0.9,1-1.7,1.7-2.2c0.7-0.6,1.6-1,2.6-1.2c1-0.3,2-0.4,3.1-0.4
			s2.1,0.1,3,0.4c1,0.3,1.8,0.7,2.5,1.2c0.7,0.6,1.3,1.3,1.7,2.2c0.4,0.9,0.6,2,0.6,3.4c0,1.3-0.2,2.3-0.6,3.2
			c-0.4,0.9-1,1.6-1.7,2.2s-1.6,1-2.5,1.3c-1,0.3-2,0.4-3,0.4c-1.1,0-2.2-0.1-3.1-0.4c-1-0.3-1.8-0.7-2.6-1.3
			c-0.7-0.6-1.3-1.3-1.7-2.2C33.3,108.5,33.1,107.4,33.1,106.2z"/>
		<path class="st0" d="M59.8,106.2c0-1.3,0.2-2.4,0.6-3.4c0.4-0.9,1-1.7,1.7-2.2c0.7-0.6,1.6-1,2.6-1.2c1-0.3,2-0.4,3.1-0.4
			s2.1,0.1,3,0.4c1,0.3,1.8,0.7,2.5,1.2c0.7,0.6,1.3,1.3,1.7,2.2c0.4,0.9,0.6,2,0.6,3.4c0,1.3-0.2,2.3-0.6,3.2
			c-0.4,0.9-1,1.6-1.7,2.2s-1.6,1-2.5,1.3c-1,0.3-2,0.4-3,0.4c-1.1,0-2.2-0.1-3.1-0.4c-1-0.3-1.8-0.7-2.6-1.3
			c-0.7-0.6-1.3-1.3-1.7-2.2C60,108.5,59.8,107.4,59.8,106.2z"/>
		<path class="st0" d="M1682,106.2c0-1.3,0.2-2.4,0.6-3.4c0.4-0.9,1-1.7,1.7-2.2c0.7-0.6,1.6-1,2.6-1.2c1-0.3,2-0.4,3.1-0.4
			s2.1,0.1,3,0.4s1.8,0.7,2.5,1.2c0.7,0.6,1.3,1.3,1.7,2.2c0.4,0.9,0.6,2,0.6,3.4c0,1.3-0.2,2.3-0.6,3.2c-0.4,0.9-1,1.6-1.7,2.2
			s-1.6,1-2.5,1.3c-1,0.3-2,0.4-3,0.4c-1.1,0-2.2-0.1-3.1-0.4c-1-0.3-1.8-0.7-2.6-1.3c-0.7-0.6-1.3-1.3-1.7-2.2
			C1682.2,108.5,1682,107.4,1682,106.2z"/>
		<path class="st0" d="M1708.6,106.2c0-1.3,0.2-2.4,0.6-3.4c0.4-0.9,1-1.7,1.7-2.2c0.7-0.6,1.6-1,2.6-1.2c1-0.3,2-0.4,3.1-0.4
			s2.1,0.1,3,0.4s1.8,0.7,2.5,1.2c0.7,0.6,1.3,1.3,1.7,2.2c0.4,0.9,0.6,2,0.6,3.4c0,1.3-0.2,2.3-0.6,3.2c-0.4,0.9-1,1.6-1.7,2.2
			s-1.6,1-2.5,1.3c-1,0.3-2,0.4-3,0.4c-1.1,0-2.2-0.1-3.1-0.4c-1-0.3-1.8-0.7-2.6-1.3c-0.7-0.6-1.3-1.3-1.7-2.2
			S1708.6,107.4,1708.6,106.2z"/>
		<path class="st0" d="M1735.2,106.2c0-1.3,0.2-2.4,0.6-3.4c0.4-0.9,1-1.7,1.7-2.2c0.7-0.6,1.6-1,2.6-1.2c1-0.3,2-0.4,3.1-0.4
			s2.1,0.1,3,0.4s1.8,0.7,2.5,1.2c0.7,0.6,1.3,1.3,1.7,2.2c0.4,0.9,0.6,2,0.6,3.4c0,1.3-0.2,2.3-0.6,3.2c-0.4,0.9-1,1.6-1.7,2.2
			s-1.6,1-2.5,1.3c-1,0.3-2,0.4-3,0.4c-1.1,0-2.2-0.1-3.1-0.4c-1-0.3-1.8-0.7-2.6-1.3c-0.7-0.6-1.3-1.3-1.7-2.2
			C1735.5,108.5,1735.2,107.4,1735.2,106.2z"/>
	</g>
	<g>
		<path d="M187.5,132.7h-16.2l-6.4-15.4h-29.4l-6.1,15.4h-15.8l28.7-68H158L187.5,132.7z M160.1,105.8L150,80.5l-9.9,25.2h20V105.8z
			"/>
		<path d="M195.8,132.7V65.2h14.9v56h36.9v11.5H195.8z"/>
		<path d="M258.5,132.7V65.2h14.9v56h36.9v11.5H258.5z"/>
		<path d="M319.2,114.5v-13h27.7v13H319.2z"/>
		<path d="M355.3,132.7v-68h14.5l30.1,45.4V64.7h13.8v68h-14.9l-29.7-44.3v44.3H355.3z"/>
		<path d="M429.4,132.7v-68h54.5v11.5h-39.7v15.1h36.9v11.5h-36.9v18.5h41.1v11.5L429.4,132.7L429.4,132.7z"/>
		<path d="M508.3,132.7l-17.6-68H506l11.1,46.7l13.4-46.7h17.7l12.9,47.5l11.3-47.5h15l-17.9,68h-15.8L539,81.9l-14.6,50.8H508.3z"
			/>
		<path d="M623,132.7v-68h14.9v68H623z"/>
		<path d="M648.3,110.6l14.5-1.3c0.9,4.5,2.6,7.8,5.3,9.9s6.2,3.2,10.8,3.2c4.8,0,8.4-0.9,10.8-2.8c2.4-1.9,3.6-4.1,3.6-6.6
			c0-1.6-0.5-3-1.5-4.1s-2.8-2.1-5.3-2.9c-1.7-0.6-5.7-1.5-11.9-3c-8-1.8-13.5-4.1-16.8-6.7c-4.5-3.7-6.8-8.3-6.8-13.7
			c0-3.5,1.1-6.7,3.2-9.7c2.1-3,5.2-5.3,9.2-6.9s8.8-2.4,14.5-2.4c9.2,0,16.2,1.9,20.9,5.6s7.1,8.7,7.4,15l-14.9,0.6
			c-0.6-3.5-2-6-4.1-7.5S682,75,677.8,75c-4.3,0-7.7,0.8-10.1,2.5c-1.6,1.1-2.4,2.5-2.4,4.2c0,1.6,0.7,3,2.2,4.1
			c1.9,1.5,6.4,3,13.6,4.5c7.2,1.6,12.6,3.2,16,4.9c3.5,1.7,6.2,4,8.1,6.9c2,2.9,2.9,6.5,2.9,10.8c0,3.9-1.2,7.5-3.5,10.9
			s-5.7,5.9-9.9,7.6c-4.3,1.7-9.6,2.5-16,2.5c-9.3,0-16.4-2-21.4-6C652.2,124,649.2,118.2,648.3,110.6z"/>
		<path d="M720.5,64.7h14.9v36.8c0,5.8,0.2,9.6,0.6,11.4c0.6,2.8,2.1,5,4.5,6.7s5.7,2.5,9.8,2.5c4.2,0,7.4-0.8,9.5-2.4
			s3.4-3.5,3.9-5.9s0.7-6.2,0.7-11.5V64.7h14.9v35.7c0,8.2-0.4,13.9-1.2,17.3s-2.3,6.2-4.4,8.5c-2.2,2.3-5,4.2-8.7,5.5
			c-3.6,1.4-8.3,2.1-14.2,2.1c-7,0-12.4-0.8-16-2.2c-3.6-1.5-6.5-3.4-8.6-5.8c-2.1-2.4-3.5-4.9-4.2-7.5c-1-3.9-1.5-9.6-1.5-17.3
			V64.7z"/>
		<path d="M788.4,132.7v-12.4L827,76.2h-34.3V64.7h53.8v10.7l-40.3,45.9h41.9v11.5L788.4,132.7L788.4,132.7z"/>
		<path d="M857.5,64.7h14.9v36.8c0,5.8,0.2,9.6,0.6,11.4c0.6,2.8,2.1,5,4.5,6.7s5.7,2.5,9.8,2.5c4.2,0,7.4-0.8,9.5-2.4
			s3.4-3.5,3.9-5.9s0.7-6.2,0.7-11.5V64.7h14.9v35.7c0,8.2-0.4,13.9-1.2,17.3s-2.3,6.2-4.4,8.5c-2.2,2.3-5,4.2-8.7,5.5
			c-3.6,1.4-8.3,2.1-14.2,2.1c-7,0-12.4-0.8-16-2.2c-3.6-1.5-6.5-3.4-8.6-5.8c-2.1-2.4-3.5-4.9-4.2-7.5c-1-3.9-1.5-9.6-1.5-17.3
			V64.7z"/>
		<path d="M979.1,132.7l-26.3-68h16.1l18.6,50.3l18-50.3h15.8l-26.3,68H979.1z"/>
		<path d="M1021.5,114.5v-13h27.7v13H1021.5z"/>
		<path d="M1104.5,107.7l14.4,4.2c-2.2,7.4-5.9,12.9-11,16.5c-5.1,3.6-11.7,5.4-19.5,5.4c-9.8,0-17.8-3.1-24.1-9.3
			c-6.3-6.2-9.4-14.6-9.4-25.3c0-11.3,3.2-20.1,9.5-26.4s14.6-9.4,24.9-9.4c9,0,16.3,2.5,21.9,7.4c3.3,2.9,5.9,7.1,7.5,12.5
			l-14.7,3.2c-0.9-3.5-2.7-6.3-5.4-8.3c-2.8-2-6.1-3.1-10.1-3.1c-5.5,0-9.9,1.8-13.3,5.4s-5.1,9.5-5.1,17.6c0,8.6,1.7,14.7,5,18.4
			c3.3,3.6,7.7,5.5,13,5.5c3.9,0,7.3-1.2,10.2-3.5C1101.2,116.3,1103.3,112.7,1104.5,107.7z"/>
		<path d="M1131.7,132.7v-68h31.3c7.9,0,13.6,0.6,17.1,1.8c3.6,1.2,6.4,3.4,8.6,6.5c2.1,3.1,3.2,6.7,3.2,10.7
			c0,5.1-1.6,9.3-4.9,12.6c-3.2,3.3-8.1,5.4-14.6,6.3c3.2,1.7,5.9,3.6,8,5.7s4.9,5.8,8.5,11l9,13.3h-17.8l-10.7-14.8
			c-3.8-5.3-6.4-8.6-7.8-10s-2.9-2.3-4.5-2.8s-4.1-0.8-7.5-0.8h-3v28.4h-14.9V132.7z M1146.6,93.4h11c7.1,0,11.6-0.3,13.3-0.8
			c1.8-0.6,3.2-1.5,4.2-2.9s1.5-3.1,1.5-5.1c0-2.3-0.7-4.1-2-5.5s-3.2-2.3-5.6-2.7c-1.2-0.2-4.8-0.2-10.8-0.2h-11.6V93.4z"/>
		<path d="M1202.9,99.1c0-6.9,1.1-12.7,3.4-17.4c1.7-3.5,4-6.6,6.9-9.3c2.9-2.8,6.1-4.8,9.5-6.1c4.6-1.8,9.9-2.7,15.9-2.7
			c10.8,0,19.5,3.1,26,9.3s9.8,14.9,9.8,25.9s-3.2,19.6-9.7,25.8s-15.1,9.3-25.9,9.3c-10.9,0-19.6-3.1-26.1-9.3
			C1206.1,118.4,1202.9,109.9,1202.9,99.1z M1218.2,98.6c0,7.7,1.9,13.5,5.8,17.5c3.8,4,8.7,6,14.7,6c5.9,0,10.8-2,14.6-5.9
			c3.8-3.9,5.7-9.9,5.7-17.7s-1.8-13.6-5.5-17.4s-8.6-5.8-14.7-5.8s-11.1,1.9-14.8,5.8C1220.1,85,1218.2,90.8,1218.2,98.6z"/>
		<path d="M1282.1,110.6l14.5-1.3c0.9,4.5,2.6,7.8,5.3,9.9c2.7,2.1,6.2,3.2,10.8,3.2c4.8,0,8.4-0.9,10.8-2.8s3.6-4.1,3.6-6.6
			c0-1.6-0.5-3-1.5-4.1s-2.8-2.1-5.3-2.9c-1.7-0.6-5.7-1.5-11.9-3c-8-1.8-13.5-4.1-16.8-6.7c-4.5-3.7-6.8-8.3-6.8-13.7
			c0-3.5,1.1-6.7,3.2-9.7s5.2-5.3,9.2-6.9s8.8-2.4,14.5-2.4c9.2,0,16.2,1.9,20.9,5.6c4.7,3.7,7.1,8.7,7.4,15l-14.9,0.6
			c-0.6-3.5-2-6-4.1-7.5s-5.2-2.3-9.4-2.3c-4.3,0-7.7,0.8-10.1,2.5c-1.6,1.1-2.4,2.5-2.4,4.2c0,1.6,0.7,3,2.2,4.1
			c1.9,1.5,6.4,3,13.6,4.5c7.2,1.6,12.6,3.2,16,4.9c3.5,1.7,6.2,4,8.1,6.9c2,2.9,2.9,6.5,2.9,10.8c0,3.9-1.2,7.5-3.5,10.9
			s-5.7,5.9-9.9,7.6c-4.3,1.7-9.6,2.5-16,2.5c-9.3,0-16.4-2-21.4-6C1286,124,1283,118.2,1282.1,110.6z"/>
		<path d="M1350.6,110.6l14.5-1.3c0.9,4.5,2.6,7.8,5.3,9.9c2.7,2.1,6.2,3.2,10.8,3.2c4.8,0,8.4-0.9,10.8-2.8s3.6-4.1,3.6-6.6
			c0-1.6-0.5-3-1.5-4.1s-2.8-2.1-5.3-2.9c-1.7-0.6-5.7-1.5-11.9-3c-8-1.8-13.5-4.1-16.8-6.7c-4.5-3.7-6.8-8.3-6.8-13.7
			c0-3.5,1.1-6.7,3.2-9.7s5.2-5.3,9.2-6.9s8.8-2.4,14.5-2.4c9.2,0,16.2,1.9,20.9,5.6c4.7,3.7,7.1,8.7,7.4,15l-14.9,0.6
			c-0.6-3.5-2-6-4.1-7.5s-5.2-2.3-9.4-2.3c-4.3,0-7.7,0.8-10.1,2.5c-1.6,1.1-2.4,2.5-2.4,4.2c0,1.6,0.7,3,2.2,4.1
			c1.9,1.5,6.4,3,13.6,4.5c7.2,1.6,12.6,3.2,16,4.9c3.5,1.7,6.2,4,8.1,6.9c2,2.9,2.9,6.5,2.9,10.8c0,3.9-1.2,7.5-3.5,10.9
			s-5.7,5.9-9.9,7.6c-4.3,1.7-9.6,2.5-16,2.5c-9.3,0-16.4-2-21.4-6C1354.6,124,1351.6,118.2,1350.6,110.6z"/>
		<path d="M1476,132.7V119h-30.1v-11.4l31.9-43.2h11.8v43.1h9.1V119h-9.1v13.7H1476z M1476,107.5V84.3l-16.9,23.2H1476z"/>
		<path d="M1501.2,132.7l25.1-35.5l-22.8-32.5h17.4l14.8,21.8l14.5-21.8h17.2l-22.9,33l25.1,35h-17.9l-16.3-23.5l-16.4,23.5H1501.2z
			"/>
		<path d="M1601.7,132.7V119h-30.1v-11.4l31.9-43.2h11.8v43.1h9.1V119h-9.1v13.7H1601.7z M1601.7,107.5V84.3l-16.9,23.2H1601.7z"/>
	</g>
</g>
</svg>
