<?xml version="1.0" encoding="utf-8"?>
<!-- Generator: Adobe Illustrator 23.0.4, SVG Export Plug-In . SVG Version: 6.00 Build 0)  -->
<svg version="1.1" id="Capa_1" xmlns="http://www.w3.org/2000/svg" xmlns:xlink="http://www.w3.org/1999/xlink" x="0px" y="0px"
	 viewBox="0 0 1757.7 173.6" style="enable-background:new 0 0 1757.7 173.6;" xml:space="preserve">
<style type="text/css">
	.st0{fill:none;}
</style>
<path class="st0" d="M6.5,106.2c0-1.3,0.2-2.4,0.6-3.4c0.4-0.9,1-1.7,1.7-2.2c0.7-0.6,1.6-1,2.6-1.2c1-0.3,2-0.4,3.1-0.4
	s2.1,0.1,3,0.4c1,0.3,1.8,0.7,2.5,1.2c0.7,0.6,1.3,1.3,1.7,2.2c0.4,0.9,0.6,2,0.6,3.4c0,1.3-0.2,2.3-0.6,3.2c-0.4,0.9-1,1.6-1.7,2.2
	s-1.6,1-2.5,1.3c-1,0.3-2,0.4-3,0.4c-1.1,0-2.2-0.1-3.1-0.4c-1-0.3-1.8-0.7-2.6-1.3c-0.7-0.6-1.3-1.3-1.7-2.2S6.5,107.4,6.5,106.2z"
	/>
<path class="st0" d="M33.1,106.2c0-1.3,0.2-2.4,0.6-3.4c0.4-0.9,1-1.7,1.7-2.2c0.7-0.6,1.6-1,2.6-1.2c1-0.3,2-0.4,3.1-0.4
	s2.1,0.1,3,0.4c1,0.3,1.8,0.7,2.5,1.2c0.7,0.6,1.3,1.3,1.7,2.2c0.4,0.9,0.6,2,0.6,3.4c0,1.3-0.2,2.3-0.6,3.2c-0.4,0.9-1,1.6-1.7,2.2
	s-1.6,1-2.5,1.3c-1,0.3-2,0.4-3,0.4c-1.1,0-2.2-0.1-3.1-0.4c-1-0.3-1.8-0.7-2.6-1.3c-0.7-0.6-1.3-1.3-1.7-2.2
	C33.3,108.5,33.1,107.4,33.1,106.2z"/>
<path class="st0" d="M59.8,106.2c0-1.3,0.2-2.4,0.6-3.4c0.4-0.9,1-1.7,1.7-2.2c0.7-0.6,1.6-1,2.6-1.2c1-0.3,2-0.4,3.1-0.4
	s2.1,0.1,3,0.4c1,0.3,1.8,0.7,2.5,1.2c0.7,0.6,1.3,1.3,1.7,2.2c0.4,0.9,0.6,2,0.6,3.4c0,1.3-0.2,2.3-0.6,3.2c-0.4,0.9-1,1.6-1.7,2.2
	s-1.6,1-2.5,1.3c-1,0.3-2,0.4-3,0.4c-1.1,0-2.2-0.1-3.1-0.4c-1-0.3-1.8-0.7-2.6-1.3c-0.7-0.6-1.3-1.3-1.7-2.2
	C60,108.5,59.8,107.4,59.8,106.2z"/>
<path class="st0" d="M1682,106.2c0-1.3,0.2-2.4,0.6-3.4c0.4-0.9,1-1.7,1.7-2.2c0.7-0.6,1.6-1,2.6-1.2c1-0.3,2-0.4,3.1-0.4
	s2.1,0.1,3,0.4s1.8,0.7,2.5,1.2c0.7,0.6,1.3,1.3,1.7,2.2c0.4,0.9,0.6,2,0.6,3.4c0,1.3-0.2,2.3-0.6,3.2c-0.4,0.9-1,1.6-1.7,2.2
	s-1.6,1-2.5,1.3c-1,0.3-2,0.4-3,0.4c-1.1,0-2.2-0.1-3.1-0.4c-1-0.3-1.8-0.7-2.6-1.3c-0.7-0.6-1.3-1.3-1.7-2.2
	C1682.2,108.5,1682,107.4,1682,106.2z"/>
<path class="st0" d="M1708.6,106.2c0-1.3,0.2-2.4,0.6-3.4c0.4-0.9,1-1.7,1.7-2.2c0.7-0.6,1.6-1,2.6-1.2c1-0.3,2-0.4,3.1-0.4
	s2.1,0.1,3,0.4s1.8,0.7,2.5,1.2c0.7,0.6,1.3,1.3,1.7,2.2c0.4,0.9,0.6,2,0.6,3.4c0,1.3-0.2,2.3-0.6,3.2c-0.4,0.9-1,1.6-1.7,2.2
	s-1.6,1-2.5,1.3c-1,0.3-2,0.4-3,0.4c-1.1,0-2.2-0.1-3.1-0.4c-1-0.3-1.8-0.7-2.6-1.3c-0.7-0.6-1.3-1.3-1.7-2.2
	S1708.6,107.4,1708.6,106.2z"/>
<path class="st0" d="M1735.2,106.2c0-1.3,0.2-2.4,0.6-3.4c0.4-0.9,1-1.7,1.7-2.2c0.7-0.6,1.6-1,2.6-1.2c1-0.3,2-0.4,3.1-0.4
	s2.1,0.1,3,0.4s1.8,0.7,2.5,1.2c0.7,0.6,1.3,1.3,1.7,2.2c0.4,0.9,0.6,2,0.6,3.4c0,1.3-0.2,2.3-0.6,3.2c-0.4,0.9-1,1.6-1.7,2.2
	s-1.6,1-2.5,1.3c-1,0.3-2,0.4-3,0.4c-1.1,0-2.2-0.1-3.1-0.4c-1-0.3-1.8-0.7-2.6-1.3c-0.7-0.6-1.3-1.3-1.7-2.2
	C1735.5,108.5,1735.2,107.4,1735.2,106.2z"/>
<g>
	<path d="M201.1,130.7h-16.2l-6.4-15.4h-29.4l-6.1,15.4h-15.8l28.7-68h15.7L201.1,130.7z M173.7,103.8l-10.1-25.2l-9.9,25.2H173.7z"
		/>
	<path d="M208.3,130.7V63.2h14.9v56h36.9v11.5H208.3z"/>
	<path d="M270.1,130.7V63.2H285v56h36.9v11.5H270.1z"/>
	<path d="M329.7,112.5v-13h27.7v13H329.7z"/>
	<path d="M364.8,130.7v-68h14.5l30.1,45.4V62.7h13.8v68h-14.9l-29.7-44.3v44.3H364.8z"/>
	<path d="M437.8,130.7v-68h54.5v11.5h-39.7v15.1h36.9v11.5h-36.9v18.5h41.1v11.5L437.8,130.7L437.8,130.7z"/>
	<path d="M515.8,130.7l-17.6-68h15.2l11.1,46.7L538,62.7h17.7l12.9,47.5l11.3-47.5h15l-17.9,68h-15.8l-14.7-50.8l-14.6,50.8H515.8z"
		/>
	<path d="M628.4,130.7v-68h14.9v68H628.4z"/>
	<path d="M652.6,108.6l14.5-1.3c0.9,4.5,2.6,7.8,5.3,9.9s6.2,3.2,10.8,3.2c4.8,0,8.4-0.9,10.8-2.8c2.4-1.9,3.6-4.1,3.6-6.6
		c0-1.6-0.5-3-1.5-4.1s-2.8-2.1-5.3-2.9c-1.7-0.6-5.7-1.5-11.9-3c-8-1.8-13.5-4.1-16.8-6.7c-4.5-3.7-6.8-8.3-6.8-13.7
		c0-3.5,1.1-6.7,3.2-9.7c2.1-3,5.2-5.3,9.2-6.9s8.8-2.4,14.5-2.4c9.2,0,16.2,1.9,20.9,5.6s7.1,8.7,7.4,15l-14.9,0.6
		c-0.6-3.5-2-6-4.1-7.5s-5.2-2.3-9.4-2.3c-4.3,0-7.7,0.8-10.1,2.5c-1.6,1.1-2.4,2.5-2.4,4.2c0,1.6,0.7,3,2.2,4.1
		c1.9,1.5,6.4,3,13.6,4.5c7.2,1.6,12.6,3.2,16,4.9c3.5,1.7,6.2,4,8.1,6.9c2,2.9,2.9,6.5,2.9,10.8c0,3.9-1.2,7.5-3.5,10.9
		s-5.7,5.9-9.9,7.6c-4.3,1.7-9.6,2.5-16,2.5c-9.3,0-16.4-2-21.4-6C656.6,122,653.6,116.2,652.6,108.6z"/>
	<path d="M723.8,62.7h14.9v36.8c0,5.8,0.2,9.6,0.6,11.4c0.6,2.8,2.1,5,4.5,6.7s5.7,2.5,9.8,2.5c4.2,0,7.4-0.8,9.5-2.4
		s3.4-3.5,3.9-5.9s0.7-6.2,0.7-11.5V62.7h14.9v35.7c0,8.2-0.4,13.9-1.2,17.3c-0.8,3.4-2.3,6.2-4.4,8.5c-2.2,2.3-5,4.2-8.7,5.5
		c-3.6,1.4-8.3,2.1-14.2,2.1c-7,0-12.4-0.8-16-2.2c-3.6-1.5-6.5-3.4-8.6-5.8s-3.5-4.9-4.2-7.5c-1-3.9-1.5-9.6-1.5-17.3V62.7z"/>
	<path d="M790.7,130.7v-12.4l38.6-44.1H795V62.7h53.8v10.7l-40.3,45.9h41.9v11.5h-59.7V130.7z"/>
	<path d="M858.7,62.7h14.9v36.8c0,5.8,0.2,9.6,0.6,11.4c0.6,2.8,2.1,5,4.5,6.7s5.7,2.5,9.8,2.5c4.2,0,7.4-0.8,9.5-2.4
		s3.4-3.5,3.9-5.9s0.7-6.2,0.7-11.5V62.7h14.9v35.7c0,8.2-0.4,13.9-1.2,17.3c-0.8,3.4-2.3,6.2-4.4,8.5c-2.2,2.3-5,4.2-8.7,5.5
		c-3.6,1.4-8.3,2.1-14.2,2.1c-7,0-12.4-0.8-16-2.2c-3.6-1.5-6.5-3.4-8.6-5.8s-3.5-4.9-4.2-7.5c-1-3.9-1.5-9.6-1.5-17.3V62.7z"/>
	<path d="M959.5,62.7h27.1c6.1,0,10.8,0.4,14,1.3c4.3,1.2,8,3.3,11.1,6.3s5.4,6.7,7,11s2.4,9.7,2.4,16.1c0,5.6-0.8,10.4-2.3,14.5
		c-1.8,4.9-4.5,9-7.9,12c-2.6,2.3-6.1,4.1-10.4,5.4c-3.3,1-7.7,1.4-13.1,1.4h-28v-68H959.5z M974.4,74.2v45h11.1
		c4.1,0,7.1-0.2,9-0.7c2.4-0.6,4.4-1.5,6-2.8s2.9-3.5,3.9-6.6c1-3,1.5-7.2,1.5-12.5s-0.5-9.3-1.5-12.1c-1-2.8-2.4-5-4.2-6.6
		s-4.1-2.6-6.9-3.2c-2.1-0.4-6.1-0.6-12.2-0.6L974.4,74.2L974.4,74.2z"/>
	<path d="M1031,112.5v-13h27.7v13H1031z"/>
	<path d="M1065.7,130.7v-68h22.2l13.3,46.4l13.2-46.4h22.3v68H1123V77.2l-14.6,53.5h-14.3l-14.6-53.5v53.5H1065.7z"/>
	<path d="M1216.9,130.7h-16.2l-6.4-15.4h-29.4l-6.1,15.4H1143l28.7-68h15.7L1216.9,130.7z M1189.5,103.8l-10.1-25.2l-9.9,25.2
		H1189.5z"/>
	<path d="M1216.2,130.7l25.1-35.5l-22.8-32.5h17.4l14.8,21.8l14.5-21.8h17.2l-22.9,33l25.1,35h-17.9l-16.3-23.5l-16.4,23.5H1216.2z"
		/>
	<path d="M1365.8,105.7l14.4,4.2c-2.2,7.4-5.9,12.9-11,16.5c-5.1,3.6-11.7,5.4-19.5,5.4c-9.8,0-17.8-3.1-24.1-9.3
		c-6.3-6.2-9.4-14.6-9.4-25.3c0-11.3,3.2-20.1,9.5-26.4s14.6-9.4,24.9-9.4c9,0,16.3,2.5,21.9,7.4c3.3,2.9,5.9,7.1,7.5,12.5
		l-14.7,3.2c-0.9-3.5-2.7-6.3-5.4-8.3c-2.8-2-6.1-3.1-10.1-3.1c-5.5,0-9.9,1.8-13.3,5.4s-5.1,9.5-5.1,17.6c0,8.6,1.7,14.7,5,18.4
		c3.3,3.6,7.7,5.5,13,5.5c3.9,0,7.3-1.2,10.2-3.5C1362.6,114.3,1364.6,110.7,1365.8,105.7z"/>
	<path d="M1458.3,130.7h-16.2l-6.4-15.4h-29.4l-6.1,15.4h-15.8l28.7-68h15.7L1458.3,130.7z M1431,103.8l-10.1-25.2l-9.9,25.2H1431z"
		/>
	<path d="M1465.2,62.7h29.4c5.8,0,10.2,0.2,13,0.7s5.4,1.4,7.7,2.8c2.3,1.4,4.1,3.3,5.6,5.7c1.5,2.4,2.3,5,2.3,8
		c0,3.2-0.9,6.1-2.8,8.8c-1.9,2.7-4.4,4.7-7.6,6c4.5,1.2,7.9,3.3,10.3,6.2c2.4,2.9,3.6,6.3,3.6,10.3c0,3.1-0.8,6.1-2.3,9
		c-1.6,2.9-3.7,5.3-6.4,7c-2.7,1.7-6,2.8-10,3.2c-2.5,0.2-8.4,0.4-17.9,0.5h-25V62.7H1465.2z M1480.1,74v15.7h9.7
		c5.8,0,9.4-0.1,10.8-0.2c2.5-0.3,4.5-1.1,6-2.4s2.2-3.1,2.2-5.3c0-2.1-0.6-3.8-1.9-5.1c-1.3-1.3-3.1-2.1-5.6-2.4
		c-1.5-0.2-5.7-0.2-12.7-0.2L1480.1,74L1480.1,74z M1480.1,101v18.2h13.8c5.4,0,8.7-0.1,10.2-0.4c2.2-0.4,4-1.3,5.4-2.7
		c1.4-1.4,2.1-3.4,2.1-5.8c0-2-0.5-3.8-1.6-5.2c-1.1-1.4-2.6-2.5-4.6-3.1s-6.4-1-13.2-1H1480.1z"/>
	<path d="M1590.4,130.7V117h-30.1v-11.4l31.9-43.2h11.8v43.1h9.1V117h-9.1v13.7H1590.4z M1590.4,105.5V82.3l-16.9,23.2H1590.4z"/>
</g>
</svg>
