<?xml version="1.0" encoding="utf-8"?>
<!-- Generator: Adobe Illustrator 23.0.4, SVG Export Plug-In . SVG Version: 6.00 Build 0)  -->
<svg version="1.1" id="Capa_1" xmlns="http://www.w3.org/2000/svg" xmlns:xlink="http://www.w3.org/1999/xlink" x="0px" y="0px"
	 viewBox="0 0 1757.7 173.6" style="enable-background:new 0 0 1757.7 173.6;" xml:space="preserve">
<style type="text/css">
	.st0{fill:none;}
</style>
<g>
	<path class="st0" d="M6.5,86.9c0-1.3,0.2-2.4,0.6-3.4c0.4-0.9,1-1.7,1.7-2.2c0.7-0.6,1.6-1,2.6-1.2c1-0.3,2-0.4,3.1-0.4
		s2.1,0.1,3,0.4c1,0.3,1.8,0.7,2.5,1.2c0.7,0.6,1.3,1.3,1.7,2.2c0.4,0.9,0.6,2,0.6,3.4c0,1.3-0.2,2.3-0.6,3.2s-1,1.6-1.7,2.2
		c-0.7,0.6-1.6,1-2.5,1.3c-1,0.3-2,0.4-3,0.4c-1.1,0-2.2-0.1-3.1-0.4c-1-0.3-1.8-0.7-2.6-1.3c-0.7-0.6-1.3-1.3-1.7-2.2
		S6.5,88.1,6.5,86.9z"/>
	<path class="st0" d="M33.1,86.9c0-1.3,0.2-2.4,0.6-3.4c0.4-0.9,1-1.7,1.7-2.2c0.7-0.6,1.6-1,2.6-1.2c1-0.3,2-0.4,3.1-0.4
		s2.1,0.1,3,0.4c1,0.3,1.8,0.7,2.5,1.2c0.7,0.6,1.3,1.3,1.7,2.2c0.4,0.9,0.6,2,0.6,3.4c0,1.3-0.2,2.3-0.6,3.2
		c-0.4,0.9-1,1.6-1.7,2.2c-0.7,0.6-1.6,1-2.5,1.3c-1,0.3-2,0.4-3,0.4c-1.1,0-2.2-0.1-3.1-0.4c-1-0.3-1.8-0.7-2.6-1.3
		c-0.7-0.6-1.3-1.3-1.7-2.2C33.3,89.2,33.1,88.1,33.1,86.9z"/>
	<path class="st0" d="M59.8,86.9c0-1.3,0.2-2.4,0.6-3.4c0.4-0.9,1-1.7,1.7-2.2c0.7-0.6,1.6-1,2.6-1.2c1-0.3,2-0.4,3.1-0.4
		s2.1,0.1,3,0.4c1,0.3,1.8,0.7,2.5,1.2c0.7,0.6,1.3,1.3,1.7,2.2c0.4,0.9,0.6,2,0.6,3.4c0,1.3-0.2,2.3-0.6,3.2s-1,1.6-1.7,2.2
		c-0.7,0.6-1.6,1-2.5,1.3c-1,0.3-2,0.4-3,0.4c-1.1,0-2.2-0.1-3.1-0.4c-1-0.3-1.8-0.7-2.6-1.3c-0.7-0.6-1.3-1.3-1.7-2.2
		C60,89.2,59.8,88.1,59.8,86.9z"/>
	<path class="st0" d="M1682,86.9c0-1.3,0.2-2.4,0.6-3.4c0.4-0.9,1-1.7,1.7-2.2c0.7-0.6,1.6-1,2.6-1.2c1-0.3,2-0.4,3.1-0.4
		s2.1,0.1,3,0.4s1.8,0.7,2.5,1.2c0.7,0.6,1.3,1.3,1.7,2.2c0.4,0.9,0.6,2,0.6,3.4c0,1.3-0.2,2.3-0.6,3.2s-1,1.6-1.7,2.2
		c-0.7,0.6-1.6,1-2.5,1.3c-1,0.3-2,0.4-3,0.4c-1.1,0-2.2-0.1-3.1-0.4c-1-0.3-1.8-0.7-2.6-1.3c-0.7-0.6-1.3-1.3-1.7-2.2
		C1682.2,89.2,1682,88.1,1682,86.9z"/>
	<path class="st0" d="M1708.6,86.9c0-1.3,0.2-2.4,0.6-3.4c0.4-0.9,1-1.7,1.7-2.2c0.7-0.6,1.6-1,2.6-1.2c1-0.3,2-0.4,3.1-0.4
		s2.1,0.1,3,0.4s1.8,0.7,2.5,1.2c0.7,0.6,1.3,1.3,1.7,2.2c0.4,0.9,0.6,2,0.6,3.4c0,1.3-0.2,2.3-0.6,3.2s-1,1.6-1.7,2.2
		c-0.7,0.6-1.6,1-2.5,1.3c-1,0.3-2,0.4-3,0.4c-1.1,0-2.2-0.1-3.1-0.4c-1-0.3-1.8-0.7-2.6-1.3c-0.7-0.6-1.3-1.3-1.7-2.2
		S1708.6,88.1,1708.6,86.9z"/>
	<path class="st0" d="M1735.2,86.9c0-1.3,0.2-2.4,0.6-3.4c0.4-0.9,1-1.7,1.7-2.2c0.7-0.6,1.6-1,2.6-1.2c1-0.3,2-0.4,3.1-0.4
		s2.1,0.1,3,0.4s1.8,0.7,2.5,1.2c0.7,0.6,1.3,1.3,1.7,2.2c0.4,0.9,0.6,2,0.6,3.4c0,1.3-0.2,2.3-0.6,3.2s-1,1.6-1.7,2.2
		c-0.7,0.6-1.6,1-2.5,1.3c-1,0.3-2,0.4-3,0.4c-1.1,0-2.2-0.1-3.1-0.4c-1-0.3-1.8-0.7-2.6-1.3c-0.7-0.6-1.3-1.3-1.7-2.2
		C1735.5,89.2,1735.2,88.1,1735.2,86.9z"/>
</g>
<g>
	<path d="M18.5,112.8c-2.9-2.6-4.3-7.1-4.3-13.2V77.9c0-4.3,1.4-7.4,4.1-9.3c1.9-1.3,4.8-2,8.4-2c3.4,0,5.8,0.7,7.2,2
		s2.1,3.1,2.1,5.2c0,2.4-0.5,4.3-1.4,5.5s-2.2,1.8-3.7,1.8c-1.3,0-2.5-0.2-3.4-0.5v18.8c0,4.4,0.6,7.3,1.9,8.8
		c0.7,0.8,1.6,1.2,2.6,1.2c2.8,0,4.2-2.9,4.2-8.8v-3H43v3c0,5.9,1.4,8.8,4.2,8.8c1.1,0,2-0.5,2.7-1.4c1.2-1.6,1.8-4.5,1.8-8.7V80.7
		c-1,0.3-2.1,0.5-3.4,0.5c-1.5,0-2.8-0.6-3.7-1.8c-0.9-1.2-1.4-3-1.4-5.5c0-2.1,0.7-3.8,2.1-5.2s3.8-2,7.2-2c3.7,0,6.5,0.7,8.4,2
		c0.5,0.3,0.9,0.7,1.2,1c0.7-1,1.1-2.1,1.1-3.2c0-0.5-0.1-1-0.2-1.6l5-0.3c0.2,0.7,0.2,1.5,0.2,2.1c0,2.8-1.2,5.3-3.6,7.7
		c0.2,1.1,0.4,2.2,0.4,3.5v21.6c0,6.1-1.4,10.5-4.2,13.2c-2.2,2-5.6,3-10.3,3c-5,0-8.6-1.7-10.8-5c-2.2,3.3-5.8,5-10.8,5
		C24.1,115.8,20.7,114.8,18.5,112.8z M31.6,74c0-1.8-1-2.7-3-2.7s-3,0.9-3,2.7c0,1.8,1,2.7,3,2.7S31.6,75.8,31.6,74z M50.2,76.7
		c1,0,2-0.6,3-1.7c-0.3-2.5-1.3-3.7-3-3.7s-2.5,0.9-2.5,2.7C47.7,75.8,48.5,76.7,50.2,76.7z"/>
	<path d="M51.5,125.7c-0.3,0.9-0.5,1.7-0.5,2.5c0,0.3,0,0.7,0.1,1c0.2,0.6,0.9,0.9,2,0.9c1.4,0,2.2-1.6,2.2-4.9v-6.8h7.5v7
		c0,5.5-3.2,8.3-9.6,8.3c-4.8,0-7.6-0.7-8.4-2.2c-0.5-0.9-0.7-1.7-0.7-2.4c0-0.6,0.1-1.2,0.4-1.7c-0.9,0-1.7-0.2-2.5-0.6
		c-0.9-0.4-1.5-1-1.9-1.7s-0.6-1.5-0.6-2.2c0-0.8,0.2-1.6,0.6-2.3c0.4-0.7,1.1-1.3,1.9-1.6c0.9-0.4,2.4-0.6,4.5-0.6
		c1.2,0,2.3,0.2,3.1,0.6s1.5,0.9,2,1.6s0.7,1.5,0.7,2.3C52.2,123.6,52,124.5,51.5,125.7z M43.8,121.6c-0.2,0.1-0.4,0.3-0.6,0.6
		c-0.1,0.2-0.2,0.5-0.2,0.8s0.1,0.5,0.2,0.8c0.1,0.2,0.3,0.4,0.5,0.6c0.2,0.1,0.7,0.2,1.5,0.3c0.4-0.6,0.6-1.1,0.6-1.6
		c0-0.3-0.1-0.5-0.2-0.8c-0.1-0.2-0.3-0.4-0.5-0.6c-0.2-0.1-0.4-0.2-0.7-0.2C44.2,121.4,44,121.5,43.8,121.6z"/>
	<path d="M34.8,56c-1-0.6-1.5-1.3-1.5-2.3v-0.3c0.1-1.1,0.9-1.9,2.2-2.6c1.1-0.5,2.4-0.7,3.8-0.7c0.3,0,0.6,0,1,0
		c3.7,0.1,5.9,0.6,6.6,1.5c0.6,0.8,0.9,1.7,0.9,2.8v0.3c-0.1,1.3-1.3,2.7-3.6,4.5c2.4-0.2,4.6-1,6.6-2.4s3.6-3.3,4.8-5.6l9.7,1.8
		c-1.9,2.5-3.8,4.3-5.6,5.5c-1.9,1.2-4.2,2.1-7,2.9s-7.1,1.1-13,1.1h-9.9v-2.8c4.2-0.6,7.1-1.5,8.8-2.7C37,56.8,35.7,56.5,34.8,56z
		 M41,54.8c0.2-0.4,0.3-0.7,0.3-0.9s0-0.3-0.1-0.5c-0.4-0.5-0.9-0.8-1.6-0.8h-0.4c-0.6,0.1-0.9,0.5-0.9,1.1v0.1
		c0,0.5,0.2,0.9,0.7,0.9c0.4,0.1,0.9,0.1,1.3,0.1C40.6,54.8,40.8,54.8,41,54.8z"/>
	<path d="M86.6,82.7c-0.9,0.2-2,0.3-3.1,0.3c-3.1,0-5.4-0.8-6.9-2.3c-1.3-1.3-1.9-3.3-1.9-5.8s0.6-4.5,1.9-5.8
		c1.4-1.5,3.7-2.3,6.9-2.3c6.8,0,11.2,0.8,13.1,2.5c2.2,1.8,3.3,4.7,3.3,8.6v23c0,1.5-0.1,2.9-0.4,4.2c1.8,0.1,3.6,1,5.3,2.6
		c1.8,1.3,4,2,6.7,2c3.4,0,5.1-2.5,5.1-7.5V66.7h13.3v35.4c0,9.1-5.8,13.6-17.5,13.6c-4.6,0-8.5-1.5-11.5-4.5c-1-1-2.1-1.5-3.3-1.6
		c-2.7,4.1-9.4,6.1-19.9,6.1v-6.1c3,0,5.2-0.7,6.7-2.2s2.2-3.7,2.2-6.6L86.6,82.7L86.6,82.7z M83.5,78.1c2.3,0,3.5-1.1,3.5-3.2
		s-1.2-3.2-3.5-3.2S80,72.8,80,74.9S81.2,78.1,83.5,78.1z"/>
	<path d="M112.8,44.8c1.8,0,3.5,0.3,5.1,1s2.9,1.6,3.9,2.9c0.9,1.2,1.4,2.5,1.4,3.9s-0.4,2.7-1.3,3.9s-2.2,2.2-3.8,2.9
		c-1.7,0.7-3.4,1-5.2,1c-1.8,0-3.5-0.3-5.1-1c-1.7-0.7-3-1.6-3.9-2.9s-1.4-2.5-1.4-3.9c0-1.3,0.5-2.6,1.4-3.9
		c0.9-1.2,2.2-2.2,3.9-2.9S111.1,44.8,112.8,44.8z M111.7,49.9c-0.4,0.3-0.7,0.6-0.9,1.1c-0.2,0.5-0.3,1-0.3,1.5
		c0,0.6,0.1,1.1,0.3,1.6c0.2,0.5,0.5,0.9,0.9,1.1s0.7,0.4,1.1,0.4s0.8-0.1,1.2-0.4s0.7-0.6,0.9-1.1c0.2-0.5,0.3-1,0.3-1.6
		c0-0.5-0.1-1.1-0.3-1.5c-0.2-0.5-0.5-0.9-0.9-1.1s-0.8-0.4-1.2-0.4S112.1,49.6,111.7,49.9z"/>
	<path d="M162,115.8V82.9c0-3.3-0.6-5-1.8-5.1c0,5.4-3,8.1-8.9,8.1c-5.8,0-8.8-2.7-8.8-8.1c0-7.4,4.7-11.1,14.1-11.1
		c12.5,0,18.7,5.4,18.7,16.2v32.8L162,115.8L162,115.8z M150.6,77.8c0,2.1,0.7,3.2,2.1,3.2c1.4,0,2.1-1.1,2.1-3.2c0-1.3-0.7-2-2.1-2
		S150.6,76.5,150.6,77.8z"/>
	<path d="M204,102.7c0.9-0.4,1.9-0.6,2.9-0.6c1.2,0,2.3,0.3,3.4,0.8s2,1.3,2.6,2.4c0.6,1,0.9,2.1,0.9,3.2c0,2.4-0.7,4.1-2,5.3
		c-1.4,1.3-3.5,1.9-6.3,1.9c-4.7,0-8.3-1-10.8-3c-2.6-2.1-4-5.4-4-9.8V79.5c0-4.5,1.3-7.8,4-9.9c2.4-1.9,5.9-2.9,10.5-2.9
		c2.7,0,5.6,0.4,8.6,1.3v6.1c-2.4-0.9-4.2-1.3-5.4-1.3c-1.5,0-2.6,0.5-3.3,1.5S204,77,204,79.4L204,102.7L204,102.7z M205.7,106.7
		c-0.4,0.2-0.7,0.4-0.9,0.8c-0.2,0.3-0.3,0.7-0.3,1.1s0.1,0.7,0.3,1.1c0.2,0.3,0.5,0.6,0.9,0.8c0.4,0.2,0.8,0.3,1.2,0.3
		s0.8-0.1,1.2-0.3c0.4-0.2,0.7-0.4,0.9-0.8c0.2-0.3,0.3-0.7,0.3-1.1s-0.1-0.7-0.3-1.1c-0.2-0.3-0.5-0.6-0.9-0.8
		c-0.4-0.2-0.7-0.3-1.1-0.3C206.5,106.4,206.1,106.5,205.7,106.7z M237.8,102.7c0.9-0.4,1.9-0.6,2.9-0.6c1.2,0,2.3,0.3,3.4,0.8
		c1.1,0.6,2,1.3,2.6,2.4c0.6,1,0.9,2.1,0.9,3.2c0,2.4-0.7,4.1-2,5.3c-1.4,1.3-3.5,1.9-6.3,1.9c-4.7,0-8.3-1-10.8-3
		c-2.6-2.1-4-5.4-4-9.8V79.5c0-4.5,1.3-7.8,4-9.9c2.4-1.9,5.9-2.9,10.5-2.9c2.7,0,5.6,0.4,8.6,1.3v6.1c-2.4-0.9-4.2-1.3-5.4-1.3
		c-1.5,0-2.6,0.5-3.3,1.5s-1.1,2.7-1.1,5.1L237.8,102.7L237.8,102.7z M239.5,106.7c-0.4,0.2-0.7,0.4-0.9,0.8
		c-0.2,0.3-0.3,0.7-0.3,1.1s0.1,0.7,0.3,1.1c0.2,0.3,0.5,0.6,0.9,0.8c0.4,0.2,0.8,0.3,1.2,0.3s0.8-0.1,1.2-0.3
		c0.4-0.2,0.7-0.4,0.9-0.8c0.2-0.3,0.3-0.7,0.3-1.1s-0.1-0.7-0.3-1.1c-0.2-0.3-0.5-0.6-0.9-0.8c-0.4-0.2-0.7-0.3-1.1-0.3
		C240.3,106.4,239.9,106.5,239.5,106.7z"/>
	<path d="M306.3,99.6c0,10.8-7.7,16.2-23.1,16.2s-23.1-5.2-23.1-15.5c0-5.1,1.7-9.8,5.2-14.2c1.2-1.5,2.1-2.9,2.9-4.2
		c-2.8,0-4.9-0.7-6.3-2.1c-1.2-1.2-1.8-3-1.8-5.2c0-2.5,0.6-4.4,1.9-5.7c1.4-1.4,3.4-2.1,6.3-2.1c4.6,0,7.7,0.7,9.3,2
		c1.4,1.3,2.2,3.2,2.2,5.8c0,4.2-1.1,8.6-3.2,13.2s-3.2,8.8-3.2,12.6c0,6.2,3.3,9.3,9.8,9.3s9.8-3.4,9.8-10.1V82.5h-1.2
		c-2,0-3.7-0.7-5.2-2.1s-2.2-3.3-2.2-5.8c0-2.7,1-4.7,2.9-6c2-1.3,4.5-1.9,7.7-1.9c5.9,0,9.5,2,10.8,6c3.4-4,7.1-6,11.2-6
		c5,0,8.9,1,11.7,2.9c3.3,2.2,4.9,5.8,4.9,10.8v35.4h-13.3V80.4c0-3.1-0.6-5.1-1.9-6.1s-2.7-1.4-4.4-1.4c-1.1,0-3.1,1.7-6.1,5.2
		l-1.5,2L306.3,99.6L306.3,99.6z M267.7,77.3c1.9,0,2.8-0.9,2.8-2.7c0-1.8-0.9-2.7-2.8-2.7s-2.8,0.9-2.8,2.7
		C264.9,76.3,265.8,77.3,267.7,77.3z M293,77.6v-1c0-3.4-0.6-5-1.9-5c-1.2,0-1.8,1-1.8,3s0.8,3,2.4,3
		C292.2,77.6,292.6,77.6,293,77.6z"/>
	<path d="M310.9,49.4h9v13h-9V49.4z"/>
	<path d="M372.9,128.8c-3.6,2.7-10.1,4.1-19.6,4.1c-3.4,0-6.7-0.3-10.1-0.9v-6.1c3.4,0.6,6.7,0.9,10.1,0.9c3.5,0,6.2-0.7,8.1-2.2
		c2.4-1.8,3.6-4.7,3.6-8.7v-33c0-6.2-2.2-9.6-6.5-10.4c1.6,1.3,2.4,3.1,2.4,5.2c0,5.4-3,8.1-8.9,8.1c-5.8,0-8.8-2.7-8.8-8.1
		c0-7.4,5.2-11.1,15.5-11.1c13.1,0,19.6,5.4,19.6,16.2v32.8C378.3,121.7,376.5,126.1,372.9,128.8z M348.6,77.8
		c0,2.1,1.2,3.2,3.5,3.2s3.5-1.1,3.5-3.2c0-2.2-1.2-3.2-3.5-3.2C349.7,74.5,348.6,75.6,348.6,77.8z"/>
	<path d="M403.4,115.8c-3.8-0.1-6.7-1-8.6-2.9c-2-1.8-3-4.6-3-8.3c0-4.8,1.2-8.3,3.6-10.3s6.6-3.1,12.5-3.1c3.5,0,6.4,1.3,8.7,4
		c2.3,2.7,4.1,5.7,5.5,9.2s2.5,5.2,3.5,5.2s1.4-1.1,1.4-3.2V81.6c0-5.8-4-8.7-11.9-8.7c-6.7,0-10,2.9-10,8.7h-13.3
		c0-4.9,1.9-8.6,5.7-11.1c3.8-2.5,9.6-3.7,17.3-3.7c9.3,0,15.8,1.3,19.7,3.8c3.8,2.5,5.7,6.2,5.7,11.1v24.8c0,3.2-1,5.6-3,7.2
		c-1.9,1.5-4.6,2.2-8,2.2c-3.5,0-6.2-0.6-8.1-1.7s-3.3-3.1-4.2-5.8c-0.9-2.8-2.1-4.9-3.6-6.4c-1.4-1.5-3.3-2.3-5.5-2.3
		c-2.4,0-3.8,0.8-4.1,2.4c2.9,0,5.1,0.5,6.5,1.6c1.3,1,2,2.5,2,4.4c0.1,0.5,0.1,0.9,0.1,1.4c0,1.9-0.6,3.4-1.8,4.4
		C409.1,115.1,406.7,115.7,403.4,115.8z M404.2,112.2c2.2,0,3.2-1,3.2-3s-1.1-3-3.2-3c-2.2,0-3.2,1-3.2,3S402.1,112.2,404.2,112.2z"
		/>
	<path d="M418.5,52.6c0.6,1.1,1,2.2,1,3.4s-0.3,2.3-1,3.4c-0.7,1.1-1.6,1.9-2.8,2.5c-1.2,0.6-2.4,0.9-3.6,0.9c-2.8,0-4.8-0.3-6-0.9
		s-2.1-1.4-2.7-2.5c-0.7-1.1-1-2.2-1-3.4c0-3.9,1.8-6.8,5.3-8.8c3.5-1.9,7.9-2.9,13.2-2.9c6.3,0,11.8,1.4,16.5,4.1
		c4.7,2.7,7.5,7.3,8.3,13.5h-13.3c-0.5-4.2-1.6-7.3-3.2-9.1s-3.7-2.8-6-2.8C420.6,50.1,419.1,50.9,418.5,52.6z M412.1,58.9
		c0.5,0,1-0.1,1.5-0.4c0.5-0.3,0.9-0.6,1.2-1c0.3-0.4,0.4-0.9,0.4-1.4s-0.1-0.9-0.4-1.4c-0.3-0.4-0.7-0.8-1.1-1
		c-0.5-0.2-1-0.3-1.5-0.3s-1,0.1-1.5,0.3s-0.8,0.6-1.1,1c-0.2,0.4-0.4,0.9-0.4,1.4s0.1,0.9,0.4,1.4c0.3,0.4,0.6,0.8,1.1,1
		C411.1,58.7,411.6,58.9,412.1,58.9z"/>
	<path d="M478.1,101.5c1.4,1.4,2.2,3.4,2.2,6.1s-0.7,4.7-2.2,6.1c-1.4,1.3-4.2,2-8.4,2c-4.3,0-7.6-0.7-9.9-2.2
		c-3.2-2-4.8-5.5-4.8-10.4V82.9c0-10.8,8.1-16.2,24.2-16.2s24.2,5.4,24.2,16.2v32.8H490V82.9c0-6.7-3.6-10.1-10.9-10.1
		s-10.9,3.4-10.9,10.1v17.8c1.4-0.9,3.1-1.3,4.9-1.3C474.9,99.5,476.6,100.2,478.1,101.5z M474.4,110.2c0.7-0.5,1-1.4,1-2.6
		c0-1-0.3-1.8-0.8-2.3c-0.6-0.6-1.5-0.9-2.7-0.9c-2.3,0-3.5,1.1-3.5,3.2c0,1.3,0.4,2.2,1.2,2.7c0.6,0.3,1.3,0.5,2.3,0.5
		C473,110.8,473.8,110.6,474.4,110.2z"/>
	<path d="M522.7,115.8c-3.1,0-5.4-0.8-6.9-2.3c-1.3-1.4-1.9-3.3-1.9-5.8c0-2.6,0.6-4.5,1.9-5.8c1.5-1.5,3.8-2.3,6.9-2.3
		c1.1,0,2.2,0.1,3.1,0.3V82.5h-1.2c-3.8,0-6.6-0.8-8.4-2.3c-1.5-1.3-2.3-3.2-2.3-5.6c0-2.7,0.8-4.7,2.3-6s3.7-1.9,6.6-1.9
		c9.3,0,14.6,2,15.9,6c3.4-4,8.1-6,13.9-6c5,0,8.9,1,11.7,2.9c3.3,2.2,4.9,5.8,4.9,10.8v35.4h-13.3V80.4c0-2.5-0.8-4.4-2.4-5.7
		c-1.5-1.2-3.3-1.8-5.3-1.8s-4.5,1.7-7.5,5.2l-1.5,2v24.5c0,3.9-1.1,6.8-3.3,8.6C533.9,114.9,529.5,115.8,522.7,115.8z M525.8,77.6
		v-1c0-3.4-1.1-5-3.3-5s-3.2,1-3.2,3s1.7,3,5.2,3C524.9,77.6,525.4,77.6,525.8,77.6z M519.3,107.6c0,2.1,1.2,3.2,3.5,3.2
		s3.5-1.1,3.5-3.2c0-2.2-1.2-3.2-3.5-3.2C520.4,104.4,519.3,105.5,519.3,107.6z"/>
	<path d="M603.4,81.6c2.3,0,4.3-0.9,6-2.8s2.7-4.9,3.2-9.1H626c-0.8,6.3-3.6,10.8-8.3,13.5s-10.2,4.1-16.5,4.1
		c-5.2,0-9.6-1-13.1-2.9s-5.3-4.9-5.3-8.8c0-1.2,0.3-2.3,1-3.4s1.6-1.9,2.7-2.5c1.2-0.6,3.2-0.9,6-0.9c1.2,0,2.4,0.3,3.6,0.9
		c1.2,0.6,2.1,1.4,2.8,2.5s1,2.2,1,3.4s-0.3,2.3-1,3.4C599.3,80.8,600.9,81.6,603.4,81.6z M603.4,108.2c2.3,0,4.3-0.9,6-2.8
		s2.7-4.9,3.2-9.1H626c-0.8,6.3-3.6,10.8-8.3,13.5s-10.2,4.1-16.5,4.1c-5.2,0-9.6-1-13.1-2.9s-5.3-4.9-5.3-8.8c0-1.2,0.3-2.3,1-3.4
		s1.6-1.9,2.7-2.5c1.2-0.6,3.2-0.9,6-0.9c1.2,0,2.4,0.3,3.6,0.9c1.2,0.6,2.1,1.4,2.8,2.5s1,2.2,1,3.4s-0.3,2.3-1,3.4
		C599.3,107.3,600.9,108.2,603.4,108.2z M590.9,73.2c-0.5,0.3-0.8,0.6-1.1,1s-0.4,0.9-0.4,1.4s0.1,0.9,0.4,1.4
		c0.2,0.4,0.6,0.8,1.1,1s1,0.3,1.5,0.3s1-0.1,1.5-0.3c0.5-0.2,0.9-0.6,1.1-1c0.3-0.4,0.4-0.9,0.4-1.4s-0.1-0.9-0.4-1.4
		c-0.3-0.4-0.7-0.8-1.2-1c-0.5-0.3-1-0.4-1.5-0.4C591.9,72.9,591.4,73,590.9,73.2z M590.9,99.8c-0.5,0.3-0.8,0.6-1.1,1
		s-0.4,0.9-0.4,1.4s0.1,0.9,0.4,1.4c0.2,0.4,0.6,0.8,1.1,1s1,0.3,1.5,0.3s1-0.1,1.5-0.3c0.5-0.2,0.9-0.6,1.1-1
		c0.3-0.4,0.4-0.9,0.4-1.4s-0.1-0.9-0.4-1.4c-0.3-0.4-0.7-0.8-1.2-1c-0.5-0.3-1-0.4-1.5-0.4C591.9,99.4,591.4,99.5,590.9,99.8z"/>
	<path d="M638.6,74.5c0-2.5,0.6-4.4,1.9-5.7c1.4-1.4,3.4-2.1,6.3-2.1c4.6,0,7.7,0.7,9.3,2c1.4,1.3,2.2,3.2,2.2,5.8
		c0,4.2-1.1,8.6-3.2,13.2s-3.2,8.8-3.2,12.6c0,6.2,3.3,9.3,9.8,9.3s9.8-3.4,9.8-10.1V66.7h13.3v32.8c0,10.8-7.7,16.2-23.1,16.2
		c-15.4,0-23.1-5.2-23.1-15.5c0-5.1,1.7-9.8,5.2-14.2c1.2-1.5,2.1-2.9,2.9-4.2c-2.8,0-4.9-0.7-6.3-2.1
		C639.2,78.5,638.6,76.8,638.6,74.5z M646.1,77.3c1.9,0,2.8-0.9,2.8-2.7c0-1.8-0.9-2.7-2.8-2.7c-1.9,0-2.8,0.9-2.8,2.7
		C643.3,76.3,644.2,77.3,646.1,77.3z"/>
	<path d="M719.1,81.6c2.3,0,4.3-0.9,6-2.8s2.7-4.9,3.2-9.1h13.3c-0.8,6.3-3.6,10.8-8.3,13.5s-10.2,4.1-16.5,4.1
		c-5.2,0-9.6-1-13.1-2.9s-5.3-4.9-5.3-8.8c0-1.2,0.3-2.3,1-3.4s1.6-1.9,2.7-2.5c1.2-0.6,3.2-0.9,6-0.9c1.2,0,2.4,0.3,3.6,0.9
		c1.2,0.6,2.1,1.4,2.8,2.5s1,2.2,1,3.4s-0.3,2.3-1,3.4C714.9,80.8,716.5,81.6,719.1,81.6z M719.1,108.2c2.3,0,4.3-0.9,6-2.8
		s2.7-4.9,3.2-9.1h13.3c-0.8,6.3-3.6,10.8-8.3,13.5s-10.2,4.1-16.5,4.1c-5.2,0-9.6-1-13.1-2.9s-5.3-4.9-5.3-8.8c0-1.2,0.3-2.3,1-3.4
		s1.6-1.9,2.7-2.5c1.2-0.6,3.2-0.9,6-0.9c1.2,0,2.4,0.3,3.6,0.9c1.2,0.6,2.1,1.4,2.8,2.5s1,2.2,1,3.4s-0.3,2.3-1,3.4
		C714.9,107.3,716.5,108.2,719.1,108.2z M706.5,73.2c-0.5,0.3-0.8,0.6-1.1,1s-0.4,0.9-0.4,1.4s0.1,0.9,0.4,1.4
		c0.2,0.4,0.6,0.8,1.1,1s1,0.3,1.5,0.3s1-0.1,1.5-0.3c0.5-0.2,0.9-0.6,1.1-1c0.3-0.4,0.4-0.9,0.4-1.4s-0.1-0.9-0.4-1.4
		c-0.3-0.4-0.7-0.8-1.2-1c-0.5-0.3-1-0.4-1.5-0.4C707.5,72.9,707,73,706.5,73.2z M706.5,99.8c-0.5,0.3-0.8,0.6-1.1,1
		s-0.4,0.9-0.4,1.4s0.1,0.9,0.4,1.4c0.2,0.4,0.6,0.8,1.1,1s1,0.3,1.5,0.3s1-0.1,1.5-0.3c0.5-0.2,0.9-0.6,1.1-1
		c0.3-0.4,0.4-0.9,0.4-1.4s-0.1-0.9-0.4-1.4c-0.3-0.4-0.7-0.8-1.2-1c-0.5-0.3-1-0.4-1.5-0.4C707.5,99.4,707,99.5,706.5,99.8z"/>
	<path d="M826.1,102.8H818v12.9h-13.9v-12.9h-27.9v-9.2l28.7-40.3H818v39.2h8.1V102.8z M804.1,92.6V82c0-0.4,0-0.9,0-1.6
		s0-1.5,0.1-2.4c0-0.9,0.1-1.8,0.1-2.7c0-0.9,0.1-1.8,0.1-2.7c0-0.9,0.1-1.6,0.1-2.2s0.1-1.1,0.1-1.4h-0.4c-0.6,1.2-1.2,2.5-1.9,3.8
		s-1.5,2.7-2.4,4l-11.3,15.8L804.1,92.6L804.1,92.6z"/>
	<path d="M895.3,68.8c0-5,2-10.2,5.9-15.6l9.4,3c-1.3,2.8-2,7-2,12.6v30.7c0,10.8-7.7,16.2-23.1,16.2c-15.4,0-23.1-5.2-23.1-15.5
		c0-5.1,1.7-9.8,5.2-14.2c1.2-1.5,2.1-2.9,2.9-4.2c-2.8,0-4.9-0.7-6.3-2.1c-1.2-1.2-1.8-3-1.8-5.2c0-2.5,0.6-4.4,1.9-5.7
		c1.4-1.4,3.4-2.1,6.3-2.1c4.6,0,7.7,0.7,9.3,2c1.4,1.3,2.2,3.2,2.2,5.8c0,4.2-1.1,8.6-3.2,13.2s-3.2,8.8-3.2,12.6
		c0,6.2,3.3,9.3,9.8,9.3s9.8-3.4,9.8-10.1L895.3,68.8L895.3,68.8z M870,77.3c1.9,0,2.8-0.9,2.8-2.7c0-1.8-0.9-2.7-2.8-2.7
		c-1.9,0-2.8,0.9-2.8,2.7C867.2,76.3,868.1,77.3,870,77.3z"/>
	<path d="M943,81.6c2.3,0,4.3-0.9,6-2.8s2.7-4.9,3.2-9.1h13.3c-0.8,6.3-3.6,10.8-8.3,13.5s-10.2,4.1-16.5,4.1c-5.2,0-9.6-1-13.1-2.9
		s-5.3-4.9-5.3-8.8c0-1.2,0.3-2.3,1-3.4s1.6-1.9,2.7-2.5c1.2-0.6,3.2-0.9,6-0.9c1.2,0,2.4,0.3,3.6,0.9c1.2,0.6,2.1,1.4,2.8,2.5
		s1,2.2,1,3.4s-0.3,2.3-1,3.4C938.8,80.8,940.4,81.6,943,81.6z M943,108.2c2.3,0,4.3-0.9,6-2.8s2.7-4.9,3.2-9.1h13.3
		c-0.8,6.3-3.6,10.8-8.3,13.5s-10.2,4.1-16.5,4.1c-5.2,0-9.6-1-13.1-2.9s-5.3-4.9-5.3-8.8c0-1.2,0.3-2.3,1-3.4s1.6-1.9,2.7-2.5
		c1.2-0.6,3.2-0.9,6-0.9c1.2,0,2.4,0.3,3.6,0.9c1.2,0.6,2.1,1.4,2.8,2.5s1,2.2,1,3.4s-0.3,2.3-1,3.4
		C938.8,107.3,940.4,108.2,943,108.2z M930.4,73.2c-0.5,0.3-0.8,0.6-1.1,1s-0.4,0.9-0.4,1.4s0.1,0.9,0.4,1.4c0.2,0.4,0.6,0.8,1.1,1
		s1,0.3,1.5,0.3s1-0.1,1.5-0.3c0.5-0.2,0.9-0.6,1.1-1c0.3-0.4,0.4-0.9,0.4-1.4s-0.1-0.9-0.4-1.4c-0.3-0.4-0.7-0.8-1.2-1
		c-0.5-0.3-1-0.4-1.5-0.4C931.4,72.9,930.9,73,930.4,73.2z M930.4,99.8c-0.5,0.3-0.8,0.6-1.1,1s-0.4,0.9-0.4,1.4s0.1,0.9,0.4,1.4
		c0.2,0.4,0.6,0.8,1.1,1s1,0.3,1.5,0.3s1-0.1,1.5-0.3c0.5-0.2,0.9-0.6,1.1-1c0.3-0.4,0.4-0.9,0.4-1.4s-0.1-0.9-0.4-1.4
		c-0.3-0.4-0.7-0.8-1.2-1c-0.5-0.3-1-0.4-1.5-0.4C931.4,99.4,930.9,99.5,930.4,99.8z"/>
	<path d="M992.4,100.8c1.4-0.9,3.1-1.3,4.9-1.3c1.8,0,3.5,0.7,5,2c1.4,1.4,2.2,3.4,2.2,6.1s-0.7,4.7-2.2,6.1c-1.4,1.3-4.2,2-8.4,2
		c-4.3,0-7.6-0.7-9.9-2.2c-3.2-2-4.8-5.5-4.8-10.4V82.9c0-6.1,1.4-10.3,4.2-12.7c2.8-2.3,6.1-3.5,9.9-3.5c3.9,0,7.3,2,10.1,6.1
		c2.8-4.1,6.2-6.1,10.1-6.1c3.8,0,7.1,1.2,9.9,3.6s4.2,6.6,4.2,12.6v32.8h-13.3V82.9c0-6.7-0.7-10.1-2-10.1s-4.3,2.6-9,7.8
		c-4.6-5.2-7.6-7.8-9-7.8c-1.3,0-2,3.4-2,10.1v17.9H992.4z M998.6,110.2c0.7-0.5,1-1.4,1-2.6c0-1-0.3-1.8-0.8-2.3
		c-0.6-0.6-1.5-0.9-2.7-0.9c-2.3,0-3.5,1.1-3.5,3.2c0,1.3,0.4,2.2,1.2,2.7c0.6,0.3,1.3,0.5,2.3,0.5
		C997.2,110.8,998,110.6,998.6,110.2z"/>
	<path d="M1014,125.7c-0.3,0.9-0.5,1.7-0.5,2.5c0,0.3,0,0.7,0.1,1c0.2,0.6,0.9,0.9,2,0.9c1.4,0,2.2-1.6,2.2-4.9v-6.8h7.5v7
		c0,5.5-3.2,8.3-9.6,8.3c-4.8,0-7.6-0.7-8.4-2.2c-0.5-0.9-0.7-1.7-0.7-2.4c0-0.6,0.1-1.2,0.4-1.7c-0.9,0-1.7-0.2-2.5-0.6
		c-0.9-0.4-1.5-1-1.9-1.7s-0.6-1.5-0.6-2.2c0-0.8,0.2-1.6,0.6-2.3c0.4-0.7,1.1-1.3,1.9-1.6c0.9-0.4,2.4-0.6,4.5-0.6
		c1.2,0,2.3,0.2,3.1,0.6s1.5,0.9,2,1.6s0.7,1.5,0.7,2.3C1014.7,123.6,1014.5,124.5,1014,125.7z M1006.3,121.6
		c-0.2,0.1-0.4,0.3-0.6,0.6c-0.1,0.2-0.2,0.5-0.2,0.8s0.1,0.5,0.2,0.8c0.1,0.2,0.3,0.4,0.5,0.6c0.2,0.1,0.7,0.2,1.5,0.3
		c0.4-0.6,0.6-1.1,0.6-1.6c0-0.3-0.1-0.5-0.2-0.8c-0.1-0.2-0.3-0.4-0.5-0.6c-0.2-0.1-0.4-0.2-0.7-0.2
		C1006.7,121.4,1006.5,121.5,1006.3,121.6z"/>
	<path d="M1056.9,108.3c2.9,0.9,5.4,1.4,7.3,1.4c8.1,0,12.1-3.4,12.1-10.1v-8.8c-3.7,1.6-7.7,2.4-12.1,2.4c-6.2,0-11.5-1.1-16.1-3.4
		s-6.9-5.5-6.9-9.8c0-4.8,2.2-8.2,6.5-10.2s9.8-3,16.6-3c9.5,0.3,16.1,1.7,19.8,4.3c3.7,2.6,5.5,6.5,5.5,11.9v16.6
		c0,10.8-8.5,16.2-25.4,16.2c-15.4,0-23.1-4.7-23.1-14.2l0,0c0.1-1.1,0.4-2,1.1-3c0.7-1.1,1.7-1.9,3.1-2.5s3.1-0.9,5-0.9
		s3.5,0.3,4.8,0.9s2.3,1.5,3,2.5c0.7,1.1,1.1,2.2,1.1,3.5C1059.2,105.4,1058.5,107.5,1056.9,108.3z M1048.4,101.9
		c0,0.3,0,0.6,0.1,0.9c0.1,0.2,0.2,0.4,0.3,0.6c0.2,0.4,0.6,0.8,1.1,1s1,0.3,1.5,0.3s1-0.1,1.5-0.3c0.5-0.2,0.8-0.6,1.1-1
		c0.3-0.4,0.4-0.9,0.4-1.4s-0.1-0.9-0.4-1.4s-0.7-0.8-1.1-1c-0.5-0.2-1-0.4-1.5-0.4s-1,0.1-1.4,0.4c-0.5,0.2-0.8,0.6-1.1,1
		C1048.6,101,1048.4,101.4,1048.4,101.9z M1075.9,80c-0.5-2.3-1.5-4.1-2.9-5.3c-1.4-1.2-4.3-1.8-8.8-1.8c-2.6,0-4.9,0.7-6.9,2.2
		c-1.9,1.5-2.9,3.1-2.9,4.9s0.8,3.4,2.4,4.9s4.1,2.2,7.3,2.2c4.8,0,7.8-0.6,9.1-1.8C1074.5,84,1075.4,82.3,1075.9,80z"/>
	<path d="M1123.9,81.6c2.3,0,4.3-0.9,6-2.8s2.7-4.9,3.2-9.1h13.3c-0.8,6.3-3.6,10.8-8.3,13.5s-10.2,4.1-16.5,4.1
		c-5.2,0-9.6-1-13.1-2.9s-5.3-4.9-5.3-8.8c0-1.2,0.3-2.3,1-3.4s1.6-1.9,2.7-2.5c1.2-0.6,3.2-0.9,6-0.9c1.2,0,2.4,0.3,3.6,0.9
		s2.1,1.4,2.8,2.5c0.7,1.1,1,2.2,1,3.4s-0.3,2.3-1,3.4C1119.8,80.8,1121.3,81.6,1123.9,81.6z M1123.9,108.2c2.3,0,4.3-0.9,6-2.8
		s2.7-4.9,3.2-9.1h13.3c-0.8,6.3-3.6,10.8-8.3,13.5s-10.2,4.1-16.5,4.1c-5.2,0-9.6-1-13.1-2.9s-5.3-4.9-5.3-8.8c0-1.2,0.3-2.3,1-3.4
		s1.6-1.9,2.7-2.5c1.2-0.6,3.2-0.9,6-0.9c1.2,0,2.4,0.3,3.6,0.9s2.1,1.4,2.8,2.5c0.7,1.1,1,2.2,1,3.4s-0.3,2.3-1,3.4
		C1119.8,107.3,1121.3,108.2,1123.9,108.2z M1111.4,73.2c-0.5,0.3-0.8,0.6-1.1,1c-0.3,0.4-0.4,0.9-0.4,1.4s0.1,0.9,0.4,1.4
		c0.2,0.4,0.6,0.8,1.1,1s1,0.3,1.5,0.3s1-0.1,1.5-0.3c0.5-0.2,0.9-0.6,1.1-1c0.3-0.4,0.4-0.9,0.4-1.4s-0.1-0.9-0.4-1.4
		c-0.3-0.4-0.7-0.8-1.2-1c-0.5-0.3-1-0.4-1.5-0.4C1112.3,72.9,1111.9,73,1111.4,73.2z M1111.4,99.8c-0.5,0.3-0.8,0.6-1.1,1
		c-0.3,0.4-0.4,0.9-0.4,1.4s0.1,0.9,0.4,1.4c0.2,0.4,0.6,0.8,1.1,1s1,0.3,1.5,0.3s1-0.1,1.5-0.3c0.5-0.2,0.9-0.6,1.1-1
		c0.3-0.4,0.4-0.9,0.4-1.4s-0.1-0.9-0.4-1.4c-0.3-0.4-0.7-0.8-1.2-1c-0.5-0.3-1-0.4-1.5-0.4S1111.9,99.5,1111.4,99.8z"/>
	<path d="M1173.3,102.7c0.9-0.4,1.9-0.6,2.9-0.6c1.2,0,2.3,0.3,3.4,0.8s2,1.3,2.6,2.4c0.6,1,0.9,2.1,0.9,3.2c0,2.4-0.7,4.1-2,5.3
		c-1.4,1.3-3.5,1.9-6.3,1.9c-4.7,0-8.3-1-10.8-3c-2.6-2.1-4-5.4-4-9.8V79.5c0-4.5,1.3-7.8,4-9.9c2.4-1.9,5.9-2.9,10.5-2.9
		c2.7,0,5.6,0.4,8.6,1.3v6.1c-2.4-0.9-4.2-1.3-5.4-1.3c-1.5,0-2.6,0.5-3.3,1.5c-0.7,1-1.1,2.7-1.1,5.1L1173.3,102.7L1173.3,102.7z
		 M1175,106.7c-0.4,0.2-0.7,0.4-0.9,0.8c-0.2,0.3-0.3,0.7-0.3,1.1s0.1,0.7,0.3,1.1c0.2,0.3,0.5,0.6,0.9,0.8c0.4,0.2,0.8,0.3,1.2,0.3
		c0.4,0,0.8-0.1,1.2-0.3c0.4-0.2,0.7-0.4,0.9-0.8c0.2-0.3,0.3-0.7,0.3-1.1s-0.1-0.7-0.3-1.1c-0.2-0.3-0.5-0.6-0.9-0.8
		c-0.4-0.2-0.7-0.3-1.1-0.3C1175.8,106.4,1175.4,106.5,1175,106.7z"/>
	<path d="M1204.6,82.7c-0.9,0.2-2,0.3-3.1,0.3c-3.1,0-5.4-0.8-6.9-2.3c-1.3-1.3-1.9-3.3-1.9-5.8s0.6-4.5,1.9-5.8
		c1.4-1.5,3.7-2.3,6.9-2.3c6.8,0,11.2,0.8,13.1,2.5c2.2,1.8,3.3,4.7,3.3,8.6v23c0,1.5-0.1,2.9-0.4,4.2c1.8,0.1,3.6,1,5.3,2.6
		c1.8,1.3,4,2,6.7,2c3.4,0,5.1-2.5,5.1-7.5V66.7h13.3v35.4c0,9.1-5.8,13.6-17.5,13.6c-4.6,0-8.5-1.5-11.5-4.5c-1-1-2.1-1.5-3.3-1.6
		c-2.7,4.1-9.4,6.1-19.9,6.1v-6.1c3,0,5.2-0.7,6.7-2.2s2.2-3.7,2.2-6.6L1204.6,82.7L1204.6,82.7z M1201.5,78.1
		c2.3,0,3.5-1.1,3.5-3.2s-1.2-3.2-3.5-3.2s-3.5,1.1-3.5,3.2C1198.1,77,1199.2,78.1,1201.5,78.1z"/>
	<path d="M1267.3,115.8c-3.1,0-5.4-0.8-6.9-2.3c-1.3-1.4-1.9-3.3-1.9-5.8c0-2.6,0.6-4.5,1.9-5.8c1.5-1.5,3.8-2.3,6.9-2.3
		c1.1,0,2.2,0.1,3.1,0.3V82.5h-1.2c-3.8,0-6.6-0.8-8.4-2.3c-1.5-1.3-2.3-3.2-2.3-5.6c0-2.7,0.8-4.7,2.3-6s3.7-1.9,6.6-1.9
		c9.3,0,14.6,2,15.9,6c3.4-4,8.1-6,13.9-6c5,0,8.9,1,11.7,2.9c3.3,2.2,4.9,5.8,4.9,10.8v35.4h-13.3V80.4c0-2.5-0.8-4.4-2.4-5.7
		c-1.5-1.2-3.3-1.8-5.3-1.8s-4.5,1.7-7.5,5.2l-1.5,2v24.5c0,3.9-1.1,6.8-3.3,8.6C1278.5,114.9,1274.1,115.8,1267.3,115.8z
		 M1270.4,77.6v-1c0-3.4-1.1-5-3.3-5c-2.2,0-3.2,1-3.2,3s1.7,3,5.2,3C1269.5,77.6,1270,77.6,1270.4,77.6z M1263.8,107.6
		c0,2.1,1.2,3.2,3.5,3.2s3.5-1.1,3.5-3.2c0-2.2-1.2-3.2-3.5-3.2S1263.8,105.5,1263.8,107.6z"/>
	<path d="M1360.1,68.8c0-5,2-10.2,5.9-15.6l9.4,3c-1.3,2.8-2,7-2,12.6v30.7c0,10.8-7.7,16.2-23.1,16.2s-23.1-5.2-23.1-15.5
		c0-5.1,1.7-9.8,5.2-14.2c1.2-1.5,2.1-2.9,2.9-4.2c-2.8,0-4.9-0.7-6.3-2.1c-1.2-1.2-1.8-3-1.8-5.2c0-2.5,0.6-4.4,1.9-5.7
		c1.4-1.4,3.4-2.1,6.3-2.1c4.6,0,7.7,0.7,9.3,2c1.4,1.3,2.2,3.2,2.2,5.8c0,4.2-1.1,8.6-3.2,13.2s-3.2,8.8-3.2,12.6
		c0,6.2,3.3,9.3,9.8,9.3s9.8-3.4,9.8-10.1L1360.1,68.8L1360.1,68.8z M1334.8,77.3c1.9,0,2.8-0.9,2.8-2.7c0-1.8-0.9-2.7-2.8-2.7
		s-2.8,0.9-2.8,2.7C1332,76.3,1332.9,77.3,1334.8,77.3z"/>
	<path d="M1407.8,81.6c2.3,0,4.3-0.9,6-2.8s2.7-4.9,3.2-9.1h13.3c-0.8,6.3-3.6,10.8-8.3,13.5c-4.7,2.7-10.2,4.1-16.5,4.1
		c-5.2,0-9.6-1-13.2-2.9c-3.5-1.9-5.3-4.9-5.3-8.8c0-1.2,0.3-2.3,1-3.4s1.6-1.9,2.7-2.5c1.2-0.6,3.2-0.9,6-0.9
		c1.2,0,2.4,0.3,3.6,0.9s2.1,1.4,2.8,2.5s1,2.2,1,3.4s-0.3,2.3-1,3.4C1403.6,80.8,1405.2,81.6,1407.8,81.6z M1407.8,108.2
		c2.3,0,4.3-0.9,6-2.8s2.7-4.9,3.2-9.1h13.3c-0.8,6.3-3.6,10.8-8.3,13.5c-4.7,2.7-10.2,4.1-16.5,4.1c-5.2,0-9.6-1-13.2-2.9
		c-3.5-1.9-5.3-4.9-5.3-8.8c0-1.2,0.3-2.3,1-3.4s1.6-1.9,2.7-2.5c1.2-0.6,3.2-0.9,6-0.9c1.2,0,2.4,0.3,3.6,0.9s2.1,1.4,2.8,2.5
		s1,2.2,1,3.4s-0.3,2.3-1,3.4C1403.6,107.3,1405.2,108.2,1407.8,108.2z M1395.2,73.2c-0.5,0.3-0.8,0.6-1.1,1
		c-0.3,0.4-0.4,0.9-0.4,1.4s0.1,0.9,0.4,1.4c0.2,0.4,0.6,0.8,1.1,1s1,0.3,1.5,0.3s1-0.1,1.5-0.3c0.5-0.2,0.9-0.6,1.1-1
		c0.3-0.4,0.4-0.9,0.4-1.4s-0.1-0.9-0.4-1.4c-0.3-0.4-0.7-0.8-1.2-1c-0.5-0.3-1-0.4-1.5-0.4C1396.2,72.9,1395.7,73,1395.2,73.2z
		 M1395.2,99.8c-0.5,0.3-0.8,0.6-1.1,1c-0.3,0.4-0.4,0.9-0.4,1.4s0.1,0.9,0.4,1.4c0.2,0.4,0.6,0.8,1.1,1s1,0.3,1.5,0.3
		s1-0.1,1.5-0.3c0.5-0.2,0.9-0.6,1.1-1c0.3-0.4,0.4-0.9,0.4-1.4s-0.1-0.9-0.4-1.4c-0.3-0.4-0.7-0.8-1.2-1c-0.5-0.3-1-0.4-1.5-0.4
		C1396.2,99.4,1395.7,99.5,1395.2,99.8z"/>
	<path d="M1481.4,70.6c0.5-1.7,0.8-3.7,0.9-6l9.1,1.3c-0.4,3.6-1.2,6.6-2.2,9.3c1.4,1.9,2.2,4.1,2.2,6.4v24.8c0,3.2-1,5.6-3,7.2
		c-1.9,1.5-4.6,2.2-8,2.2c-3.5,0-6.2-0.6-8.1-1.7s-3.3-3.1-4.2-5.8c-0.9-2.8-2.1-4.8-3.6-6.2s-3.7-2.1-6.9-2.1c-1.5,0-2.4,0.7-2.7,2
		c2.9,0,5.1,0.5,6.5,1.6c1.3,1,2,2.5,2,4.4c0.1,0.5,0.1,0.9,0.1,1.4c0,1.9-0.6,3.4-1.8,4.4c-1.5,1.3-3.9,1.9-7.2,2
		c-3.8-0.1-6.7-1-8.6-2.9c-2-1.8-3-4.6-3-8.3c0-3.1,1.2-5.7,3.6-7.7s6.1-3,11.1-3c4.4,0,7.8,0.9,10.1,2.7c2.3,1.8,4.1,4.4,5.5,7.9
		s2.5,5.2,3.5,5.2s1.4-1.1,1.4-3.2V83.6c-3,2.9-7.7,4.4-14.3,4.4c-7.2,0-12.5-0.7-15.8-2.2s-5.1-4.1-5.1-7.8s1.7-6.5,5.1-8.4
		s8.7-2.9,15.8-2.9C1470.8,66.7,1476.7,68,1481.4,70.6z M1455.3,112.2c2.2,0,3.2-1,3.2-3s-1.1-3-3.2-3c-2.2,0-3.2,1-3.2,3
		C1452,111.2,1453.1,112.2,1455.3,112.2z M1476.3,77c-1-1.2-2.2-2.2-3.7-3s-4.4-1.2-8.9-1.2c-2.7,0-4.6,0.5-5.8,1.6
		c-1.2,1.1-1.8,2.3-1.8,3.5s0.6,2.2,1.8,2.8c1.2,0.7,3.1,1,5.8,1c4.5,0,7.4-0.4,8.8-1.2C1474,79.8,1475.2,78.6,1476.3,77z"/>
	<path d="M1469.6,52.6c0.6,1.1,1,2.2,1,3.4s-0.3,2.3-1,3.4c-0.7,1.1-1.6,1.9-2.8,2.5c-1.2,0.6-2.4,0.9-3.6,0.9c-2.8,0-4.8-0.3-6-0.9
		s-2.1-1.4-2.7-2.5c-0.7-1.1-1-2.2-1-3.4c0-3.9,1.8-6.8,5.3-8.8c3.5-1.9,7.9-2.9,13.2-2.9c6.3,0,11.8,1.4,16.5,4.1
		c4.7,2.7,7.5,7.3,8.3,13.5h-13.3c-0.5-4.2-1.6-7.3-3.2-9.1c-1.7-1.9-3.7-2.8-6-2.8C1471.6,50.1,1470.1,50.9,1469.6,52.6z
		 M1463.1,58.9c0.5,0,1-0.1,1.5-0.4c0.5-0.3,0.9-0.6,1.2-1c0.3-0.4,0.4-0.9,0.4-1.4s-0.1-0.9-0.4-1.4c-0.3-0.4-0.7-0.8-1.1-1
		c-0.5-0.2-1-0.3-1.5-0.3s-1,0.1-1.5,0.3s-0.8,0.6-1.1,1c-0.2,0.4-0.4,0.9-0.4,1.4s0.1,0.9,0.4,1.4c0.3,0.4,0.6,0.8,1.1,1
		S1462.7,58.9,1463.1,58.9z"/>
	<path d="M1531.6,128.8c-3.6,2.7-10.1,4.1-19.6,4.1c-3.4,0-6.7-0.3-10.1-0.9v-6.1c3.4,0.6,6.7,0.9,10.1,0.9c3.5,0,6.2-0.7,8.1-2.2
		c2.4-1.8,3.6-4.7,3.6-8.7v-33c0-6.2-2.2-9.6-6.5-10.4c1.6,1.3,2.4,3.1,2.4,5.2c0,5.4-3,8.1-8.9,8.1c-5.8,0-8.8-2.7-8.8-8.1
		c0-7.4,5.2-11.1,15.5-11.1c13.1,0,19.6,5.4,19.6,16.2v32.8C1537,121.7,1535.2,126.1,1531.6,128.8z M1507.3,77.8
		c0,2.1,1.2,3.2,3.5,3.2s3.5-1.1,3.5-3.2c0-2.2-1.2-3.2-3.5-3.2C1508.4,74.5,1507.3,75.6,1507.3,77.8z"/>
	<path d="M1551.6,79.5c0-5.1,3.3-9.5,9.9-13l-13.8-11.3c-2.1-1.7-3.2-3.9-3.4-6.7v-0.3c0-2,0.6-3.8,1.9-5.3c1.9-1.8,3.9-2.7,6.1-2.9
		c0.3,0,0.7,0,1,0c2.7,0,5,0.7,6.8,2.2l4.9,3.9c4.9,4.1,8.6,6.1,11.1,6.1c0.3,0,0.6,0,0.9-0.1V57c-1.5,0.5-2.9,0.7-4.2,0.7
		c-0.7,0-1.3-0.1-2-0.2c-1.8-0.4-5.5-3-11.1-7.8c-1-0.9-1.9-1.3-2.8-1.3s-1.7,0.4-2.4,1.3c-0.3,0.3-0.4,0.7-0.4,1
		c0,0.8,0.6,1.6,1.8,2.6l16.3,13.3l0.2,0.1h-0.1l0.1,0.1h-0.2c-3.9,2.4-6.1,4.5-6.6,6.4c-0.5,1.8-0.7,4-0.7,6.3v23.2
		c0.9-0.4,1.9-0.6,2.9-0.6c1.2,0,2.3,0.3,3.4,0.8s2,1.3,2.6,2.4c0.6,1,0.9,2.1,0.9,3.2c0,2.4-0.7,4.1-2,5.3
		c-1.4,1.3-3.5,1.9-6.3,1.9c-4.7,0-8.3-1-10.8-3c-2.6-2.1-4-5.4-4-9.8L1551.6,79.5L1551.6,79.5z M1565.7,107.4
		c-0.2,0.3-0.3,0.7-0.3,1.1s0.1,0.7,0.3,1.1c0.2,0.3,0.5,0.6,0.9,0.8c0.4,0.2,0.8,0.3,1.2,0.3s0.8-0.1,1.2-0.3
		c0.4-0.2,0.7-0.4,0.9-0.8c0.2-0.3,0.3-0.7,0.3-1.1s-0.1-0.7-0.3-1.1c-0.2-0.3-0.5-0.6-0.9-0.8s-0.7-0.3-1.1-0.3s-0.8,0.1-1.2,0.3
		S1565.9,107.1,1565.7,107.4z"/>
	<path d="M1600.8,100.8c1.4-0.9,3.1-1.3,4.9-1.3s3.5,0.7,5,2c1.4,1.4,2.2,3.4,2.2,6.1s-0.7,4.7-2.2,6.1c-1.4,1.3-4.2,2-8.4,2
		c-4.3,0-7.6-0.7-9.9-2.2c-3.2-2-4.8-5.5-4.8-10.4V82.9c0-6.1,1.4-10.3,4.2-12.7s6.1-3.5,9.9-3.5c3.9,0,7.3,2,10.1,6.1
		c2.8-4.1,6.2-6.1,10.1-6.1c3.8,0,7.1,1.2,9.9,3.6s4.2,6.6,4.2,12.6v32.8h-13.3V82.9c0-6.7-0.7-10.1-2-10.1s-4.3,2.6-9,7.8
		c-4.6-5.2-7.6-7.8-9-7.8c-1.3,0-2,3.4-2,10.1v17.9H1600.8z M1607,110.2c0.7-0.5,1-1.4,1-2.6c0-1-0.3-1.8-0.8-2.3
		c-0.6-0.6-1.5-0.9-2.7-0.9c-2.3,0-3.5,1.1-3.5,3.2c0,1.3,0.4,2.2,1.2,2.7c0.6,0.3,1.3,0.5,2.3,0.5
		C1605.6,110.8,1606.5,110.6,1607,110.2z"/>
	<path d="M1681,115.8c-5.4,0-8.8-1.5-10.1-4.5c-0.6-1.3-0.9-2.6-0.9-4c0-1.6,0.4-3.1,1.2-4.7c1.6-2.9,2.4-4.5,2.4-4.6
		c-0.6,0.5-2,0.8-3.9,0.8h-0.3c-2.5-0.3-4.4-1.2-5.7-2.5c-1.3-1.3-2-3.2-2.1-5.6v-0.4c0-2.2,0.7-3.9,2-5.2c1.4-1.4,3.6-2.3,6.4-2.7
		h0.2c3,0,5.4,0.6,7.1,1.7c1.6,1,2.6,2.5,3,4.5c0.3,1.5,0.5,2.8,0.5,4.2c0,2.2-0.4,4.1-1.2,5.9c-1.4,2.9-2,5.7-2,8.2
		c0,1.9,1.2,2.9,3.5,2.9c2,0,3-0.9,3-2.6V81.6c0-3-1.2-5.3-3.5-6.6c-2.4-1.4-5.1-2.1-8.3-2.1c-4.9,0-8.2,0.7-9.8,2.1
		c-1.7,1.4-2.5,3.6-2.5,6.6h-13.3c0-4.9,1.9-8.6,5.7-11.1c3.8-2.5,10.4-3.7,19.7-3.7c16.9,0,25.4,4.9,25.4,14.8v25.6
		c0,2.6-0.8,4.7-2.5,6.1C1692.9,114.9,1688.3,115.8,1681,115.8z M1671.1,93.5c2.3,0,3.5-1,3.5-3c0-1.9-1.1-2.9-3.3-2.9
		c-2.3,0-3.5,1-3.6,2.9v0.2C1667.7,92.6,1668.8,93.5,1671.1,93.5L1671.1,93.5z"/>
	<path d="M1674.1,49.8c-4,0-6.6,0.2-7.8,0.7c-1.2,0.5-2,1.1-2.5,1.9c-0.2,0.3-0.3,0.6-0.3,0.9c0,0.5,0.3,0.9,0.8,1.3
		c0.8,0.6,2.2,1.5,4.1,2.7l-2.8,3.4c-0.2,0-0.4,0-0.6,0c-1.7-0.6-3.1-1.1-4.2-1.6s-2.3-1.1-3.4-1.8s-1.9-1.3-2.2-1.9
		c-0.4-0.5-0.6-1.3-0.8-2.2c0-1.1,0.8-2.3,2.5-3.6c1.6-1.3,3.9-2.2,6.7-2.8c2.8-0.5,6.7-0.8,11.6-0.8s8.8,0.3,11.6,0.8
		c2.8,0.5,5.1,1.5,6.7,2.8s2.4,2.5,2.4,3.6c-0.2,1-0.4,1.7-0.8,2.2s-1.1,1.2-2.2,2s-2.3,1.5-3.4,2s-2.5,0.9-4.2,1.3
		c-0.2,0-0.4,0-0.6,0l-2.7-3.4c1.8-1.3,3.2-2.2,4-2.7c0.5-0.4,0.8-0.8,0.8-1.3c0-0.3-0.1-0.5-0.3-0.9c-0.5-0.8-1.4-1.5-2.5-1.9
		c-1.2-0.5-3.8-0.7-7.8-0.7H1674.1z"/>
	<path d="M1737.6,128.8c-3.6,2.7-10.1,4.1-19.6,4.1c-3.4,0-6.7-0.3-10.1-0.9v-6.1c3.4,0.6,6.7,0.9,10.1,0.9c3.5,0,6.2-0.7,8.1-2.2
		c2.4-1.8,3.6-4.7,3.6-8.7v-33c0-6.2-2.2-9.6-6.5-10.4c1.6,1.3,2.4,3.1,2.4,5.2c0,5.4-3,8.1-8.9,8.1c-5.8,0-8.8-2.7-8.8-8.1
		c0-7.4,5.2-11.1,15.5-11.1c13.1,0,19.6,5.4,19.6,16.2v32.8C1743,121.7,1741.2,126.1,1737.6,128.8z M1713.3,77.8
		c0,2.1,1.2,3.2,3.5,3.2s3.5-1.1,3.5-3.2c0-2.2-1.2-3.2-3.5-3.2C1714.4,74.5,1713.3,75.6,1713.3,77.8z"/>
</g>
</svg>
