<?xml version="1.0" encoding="utf-8"?>
<!-- Generator: Adobe Illustrator 23.0.4, SVG Export Plug-In . SVG Version: 6.00 Build 0)  -->
<svg version="1.1" id="Capa_1" xmlns="http://www.w3.org/2000/svg" xmlns:xlink="http://www.w3.org/1999/xlink" x="0px" y="0px"
	 viewBox="0 0 1757.7 173.6" style="enable-background:new 0 0 1757.7 173.6;" xml:space="preserve">
<style type="text/css">
	.st0{fill:none;}
</style>
<g>
	<path class="st0" d="M6.5,106.2c0-1.3,0.2-2.4,0.6-3.4c0.4-0.9,1-1.7,1.7-2.2c0.7-0.6,1.6-1,2.6-1.2c1-0.3,2-0.4,3.1-0.4
		s2.1,0.1,3,0.4c1,0.3,1.8,0.7,2.5,1.2c0.7,0.6,1.3,1.3,1.7,2.2c0.4,0.9,0.6,2,0.6,3.4c0,1.3-0.2,2.3-0.6,3.2
		c-0.4,0.9-1,1.6-1.7,2.2s-1.6,1-2.5,1.3c-1,0.3-2,0.4-3,0.4c-1.1,0-2.2-0.1-3.1-0.4c-1-0.3-1.8-0.7-2.6-1.3
		c-0.7-0.6-1.3-1.3-1.7-2.2S6.5,107.4,6.5,106.2z"/>
	<path class="st0" d="M33.1,106.2c0-1.3,0.2-2.4,0.6-3.4c0.4-0.9,1-1.7,1.7-2.2c0.7-0.6,1.6-1,2.6-1.2c1-0.3,2-0.4,3.1-0.4
		s2.1,0.1,3,0.4c1,0.3,1.8,0.7,2.5,1.2c0.7,0.6,1.3,1.3,1.7,2.2c0.4,0.9,0.6,2,0.6,3.4c0,1.3-0.2,2.3-0.6,3.2
		c-0.4,0.9-1,1.6-1.7,2.2s-1.6,1-2.5,1.3c-1,0.3-2,0.4-3,0.4c-1.1,0-2.2-0.1-3.1-0.4c-1-0.3-1.8-0.7-2.6-1.3
		c-0.7-0.6-1.3-1.3-1.7-2.2C33.3,108.5,33.1,107.4,33.1,106.2z"/>
	<path class="st0" d="M59.8,106.2c0-1.3,0.2-2.4,0.6-3.4c0.4-0.9,1-1.7,1.7-2.2c0.7-0.6,1.6-1,2.6-1.2c1-0.3,2-0.4,3.1-0.4
		s2.1,0.1,3,0.4c1,0.3,1.8,0.7,2.5,1.2c0.7,0.6,1.3,1.3,1.7,2.2c0.4,0.9,0.6,2,0.6,3.4c0,1.3-0.2,2.3-0.6,3.2
		c-0.4,0.9-1,1.6-1.7,2.2s-1.6,1-2.5,1.3c-1,0.3-2,0.4-3,0.4c-1.1,0-2.2-0.1-3.1-0.4c-1-0.3-1.8-0.7-2.6-1.3
		c-0.7-0.6-1.3-1.3-1.7-2.2C60,108.5,59.8,107.4,59.8,106.2z"/>
	<path class="st0" d="M1682,106.2c0-1.3,0.2-2.4,0.6-3.4c0.4-0.9,1-1.7,1.7-2.2c0.7-0.6,1.6-1,2.6-1.2c1-0.3,2-0.4,3.1-0.4
		s2.1,0.1,3,0.4s1.8,0.7,2.5,1.2c0.7,0.6,1.3,1.3,1.7,2.2c0.4,0.9,0.6,2,0.6,3.4c0,1.3-0.2,2.3-0.6,3.2c-0.4,0.9-1,1.6-1.7,2.2
		s-1.6,1-2.5,1.3c-1,0.3-2,0.4-3,0.4c-1.1,0-2.2-0.1-3.1-0.4c-1-0.3-1.8-0.7-2.6-1.3c-0.7-0.6-1.3-1.3-1.7-2.2
		C1682.2,108.5,1682,107.4,1682,106.2z"/>
	<path class="st0" d="M1708.6,106.2c0-1.3,0.2-2.4,0.6-3.4c0.4-0.9,1-1.7,1.7-2.2c0.7-0.6,1.6-1,2.6-1.2c1-0.3,2-0.4,3.1-0.4
		s2.1,0.1,3,0.4s1.8,0.7,2.5,1.2c0.7,0.6,1.3,1.3,1.7,2.2c0.4,0.9,0.6,2,0.6,3.4c0,1.3-0.2,2.3-0.6,3.2c-0.4,0.9-1,1.6-1.7,2.2
		s-1.6,1-2.5,1.3c-1,0.3-2,0.4-3,0.4c-1.1,0-2.2-0.1-3.1-0.4c-1-0.3-1.8-0.7-2.6-1.3c-0.7-0.6-1.3-1.3-1.7-2.2
		S1708.6,107.4,1708.6,106.2z"/>
	<path class="st0" d="M1735.2,106.2c0-1.3,0.2-2.4,0.6-3.4c0.4-0.9,1-1.7,1.7-2.2c0.7-0.6,1.6-1,2.6-1.2c1-0.3,2-0.4,3.1-0.4
		s2.1,0.1,3,0.4s1.8,0.7,2.5,1.2c0.7,0.6,1.3,1.3,1.7,2.2c0.4,0.9,0.6,2,0.6,3.4c0,1.3-0.2,2.3-0.6,3.2c-0.4,0.9-1,1.6-1.7,2.2
		s-1.6,1-2.5,1.3c-1,0.3-2,0.4-3,0.4c-1.1,0-2.2-0.1-3.1-0.4c-1-0.3-1.8-0.7-2.6-1.3c-0.7-0.6-1.3-1.3-1.7-2.2
		C1735.5,108.5,1735.2,107.4,1735.2,106.2z"/>
</g>
<g>
	<path d="M130.7,116.8c-2.9-2.6-4.3-7.1-4.3-13.2V81.9c0-4.3,1.4-7.4,4.1-9.3c1.9-1.3,4.8-2,8.4-2c3.4,0,5.8,0.7,7.2,2
		s2.1,3.1,2.1,5.2c0,2.4-0.5,4.3-1.4,5.5s-2.2,1.8-3.7,1.8c-1.3,0-2.5-0.2-3.4-0.5v18.8c0,4.4,0.6,7.3,1.9,8.8
		c0.7,0.8,1.6,1.2,2.6,1.2c2.8,0,4.2-2.9,4.2-8.8v-3h6.6v3c0,5.9,1.4,8.8,4.2,8.8c1.1,0,2-0.5,2.7-1.4c1.2-1.6,1.8-4.5,1.8-8.7V84.7
		c-1,0.3-2.1,0.5-3.4,0.5c-1.5,0-2.8-0.6-3.7-1.8c-0.9-1.2-1.4-3-1.4-5.5c0-2.1,0.7-3.8,2.1-5.2s3.8-2,7.2-2c3.7,0,6.5,0.7,8.4,2
		c0.5,0.3,0.9,0.7,1.2,1c0.7-1,1.1-2.1,1.1-3.2c0-0.5-0.1-1-0.2-1.6l5-0.3c0.2,0.7,0.2,1.5,0.2,2.1c0,2.8-1.2,5.3-3.6,7.7
		c0.2,1.1,0.4,2.2,0.4,3.5v21.6c0,6.1-1.4,10.5-4.2,13.2c-2.2,2-5.6,3-10.3,3c-5,0-8.6-1.7-10.8-5c-2.2,3.3-5.8,5-10.8,5
		C136.3,119.8,132.9,118.8,130.7,116.8z M143.8,78c0-1.8-1-2.7-3-2.7s-3,0.9-3,2.7c0,1.8,1,2.7,3,2.7S143.8,79.8,143.8,78z
		 M162.3,80.7c1,0,2-0.6,3-1.7c-0.3-2.5-1.3-3.7-3-3.7s-2.5,0.9-2.5,2.7C159.8,79.8,160.6,80.7,162.3,80.7z"/>
	<path d="M163.6,129.7c-0.3,0.9-0.5,1.7-0.5,2.5c0,0.3,0,0.7,0.1,1c0.2,0.6,0.9,0.9,2,0.9c1.4,0,2.2-1.6,2.2-4.9v-6.8h7.5v7
		c0,5.5-3.2,8.3-9.6,8.3c-4.8,0-7.6-0.7-8.4-2.2c-0.5-0.9-0.7-1.7-0.7-2.4c0-0.6,0.1-1.2,0.4-1.7c-0.9,0-1.7-0.2-2.5-0.6
		c-0.9-0.4-1.5-1-1.9-1.7s-0.6-1.5-0.6-2.2c0-0.8,0.2-1.6,0.6-2.3c0.4-0.7,1.1-1.3,1.9-1.6c0.9-0.4,2.4-0.6,4.5-0.6
		c1.2,0,2.3,0.2,3.1,0.6s1.5,0.9,2,1.6s0.7,1.5,0.7,2.3C164.3,127.6,164.1,128.5,163.6,129.7z M155.9,125.6
		c-0.2,0.1-0.4,0.3-0.6,0.6c-0.1,0.2-0.2,0.5-0.2,0.8s0.1,0.5,0.2,0.8c0.1,0.2,0.3,0.4,0.5,0.6c0.2,0.1,0.7,0.2,1.5,0.3
		c0.4-0.6,0.6-1.1,0.6-1.6c0-0.3-0.1-0.5-0.2-0.8c-0.1-0.2-0.3-0.4-0.5-0.6c-0.2-0.1-0.4-0.2-0.7-0.2
		C156.4,125.4,156.2,125.5,155.9,125.6z"/>
	<path d="M147,60c-1-0.6-1.5-1.3-1.5-2.3v-0.3c0.1-1.1,0.9-1.9,2.2-2.6c1.1-0.5,2.4-0.7,3.8-0.7c0.3,0,0.6,0,1,0
		c3.7,0.1,5.9,0.6,6.6,1.5c0.6,0.8,0.9,1.7,0.9,2.8v0.3c-0.1,1.3-1.3,2.7-3.6,4.5c2.4-0.2,4.6-1,6.6-2.4s3.6-3.3,4.8-5.6l9.7,1.8
		c-1.9,2.5-3.8,4.3-5.6,5.5c-1.9,1.2-4.2,2.1-7,2.9s-7.1,1.1-13,1.1H142v-2.8c4.2-0.6,7.1-1.5,8.8-2.7C149.2,60.8,147.9,60.5,147,60
		z M153.2,58.8c0.2-0.4,0.3-0.7,0.3-0.9s0-0.3-0.1-0.5c-0.4-0.5-0.9-0.8-1.6-0.8h-0.4c-0.6,0.1-0.9,0.5-0.9,1.1v0.1
		c0,0.5,0.2,0.9,0.7,0.9c0.4,0.1,0.9,0.1,1.3,0.1C152.7,58.8,153,58.8,153.2,58.8z"/>
	<path d="M198.7,86.7c-0.9,0.2-2,0.3-3.1,0.3c-3.1,0-5.4-0.8-6.9-2.3c-1.3-1.3-1.9-3.3-1.9-5.8s0.6-4.5,1.9-5.8
		c1.4-1.5,3.7-2.3,6.9-2.3c6.8,0,11.2,0.8,13.1,2.5c2.2,1.8,3.3,4.7,3.3,8.6v23c0,1.5-0.1,2.9-0.4,4.2c1.8,0.1,3.6,1,5.3,2.6
		c1.8,1.3,4,2,6.7,2c3.4,0,5.1-2.5,5.1-7.5V70.7H242v35.4c0,9.1-5.8,13.6-17.5,13.6c-4.6,0-8.5-1.5-11.5-4.5c-1-1-2.1-1.5-3.3-1.6
		c-2.7,4.1-9.4,6.1-19.9,6.1v-6.1c3,0,5.2-0.7,6.7-2.2s2.2-3.7,2.2-6.6V86.7z M195.6,82.1c2.3,0,3.5-1.1,3.5-3.2s-1.2-3.2-3.5-3.2
		s-3.5,1.1-3.5,3.2C192.2,81,193.3,82.1,195.6,82.1z"/>
	<path d="M224.9,48.8c1.8,0,3.5,0.3,5.1,1s2.9,1.6,3.9,2.9c0.9,1.2,1.4,2.5,1.4,3.9s-0.4,2.7-1.3,3.9c-0.9,1.2-2.2,2.2-3.8,2.9
		c-1.7,0.7-3.4,1-5.2,1s-3.5-0.3-5.1-1c-1.7-0.7-3-1.6-3.9-2.9s-1.4-2.5-1.4-3.9c0-1.3,0.5-2.6,1.4-3.9c0.9-1.2,2.2-2.2,3.9-2.9
		S223.2,48.8,224.9,48.8z M223.8,53.9c-0.4,0.3-0.7,0.6-0.9,1.1s-0.3,1-0.3,1.5c0,0.6,0.1,1.1,0.3,1.6s0.5,0.9,0.9,1.1
		s0.7,0.4,1.1,0.4c0.4,0,0.8-0.1,1.2-0.4s0.7-0.6,0.9-1.1s0.3-1,0.3-1.6c0-0.5-0.1-1.1-0.3-1.5c-0.2-0.5-0.5-0.9-0.9-1.1
		s-0.8-0.4-1.2-0.4C224.6,53.5,224.2,53.6,223.8,53.9z"/>
	<path d="M274.1,119.8V86.9c0-3.3-0.6-5-1.8-5.1c0,5.4-3,8.1-8.9,8.1c-5.8,0-8.8-2.7-8.8-8.1c0-7.4,4.7-11.1,14.1-11.1
		c12.5,0,18.7,5.4,18.7,16.2v32.8L274.1,119.8L274.1,119.8z M262.8,81.8c0,2.1,0.7,3.2,2.1,3.2s2.1-1.1,2.1-3.2c0-1.3-0.7-2-2.1-2
		S262.8,80.5,262.8,81.8z"/>
	<path d="M316.2,106.7c0.9-0.4,1.9-0.6,2.9-0.6c1.2,0,2.3,0.3,3.4,0.8s2,1.3,2.6,2.4c0.6,1,0.9,2.1,0.9,3.2c0,2.4-0.7,4.1-2,5.3
		c-1.4,1.3-3.5,1.9-6.3,1.9c-4.7,0-8.3-1-10.8-3c-2.6-2.1-4-5.4-4-9.8V83.5c0-4.5,1.3-7.8,4-9.9c2.4-1.9,5.9-2.9,10.5-2.9
		c2.7,0,5.6,0.4,8.6,1.3v6.1c-2.4-0.9-4.2-1.3-5.4-1.3c-1.5,0-2.6,0.5-3.3,1.5c-0.7,1-1.1,2.7-1.1,5.1L316.2,106.7L316.2,106.7z
		 M317.9,110.7c-0.4,0.2-0.7,0.4-0.9,0.8c-0.2,0.3-0.3,0.7-0.3,1.1s0.1,0.7,0.3,1.1c0.2,0.3,0.5,0.6,0.9,0.8
		c0.4,0.2,0.8,0.3,1.2,0.3c0.4,0,0.8-0.1,1.2-0.3c0.4-0.2,0.7-0.4,0.9-0.8c0.2-0.3,0.3-0.7,0.3-1.1s-0.1-0.7-0.3-1.1
		c-0.2-0.3-0.5-0.6-0.9-0.8c-0.4-0.2-0.7-0.3-1.1-0.3C318.6,110.4,318.2,110.5,317.9,110.7z M349.9,106.7c0.9-0.4,1.9-0.6,2.9-0.6
		c1.2,0,2.3,0.3,3.4,0.8c1.1,0.6,2,1.3,2.6,2.4c0.6,1,0.9,2.1,0.9,3.2c0,2.4-0.7,4.1-2,5.3c-1.4,1.3-3.5,1.9-6.3,1.9
		c-4.7,0-8.3-1-10.8-3c-2.6-2.1-4-5.4-4-9.8V83.5c0-4.5,1.3-7.8,4-9.9c2.4-1.9,5.9-2.9,10.5-2.9c2.7,0,5.6,0.4,8.6,1.3v6.1
		c-2.4-0.9-4.2-1.3-5.4-1.3c-1.5,0-2.6,0.5-3.3,1.5c-0.7,1-1.1,2.7-1.1,5.1L349.9,106.7L349.9,106.7z M351.7,110.7
		c-0.4,0.2-0.7,0.4-0.9,0.8c-0.2,0.3-0.3,0.7-0.3,1.1s0.1,0.7,0.3,1.1c0.2,0.3,0.5,0.6,0.9,0.8c0.4,0.2,0.8,0.3,1.2,0.3
		c0.4,0,0.8-0.1,1.2-0.3c0.4-0.2,0.7-0.4,0.9-0.8c0.2-0.3,0.3-0.7,0.3-1.1s-0.1-0.7-0.3-1.1c-0.2-0.3-0.5-0.6-0.9-0.8
		c-0.4-0.2-0.7-0.3-1.1-0.3C352.4,110.4,352,110.5,351.7,110.7z"/>
	<path d="M418.5,103.6c0,10.8-7.7,16.2-23.1,16.2s-23.1-5.2-23.1-15.5c0-5.1,1.7-9.8,5.2-14.2c1.2-1.5,2.1-2.9,2.9-4.2
		c-2.8,0-4.9-0.7-6.3-2.1c-1.2-1.2-1.8-3-1.8-5.2c0-2.5,0.6-4.4,1.9-5.7c1.4-1.4,3.4-2.1,6.3-2.1c4.6,0,7.7,0.7,9.3,2
		c1.4,1.3,2.2,3.2,2.2,5.8c0,4.2-1.1,8.6-3.2,13.2s-3.2,8.8-3.2,12.6c0,6.2,3.3,9.3,9.8,9.3s9.8-3.4,9.8-10.1V86.5H404
		c-2,0-3.7-0.7-5.2-2.1s-2.2-3.3-2.2-5.8c0-2.7,1-4.7,2.9-6c2-1.3,4.5-1.9,7.7-1.9c5.9,0,9.5,2,10.8,6c3.4-4,7.1-6,11.2-6
		c5,0,8.9,1,11.7,2.9c3.3,2.2,4.9,5.8,4.9,10.8v35.4h-13.3V84.4c0-3.1-0.6-5.1-1.9-6.1s-2.7-1.4-4.4-1.4c-1.1,0-3.1,1.7-6.1,5.2
		l-1.5,2v19.5H418.5z M379.9,81.3c1.9,0,2.8-0.9,2.8-2.7c0-1.8-0.9-2.7-2.8-2.7s-2.8,0.9-2.8,2.7C377.1,80.3,378,81.3,379.9,81.3z
		 M405.2,81.6v-1c0-3.4-0.6-5-1.9-5c-1.2,0-1.8,1-1.8,3s0.8,3,2.4,3C404.3,81.6,404.8,81.6,405.2,81.6z"/>
	<path d="M423,53.4h9v13h-9V53.4z"/>
	<path d="M485,132.8c-3.6,2.7-10.1,4.1-19.6,4.1c-3.4,0-6.7-0.3-10.1-0.9v-6.1c3.4,0.6,6.7,0.9,10.1,0.9c3.5,0,6.2-0.7,8.1-2.2
		c2.4-1.8,3.6-4.7,3.6-8.7v-33c0-6.2-2.2-9.6-6.5-10.4c1.6,1.3,2.4,3.1,2.4,5.2c0,5.4-3,8.1-8.9,8.1c-5.8,0-8.8-2.7-8.8-8.1
		c0-7.4,5.2-11.1,15.5-11.1c13.1,0,19.6,5.4,19.6,16.2v32.8C490.4,125.7,488.6,130.1,485,132.8z M460.7,81.8c0,2.1,1.2,3.2,3.5,3.2
		s3.5-1.1,3.5-3.2c0-2.2-1.2-3.2-3.5-3.2C461.9,78.5,460.7,79.6,460.7,81.8z"/>
	<path d="M515.5,119.8c-3.8-0.1-6.7-1-8.6-2.9c-2-1.8-3-4.6-3-8.3c0-4.8,1.2-8.3,3.6-10.3s6.6-3.1,12.5-3.1c3.5,0,6.4,1.3,8.7,4
		s4.1,5.7,5.5,9.2s2.5,5.2,3.5,5.2s1.4-1.1,1.4-3.2V85.6c0-5.8-4-8.7-11.9-8.7c-6.7,0-10,2.9-10,8.7H504c0-4.9,1.9-8.6,5.7-11.1
		c3.8-2.5,9.6-3.7,17.3-3.7c9.3,0,15.8,1.3,19.7,3.8c3.8,2.5,5.7,6.2,5.7,11.1v24.8c0,3.2-1,5.6-3,7.2c-1.9,1.5-4.6,2.2-8,2.2
		c-3.5,0-6.2-0.6-8.1-1.7c-1.9-1.1-3.3-3.1-4.2-5.8c-0.9-2.8-2.1-4.9-3.6-6.4c-1.4-1.5-3.3-2.3-5.5-2.3c-2.4,0-3.8,0.8-4.1,2.4
		c2.9,0,5.1,0.5,6.5,1.6c1.3,1,2,2.5,2,4.4c0.1,0.5,0.1,0.9,0.1,1.4c0,1.9-0.6,3.4-1.8,4.4C521.2,119.1,518.8,119.7,515.5,119.8z
		 M516.4,116.2c2.2,0,3.2-1,3.2-3s-1.1-3-3.2-3c-2.2,0-3.2,1-3.2,3S514.2,116.2,516.4,116.2z"/>
	<path d="M530.7,56.6c0.6,1.1,1,2.2,1,3.4s-0.3,2.3-1,3.4c-0.7,1.1-1.6,1.9-2.8,2.5s-2.4,0.9-3.6,0.9c-2.8,0-4.8-0.3-6-0.9
		s-2.1-1.4-2.7-2.5c-0.7-1.1-1-2.2-1-3.4c0-3.9,1.8-6.8,5.3-8.8c3.5-1.9,7.9-2.9,13.2-2.9c6.3,0,11.8,1.4,16.5,4.1
		c4.7,2.7,7.5,7.3,8.3,13.5h-13.3c-0.5-4.2-1.6-7.3-3.2-9.1s-3.7-2.8-6-2.8C532.8,54.1,531.2,54.9,530.7,56.6z M524.3,62.9
		c0.5,0,1-0.1,1.5-0.4c0.5-0.3,0.9-0.6,1.2-1s0.4-0.9,0.4-1.4s-0.1-0.9-0.4-1.4c-0.3-0.4-0.7-0.8-1.1-1c-0.5-0.2-1-0.3-1.5-0.3
		s-1,0.1-1.5,0.3s-0.8,0.6-1.1,1c-0.2,0.4-0.4,0.9-0.4,1.4s0.1,0.9,0.4,1.4c0.3,0.4,0.6,0.8,1.1,1C523.3,62.7,523.8,62.9,524.3,62.9
		z"/>
	<path d="M590.2,105.5c1.4,1.4,2.2,3.4,2.2,6.1s-0.7,4.7-2.2,6.1c-1.4,1.3-4.2,2-8.4,2c-4.3,0-7.6-0.7-9.9-2.2
		c-3.2-2-4.8-5.5-4.8-10.4V86.9c0-10.8,8.1-16.2,24.2-16.2c16.1,0,24.2,5.4,24.2,16.2v32.8h-13.3V86.9c0-6.7-3.6-10.1-10.9-10.1
		c-7.3,0-10.9,3.4-10.9,10.1v17.8c1.4-0.9,3.1-1.3,4.9-1.3C587.1,103.5,588.8,104.2,590.2,105.5z M586.5,114.2c0.7-0.5,1-1.4,1-2.6
		c0-1-0.3-1.8-0.8-2.3c-0.6-0.6-1.5-0.9-2.7-0.9c-2.3,0-3.5,1.1-3.5,3.2c0,1.3,0.4,2.2,1.2,2.7c0.6,0.3,1.3,0.5,2.3,0.5
		C585.1,114.8,586,114.6,586.5,114.2z"/>
	<path d="M634.9,119.8c-3.1,0-5.4-0.8-6.9-2.3c-1.3-1.4-1.9-3.3-1.9-5.8c0-2.6,0.6-4.5,1.9-5.8c1.5-1.5,3.8-2.3,6.9-2.3
		c1.1,0,2.2,0.1,3.1,0.3V86.5h-1.2c-3.8,0-6.6-0.8-8.4-2.3c-1.5-1.3-2.3-3.2-2.3-5.6c0-2.7,0.8-4.7,2.3-6s3.7-1.9,6.6-1.9
		c9.3,0,14.6,2,15.9,6c3.4-4,8.1-6,13.9-6c5,0,8.9,1,11.7,2.9c3.3,2.2,4.9,5.8,4.9,10.8v35.4H668V84.4c0-2.5-0.8-4.4-2.4-5.7
		c-1.5-1.2-3.3-1.8-5.3-1.8s-4.5,1.7-7.5,5.2l-1.5,2v24.5c0,3.9-1.1,6.8-3.3,8.6C646,118.9,641.7,119.8,634.9,119.8z M638,81.6v-1
		c0-3.4-1.1-5-3.3-5s-3.2,1-3.2,3s1.7,3,5.2,3C637.1,81.6,637.5,81.6,638,81.6z M631.4,111.6c0,2.1,1.2,3.2,3.5,3.2s3.5-1.1,3.5-3.2
		c0-2.2-1.2-3.2-3.5-3.2C632.6,108.4,631.4,109.5,631.4,111.6z"/>
	<path d="M715.6,85.6c2.3,0,4.3-0.9,6-2.8s2.7-4.9,3.2-9.1h13.3c-0.8,6.3-3.6,10.8-8.3,13.5s-10.2,4.1-16.5,4.1
		c-5.2,0-9.6-1-13.1-2.9s-5.3-4.9-5.3-8.8c0-1.2,0.3-2.3,1-3.4s1.6-1.9,2.7-2.5c1.2-0.6,3.2-0.9,6-0.9c1.2,0,2.4,0.3,3.6,0.9
		c1.2,0.6,2.1,1.4,2.8,2.5s1,2.2,1,3.4s-0.3,2.3-1,3.4C711.5,84.8,713,85.6,715.6,85.6z M715.6,112.2c2.3,0,4.3-0.9,6-2.8
		s2.7-4.9,3.2-9.1h13.3c-0.8,6.3-3.6,10.8-8.3,13.5s-10.2,4.1-16.5,4.1c-5.2,0-9.6-1-13.1-2.9s-5.3-4.9-5.3-8.8c0-1.2,0.3-2.3,1-3.4
		s1.6-1.9,2.7-2.5c1.2-0.6,3.2-0.9,6-0.9c1.2,0,2.4,0.3,3.6,0.9c1.2,0.6,2.1,1.4,2.8,2.5s1,2.2,1,3.4s-0.3,2.3-1,3.4
		C711.5,111.3,713,112.2,715.6,112.2z M703.1,77.2c-0.5,0.3-0.8,0.6-1.1,1s-0.4,0.9-0.4,1.4s0.1,0.9,0.4,1.4c0.2,0.4,0.6,0.8,1.1,1
		s1,0.3,1.5,0.3s1-0.1,1.5-0.3c0.5-0.2,0.9-0.6,1.1-1c0.3-0.4,0.4-0.9,0.4-1.4s-0.1-0.9-0.4-1.4c-0.3-0.4-0.7-0.8-1.2-1
		c-0.5-0.3-1-0.4-1.5-0.4C704,76.9,703.5,77,703.1,77.2z M703.1,103.8c-0.5,0.3-0.8,0.6-1.1,1s-0.4,0.9-0.4,1.4s0.1,0.9,0.4,1.4
		c0.2,0.4,0.6,0.8,1.1,1s1,0.3,1.5,0.3s1-0.1,1.5-0.3c0.5-0.2,0.9-0.6,1.1-1c0.3-0.4,0.4-0.9,0.4-1.4s-0.1-0.9-0.4-1.4
		c-0.3-0.4-0.7-0.8-1.2-1c-0.5-0.3-1-0.4-1.5-0.4C704,103.4,703.5,103.5,703.1,103.8z"/>
	<path d="M750.7,78.5c0-2.5,0.6-4.4,1.9-5.7c1.4-1.4,3.4-2.1,6.3-2.1c4.6,0,7.7,0.7,9.3,2c1.4,1.3,2.2,3.2,2.2,5.8
		c0,4.2-1.1,8.6-3.2,13.2s-3.2,8.8-3.2,12.6c0,6.2,3.3,9.3,9.8,9.3s9.8-3.4,9.8-10.1V70.7h13.3v32.8c0,10.8-7.7,16.2-23.1,16.2
		c-15.4,0-23.1-5.2-23.1-15.5c0-5.1,1.7-9.8,5.2-14.2c1.2-1.5,2.1-2.9,2.9-4.2c-2.8,0-4.9-0.7-6.3-2.1
		C751.3,82.5,750.7,80.8,750.7,78.5z M758.3,81.3c1.9,0,2.8-0.9,2.8-2.7c0-1.8-0.9-2.7-2.8-2.7c-1.9,0-2.8,0.9-2.8,2.7
		C755.4,80.3,756.4,81.3,758.3,81.3z"/>
	<path d="M831.2,85.6c2.3,0,4.3-0.9,6-2.8s2.7-4.9,3.2-9.1h13.3c-0.8,6.3-3.6,10.8-8.3,13.5s-10.2,4.1-16.5,4.1
		c-5.2,0-9.6-1-13.1-2.9s-5.3-4.9-5.3-8.8c0-1.2,0.3-2.3,1-3.4s1.6-1.9,2.7-2.5c1.2-0.6,3.2-0.9,6-0.9c1.2,0,2.4,0.3,3.6,0.9
		c1.2,0.6,2.1,1.4,2.8,2.5s1,2.2,1,3.4s-0.3,2.3-1,3.4C827.1,84.8,828.6,85.6,831.2,85.6z M831.2,112.2c2.3,0,4.3-0.9,6-2.8
		s2.7-4.9,3.2-9.1h13.3c-0.8,6.3-3.6,10.8-8.3,13.5s-10.2,4.1-16.5,4.1c-5.2,0-9.6-1-13.1-2.9s-5.3-4.9-5.3-8.8c0-1.2,0.3-2.3,1-3.4
		s1.6-1.9,2.7-2.5c1.2-0.6,3.2-0.9,6-0.9c1.2,0,2.4,0.3,3.6,0.9c1.2,0.6,2.1,1.4,2.8,2.5s1,2.2,1,3.4s-0.3,2.3-1,3.4
		C827.1,111.3,828.6,112.2,831.2,112.2z M818.7,77.2c-0.5,0.3-0.8,0.6-1.1,1s-0.4,0.9-0.4,1.4s0.1,0.9,0.4,1.4
		c0.2,0.4,0.6,0.8,1.1,1s1,0.3,1.5,0.3s1-0.1,1.5-0.3c0.5-0.2,0.9-0.6,1.1-1c0.3-0.4,0.4-0.9,0.4-1.4s-0.1-0.9-0.4-1.4
		c-0.3-0.4-0.7-0.8-1.2-1c-0.5-0.3-1-0.4-1.5-0.4C819.7,76.9,819.2,77,818.7,77.2z M818.7,103.8c-0.5,0.3-0.8,0.6-1.1,1
		s-0.4,0.9-0.4,1.4s0.1,0.9,0.4,1.4c0.2,0.4,0.6,0.8,1.1,1s1,0.3,1.5,0.3s1-0.1,1.5-0.3c0.5-0.2,0.9-0.6,1.1-1
		c0.3-0.4,0.4-0.9,0.4-1.4s-0.1-0.9-0.4-1.4c-0.3-0.4-0.7-0.8-1.2-1c-0.5-0.3-1-0.4-1.5-0.4C819.7,103.4,819.2,103.5,818.7,103.8z"
		/>
	<path d="M884.6,87c-1.9,0-3.5-0.4-4.9-1.3v2c0,3.6,2.5,5.4,7.5,5.4h1.4c1.5,0,2.3,1,2.3,2.9s-0.8,2.9-2.3,2.9h-1.4
		c-5,0-7.5,2.4-7.5,7.2c0,2.6,0.8,4.5,2.4,5.7c1.6,1.2,4.7,1.8,9.3,1.8c3.4,0,6-0.8,7.7-2.3s2.6-4.1,2.6-7.7V70.7H915v32.8
		c0,5.5-2,9.6-5.9,12.2c-3.9,2.7-9.8,4-17.7,4c-9.1,0-15.5-1.2-19.4-3.5c-3.7-2.3-5.5-5.6-5.5-10.1c0-4.9,2.5-8.4,7.5-10.2
		c-5-2.1-7.5-4.8-7.5-8.1v-4.5c0-4.9,1.6-8.3,4.8-10.4c2.3-1.5,5.6-2.2,9.9-2.2c4.2,0,7,0.7,8.4,2c1.5,1.4,2.2,3.4,2.2,6.1
		s-0.7,4.8-2.2,6.1C888.1,86.3,886.4,87,884.6,87z M883.4,75.7c-1,0-1.7,0.2-2.3,0.5c-0.8,0.5-1.2,1.4-1.2,2.7
		c0,2.2,1.2,3.2,3.5,3.2c1.2,0,2.1-0.3,2.7-0.9c0.5-0.5,0.8-1.3,0.8-2.3c0-1.2-0.3-2-1-2.6C885.3,75.9,884.5,75.7,883.4,75.7z"/>
	<path d="M893,56.6c0.6,1.1,1,2.2,1,3.4s-0.3,2.3-1,3.4c-0.7,1.1-1.6,1.9-2.8,2.5s-2.4,0.9-3.6,0.9c-2.8,0-4.8-0.3-6-0.9
		s-2.1-1.4-2.7-2.5c-0.7-1.1-1-2.2-1-3.4c0-3.9,1.8-6.8,5.3-8.8c3.5-1.9,7.9-2.9,13.2-2.9c6.3,0,11.8,1.4,16.5,4.1
		c4.7,2.7,7.5,7.3,8.3,13.5h-13.3c-0.5-4.2-1.6-7.3-3.2-9.1s-3.7-2.8-6-2.8C895.1,54.1,893.6,54.9,893,56.6z M886.6,62.9
		c0.5,0,1-0.1,1.5-0.4c0.5-0.3,0.9-0.6,1.2-1s0.4-0.9,0.4-1.4s-0.1-0.9-0.4-1.4c-0.3-0.4-0.7-0.8-1.1-1c-0.5-0.2-1-0.3-1.5-0.3
		s-1,0.1-1.5,0.3s-0.8,0.6-1.1,1c-0.2,0.4-0.4,0.9-0.4,1.4s0.1,0.9,0.4,1.4c0.3,0.4,0.6,0.8,1.1,1C885.6,62.7,886.1,62.9,886.6,62.9
		z"/>
	<path d="M934.2,119.8c-3.1,0-5.4-0.8-6.9-2.3c-1.3-1.4-1.9-3.3-1.9-5.8c0-2.6,0.6-4.5,1.9-5.8c1.5-1.5,3.8-2.3,6.9-2.3
		c1.1,0,2.2,0.1,3.1,0.3V86.5h-1.2c-3.8,0-6.6-0.8-8.4-2.3c-1.5-1.3-2.3-3.2-2.3-5.6c0-2.7,0.8-4.7,2.3-6s3.7-1.9,6.6-1.9
		c9.3,0,14.6,2,15.9,6c3.4-4,8.1-6,13.9-6c5,0,8.9,1,11.7,2.9c3.3,2.2,4.9,5.8,4.9,10.8v35.4h-13.3V84.4c0-2.5-0.8-4.4-2.4-5.7
		c-1.5-1.2-3.3-1.8-5.3-1.8s-4.5,1.7-7.5,5.2l-1.5,2v24.5c0,3.9-1.1,6.8-3.3,8.6C945.4,118.9,941,119.8,934.2,119.8z M937.3,81.6v-1
		c0-3.4-1.1-5-3.3-5s-3.2,1-3.2,3s1.7,3,5.2,3C936.4,81.6,936.9,81.6,937.3,81.6z M930.8,111.6c0,2.1,1.2,3.2,3.5,3.2
		s3.5-1.1,3.5-3.2c0-2.2-1.2-3.2-3.5-3.2C931.9,108.4,930.8,109.5,930.8,111.6z"/>
	<path d="M1032.7,74.6c0.5-1.7,0.8-3.7,0.9-6l9.1,1.3c-0.4,3.6-1.2,6.6-2.2,9.3c1.4,1.9,2.2,4.1,2.2,6.4v24.8c0,3.2-1,5.6-3,7.2
		c-1.9,1.5-4.6,2.2-8,2.2c-3.5,0-6.2-0.6-8.1-1.7s-3.3-3.1-4.2-5.8c-0.9-2.8-2.1-4.8-3.6-6.2c-1.4-1.4-3.7-2.1-6.9-2.1
		c-1.5,0-2.4,0.7-2.7,2c2.9,0,5.1,0.5,6.5,1.6c1.3,1,2,2.5,2,4.4c0.1,0.5,0.1,0.9,0.1,1.4c0,1.9-0.6,3.4-1.8,4.4
		c-1.5,1.3-3.9,1.9-7.2,2c-3.8-0.1-6.7-1-8.6-2.9c-2-1.8-3-4.6-3-8.3c0-3.1,1.2-5.7,3.6-7.7c2.4-2,6.1-3,11.1-3
		c4.4,0,7.8,0.9,10.1,2.7c2.3,1.8,4.1,4.4,5.5,7.9s2.5,5.2,3.5,5.2s1.4-1.1,1.4-3.2V87.6c-3,2.9-7.7,4.4-14.3,4.4
		c-7.2,0-12.5-0.7-15.8-2.2s-5.1-4.1-5.1-7.8s1.7-6.5,5.1-8.4c3.4-1.9,8.7-2.9,15.8-2.9C1022.1,70.7,1028,72,1032.7,74.6z
		 M1006.5,116.2c2.2,0,3.2-1,3.2-3s-1.1-3-3.2-3c-2.2,0-3.2,1-3.2,3S1004.4,116.2,1006.5,116.2z M1027.6,81c-1-1.2-2.2-2.2-3.7-3
		c-1.4-0.8-4.4-1.2-8.9-1.2c-2.7,0-4.6,0.5-5.8,1.6s-1.8,2.3-1.8,3.5s0.6,2.2,1.8,2.8c1.2,0.7,3.1,1,5.8,1c4.5,0,7.4-0.4,8.8-1.2
		C1025.3,83.8,1026.5,82.6,1027.6,81z"/>
	<path d="M1029.1,129.7c-0.3,0.9-0.5,1.7-0.5,2.5c0,0.3,0,0.7,0.1,1c0.2,0.6,0.9,0.9,2,0.9c1.4,0,2.2-1.6,2.2-4.9v-6.8h7.5v7
		c0,5.5-3.2,8.3-9.6,8.3c-4.8,0-7.6-0.7-8.4-2.2c-0.5-0.9-0.7-1.7-0.7-2.4c0-0.6,0.1-1.2,0.4-1.7c-0.9,0-1.7-0.2-2.5-0.6
		c-0.9-0.4-1.5-1-1.9-1.7s-0.6-1.5-0.6-2.2c0-0.8,0.2-1.6,0.6-2.3c0.4-0.7,1.1-1.3,1.9-1.6c0.9-0.4,2.4-0.6,4.5-0.6
		c1.2,0,2.3,0.2,3.1,0.6c0.8,0.4,1.5,0.9,2,1.6s0.7,1.5,0.7,2.3C1029.8,127.6,1029.6,128.5,1029.1,129.7z M1021.4,125.6
		c-0.2,0.1-0.4,0.3-0.6,0.6c-0.1,0.2-0.2,0.5-0.2,0.8s0.1,0.5,0.2,0.8c0.1,0.2,0.3,0.4,0.5,0.6c0.2,0.1,0.7,0.2,1.5,0.3
		c0.4-0.6,0.6-1.1,0.6-1.6c0-0.3-0.1-0.5-0.2-0.8c-0.1-0.2-0.3-0.4-0.5-0.6c-0.2-0.1-0.4-0.2-0.7-0.2
		C1021.8,125.4,1021.6,125.5,1021.4,125.6z"/>
	<path d="M1082.9,132.8c-3.6,2.7-10.1,4.1-19.6,4.1c-3.4,0-6.7-0.3-10.1-0.9v-6.1c3.4,0.6,6.7,0.9,10.1,0.9c3.5,0,6.2-0.7,8.1-2.2
		c2.4-1.8,3.6-4.7,3.6-8.7v-33c0-6.2-2.2-9.6-6.5-10.4c1.6,1.3,2.4,3.1,2.4,5.2c0,5.4-3,8.1-8.9,8.1c-5.8,0-8.8-2.7-8.8-8.1
		c0-7.4,5.2-11.1,15.5-11.1c13.1,0,19.6,5.4,19.6,16.2v32.8C1088.3,125.7,1086.5,130.1,1082.9,132.8z M1058.6,81.8
		c0,2.1,1.2,3.2,3.5,3.2s3.5-1.1,3.5-3.2c0-2.2-1.2-3.2-3.5-3.2C1059.7,78.5,1058.6,79.6,1058.6,81.8z"/>
	<path d="M1152.6,104.8c0,1.5-0.1,2.9-0.4,4.2c1.8,0.1,3.6,1,5.3,2.6c1.8,1.3,4,2,6.7,2c3.4,0,5.1-2.5,5.1-7.5V70.7h13.3v35.4
		c0,9.1-5.8,13.6-17.5,13.6c-4.6,0-8.5-1.5-11.5-4.5c-1-1-2.1-1.5-3.3-1.6c-2.7,4.1-6.4,6.1-11.2,6.1c-7.8,0-11.8-3.1-11.8-9.4
		c0-4.6,2.5-6.9,7.4-6.9c1.8,0,3.3,0.3,4.5,0.9V70.7h13.3L1152.6,104.8L1152.6,104.8z M1134.9,113c1.9,0,2.9-0.9,2.9-2.6
		s-1-2.6-2.9-2.6s-2.8,0.9-2.8,2.6S1133,113,1134.9,113z"/>
	<path d="M1215.7,119.8V86.9c0-3.3-0.6-5-1.8-5.1c0,5.4-3,8.1-8.9,8.1c-5.8,0-8.8-2.7-8.8-8.1c0-7.4,4.7-11.1,14.1-11.1
		c12.5,0,18.7,5.4,18.7,16.2v32.8L1215.7,119.8L1215.7,119.8z M1204.3,81.8c0,2.1,0.7,3.2,2.1,3.2s2.1-1.1,2.1-3.2
		c0-1.3-0.7-2-2.1-2S1204.3,80.5,1204.3,81.8z"/>
	<path d="M1267.7,105.5c1.4,1.4,2.2,3.4,2.2,6.1s-0.7,4.7-2.2,6.1c-1.4,1.3-4.2,2-8.4,2c-4.3,0-7.6-0.7-9.9-2.2
		c-3.2-2-4.8-5.5-4.8-10.4V86.9c0-10.8,8.1-16.2,24.2-16.2s24.2,5.4,24.2,16.2v32.8h-13.3V86.9c0-6.7-3.6-10.1-10.9-10.1
		s-10.9,3.4-10.9,10.1v17.8c1.4-0.9,3.1-1.3,4.9-1.3C1264.5,103.5,1266.2,104.2,1267.7,105.5z M1264,114.2c0.7-0.5,1-1.4,1-2.6
		c0-1-0.3-1.8-0.8-2.3c-0.6-0.6-1.5-0.9-2.7-0.9c-2.3,0-3.5,1.1-3.5,3.2c0,1.3,0.4,2.2,1.2,2.7c0.6,0.3,1.3,0.5,2.3,0.5
		C1262.6,114.8,1263.4,114.6,1264,114.2z"/>
	<path d="M1320.8,106.7c0.9-0.4,1.9-0.6,2.9-0.6c1.2,0,2.3,0.3,3.4,0.8s2,1.3,2.6,2.4c0.6,1,0.9,2.1,0.9,3.2c0,2.4-0.7,4.1-2,5.3
		c-1.4,1.3-3.5,1.9-6.3,1.9c-4.7,0-8.3-1-10.8-3c-2.6-2.1-4-5.4-4-9.8V83.5c0-4.5,1.3-7.8,4-9.9c2.4-1.9,5.9-2.9,10.5-2.9
		c2.7,0,5.6,0.4,8.6,1.3v6.1c-2.4-0.9-4.2-1.3-5.4-1.3c-1.5,0-2.6,0.5-3.3,1.5c-0.7,1-1.1,2.7-1.1,5.1L1320.8,106.7L1320.8,106.7z
		 M1322.5,110.7c-0.4,0.2-0.7,0.4-0.9,0.8c-0.2,0.3-0.3,0.7-0.3,1.1s0.1,0.7,0.3,1.1c0.2,0.3,0.5,0.6,0.9,0.8
		c0.4,0.2,0.8,0.3,1.2,0.3s0.8-0.1,1.2-0.3c0.4-0.2,0.7-0.4,0.9-0.8c0.2-0.3,0.3-0.7,0.3-1.1s-0.1-0.7-0.3-1.1
		c-0.2-0.3-0.5-0.6-0.9-0.8c-0.4-0.2-0.7-0.3-1.1-0.3S1322.8,110.5,1322.5,110.7z"/>
	<path d="M1390.4,70.7c12.7,0,19.1,5.2,19.1,15.6v33.5h-13.3V86.3c0-6.3-1.9-9.4-5.8-9.4s-5.8,3.1-5.8,9.4v18.8
		c0,9.8-6.9,14.7-20.7,14.7s-20.7-4.9-20.7-14.7c0-5.6,1.8-10.6,5.4-15.1c1.2-1.5,2.3-2.9,3.1-4.2c-2.8,0-4.9-0.7-6.3-1.9
		s-2.1-3-2.1-5.5c0-2.6,0.7-4.5,2.1-5.8s3.6-1.9,6.4-1.9c4.7,0,7.9,0.6,9.5,1.9s2.4,3.2,2.4,5.8c0,3.6-1.2,7.8-3.6,12.7
		c-2.4,4.9-3.6,9.5-3.6,13.9c0,5.7,2.5,8.5,7.4,8.5c5,0,7.4-2.8,7.4-8.5V86.3C1371.3,75.9,1377.7,70.7,1390.4,70.7z M1351,81.2
		c2,0,3-0.9,3-2.7c0-1.8-1-2.7-3-2.7s-3,0.9-3,2.7C1348.1,80.3,1349,81.2,1351,81.2z"/>
	<path d="M1379.3,60c-1-0.6-1.5-1.3-1.5-2.3v-0.3c0.1-1.1,0.9-1.9,2.2-2.6c1.1-0.5,2.4-0.7,3.8-0.7c0.3,0,0.6,0,1,0
		c3.7,0.1,5.9,0.6,6.6,1.5c0.6,0.8,0.9,1.7,0.9,2.8v0.3c-0.1,1.3-1.3,2.7-3.6,4.5c2.4-0.2,4.6-1,6.6-2.4s3.6-3.3,4.8-5.6l9.7,1.8
		c-1.9,2.5-3.8,4.3-5.6,5.5s-4.2,2.1-7,2.9s-7.1,1.1-13,1.1h-9.9v-2.8c4.2-0.6,7.1-1.5,8.8-2.7C1381.5,60.8,1380.2,60.5,1379.3,60z
		 M1385.5,58.8c0.2-0.4,0.3-0.7,0.3-0.9s0-0.3-0.1-0.5c-0.4-0.5-0.9-0.8-1.6-0.8h-0.4c-0.6,0.1-0.9,0.5-0.9,1.1v0.1
		c0,0.5,0.2,0.9,0.7,0.9c0.4,0.1,0.9,0.1,1.3,0.1C1385.1,58.8,1385.3,58.8,1385.5,58.8z"/>
	<path d="M1423.1,83.5c0-5.1,3.3-9.5,9.9-13l-13.8-11.3c-2.1-1.7-3.2-3.9-3.4-6.7v-0.3c0-2,0.6-3.8,1.9-5.3c1.9-1.8,3.9-2.7,6.1-2.9
		c0.3,0,0.7,0,1,0c2.7,0,5,0.7,6.8,2.2l4.9,3.9c4.9,4.1,8.6,6.1,11.1,6.1c0.3,0,0.6,0,0.9-0.1V61c-1.5,0.5-2.9,0.7-4.2,0.7
		c-0.7,0-1.3-0.1-2-0.2c-1.8-0.4-5.5-3-11.1-7.8c-1-0.9-1.9-1.3-2.8-1.3s-1.7,0.4-2.4,1.3c-0.3,0.3-0.4,0.7-0.4,1
		c0,0.8,0.6,1.6,1.8,2.6l16.3,13.3l0.2,0.1h-0.1l0.1,0.1h-0.2c-3.9,2.4-6.1,4.5-6.6,6.4c-0.5,1.8-0.7,4-0.7,6.3v23.2
		c0.9-0.4,1.9-0.6,2.9-0.6c1.2,0,2.3,0.3,3.4,0.8s2,1.3,2.6,2.4c0.6,1,0.9,2.1,0.9,3.2c0,2.4-0.7,4.1-2,5.3
		c-1.4,1.3-3.5,1.9-6.3,1.9c-4.7,0-8.3-1-10.8-3c-2.6-2.1-4-5.4-4-9.8L1423.1,83.5L1423.1,83.5z M1437.3,111.4
		c-0.2,0.3-0.3,0.7-0.3,1.1s0.1,0.7,0.3,1.1c0.2,0.3,0.5,0.6,0.9,0.8c0.4,0.2,0.8,0.3,1.2,0.3s0.8-0.1,1.2-0.3
		c0.4-0.2,0.7-0.4,0.9-0.8c0.2-0.3,0.3-0.7,0.3-1.1s-0.1-0.7-0.3-1.1c-0.2-0.3-0.5-0.6-0.9-0.8s-0.7-0.3-1.1-0.3s-0.8,0.1-1.2,0.3
		S1437.5,111.1,1437.3,111.4z"/>
	<path d="M1472.4,104.8c1.4-0.9,3.1-1.3,4.9-1.3s3.5,0.7,5,2c1.4,1.4,2.2,3.4,2.2,6.1s-0.7,4.7-2.2,6.1c-1.4,1.3-4.2,2-8.4,2
		c-4.3,0-7.6-0.7-9.9-2.2c-3.2-2-4.8-5.5-4.8-10.4V86.9c0-6.1,1.4-10.3,4.2-12.7s6.1-3.5,9.9-3.5c3.9,0,7.3,2,10.1,6.1
		c2.8-4.1,6.2-6.1,10.1-6.1c3.8,0,7.1,1.2,9.9,3.6s4.2,6.6,4.2,12.6v32.8h-13.3V86.9c0-6.7-0.7-10.1-2-10.1s-4.3,2.6-9,7.8
		c-4.6-5.2-7.6-7.8-9-7.8c-1.3,0-2,3.4-2,10.1v17.9H1472.4z M1478.6,114.2c0.7-0.5,1-1.4,1-2.6c0-1-0.3-1.8-0.8-2.3
		c-0.6-0.6-1.5-0.9-2.7-0.9c-2.3,0-3.5,1.1-3.5,3.2c0,1.3,0.4,2.2,1.2,2.7c0.6,0.3,1.3,0.5,2.3,0.5
		C1477.2,114.8,1478,114.6,1478.6,114.2z"/>
	<path d="M1552.6,119.8c-5.4,0-8.8-1.5-10.1-4.5c-0.6-1.3-0.9-2.6-0.9-4c0-1.6,0.4-3.1,1.2-4.7c1.6-2.9,2.4-4.5,2.4-4.6
		c-0.6,0.5-2,0.8-3.9,0.8h-0.3c-2.5-0.3-4.4-1.2-5.7-2.5c-1.3-1.3-2-3.2-2.1-5.6v-0.4c0-2.2,0.7-3.9,2-5.2c1.4-1.4,3.6-2.3,6.4-2.7
		h0.2c3,0,5.4,0.6,7.1,1.7c1.6,1,2.6,2.5,3,4.5c0.3,1.5,0.5,2.8,0.5,4.2c0,2.2-0.4,4.1-1.2,5.9c-1.4,2.9-2,5.7-2,8.2
		c0,1.9,1.2,2.9,3.5,2.9c2,0,3-0.9,3-2.6V85.6c0-3-1.2-5.3-3.5-6.6c-2.4-1.4-5.1-2.1-8.3-2.1c-4.9,0-8.2,0.7-9.8,2.1
		c-1.7,1.4-2.5,3.6-2.5,6.6h-13.3c0-4.9,1.9-8.6,5.7-11.1c3.8-2.5,10.4-3.7,19.7-3.7c16.9,0,25.4,4.9,25.4,14.8v25.6
		c0,2.6-0.8,4.7-2.5,6.1C1564.5,118.9,1559.9,119.8,1552.6,119.8z M1542.7,97.5c2.3,0,3.5-1,3.5-3c0-1.9-1.1-2.9-3.3-2.9
		c-2.3,0-3.5,1-3.6,2.9v0.2C1539.3,96.6,1540.4,97.5,1542.7,97.5L1542.7,97.5z"/>
	<path d="M1545.6,53.8c-4,0-6.6,0.2-7.8,0.7c-1.2,0.5-2,1.1-2.5,1.9c-0.2,0.3-0.3,0.6-0.3,0.9c0,0.5,0.3,0.9,0.8,1.3
		c0.8,0.6,2.2,1.5,4.1,2.7l-2.8,3.4c-0.2,0-0.4,0-0.6,0c-1.7-0.6-3.1-1.1-4.2-1.6s-2.3-1.1-3.4-1.8s-1.9-1.3-2.2-1.9
		c-0.4-0.5-0.6-1.3-0.8-2.2c0-1.1,0.8-2.3,2.5-3.6c1.6-1.3,3.9-2.2,6.7-2.8c2.8-0.5,6.7-0.8,11.6-0.8s8.8,0.3,11.6,0.8
		c2.8,0.5,5.1,1.5,6.7,2.8s2.4,2.5,2.4,3.6c-0.2,1-0.4,1.7-0.8,2.2s-1.1,1.2-2.2,2s-2.3,1.5-3.4,2s-2.5,0.9-4.2,1.3
		c-0.2,0-0.4,0-0.6,0l-2.7-3.4c1.8-1.3,3.2-2.2,4-2.7c0.5-0.4,0.8-0.8,0.8-1.3c0-0.3-0.1-0.5-0.3-0.9c-0.5-0.8-1.4-1.5-2.5-1.9
		c-1.2-0.5-3.8-0.7-7.8-0.7H1545.6z"/>
	<path d="M1609.2,132.8c-3.6,2.7-10.1,4.1-19.6,4.1c-3.4,0-6.7-0.3-10.1-0.9v-6.1c3.4,0.6,6.7,0.9,10.1,0.9c3.5,0,6.2-0.7,8.1-2.2
		c2.4-1.8,3.6-4.7,3.6-8.7v-33c0-6.2-2.2-9.6-6.5-10.4c1.6,1.3,2.4,3.1,2.4,5.2c0,5.4-3,8.1-8.9,8.1c-5.8,0-8.8-2.7-8.8-8.1
		c0-7.4,5.2-11.1,15.5-11.1c13.1,0,19.6,5.4,19.6,16.2v32.8C1614.5,125.7,1612.8,130.1,1609.2,132.8z M1584.8,81.8
		c0,2.1,1.2,3.2,3.5,3.2s3.5-1.1,3.5-3.2c0-2.2-1.2-3.2-3.5-3.2C1586,78.5,1584.8,79.6,1584.8,81.8z"/>
</g>
</svg>
