<?xml version="1.0" encoding="utf-8"?>
<!-- Generator: Adobe Illustrator 23.0.4, SVG Export Plug-In . SVG Version: 6.00 Build 0)  -->
<svg version="1.1" id="Capa_1" xmlns="http://www.w3.org/2000/svg" xmlns:xlink="http://www.w3.org/1999/xlink" x="0px" y="0px"
	 viewBox="0 0 1757.7 173.6" style="enable-background:new 0 0 1757.7 173.6;" xml:space="preserve">
<style type="text/css">
	.st0{fill:none;}
</style>
<g>
	<path class="st0" d="M6.5,106.2c0-1.3,0.2-2.4,0.6-3.4c0.4-0.9,1-1.7,1.7-2.2c0.7-0.6,1.6-1,2.6-1.2c1-0.3,2-0.4,3.1-0.4
		s2.1,0.1,3,0.4c1,0.3,1.8,0.7,2.5,1.2c0.7,0.6,1.3,1.3,1.7,2.2c0.4,0.9,0.6,2,0.6,3.4c0,1.3-0.2,2.3-0.6,3.2
		c-0.4,0.9-1,1.6-1.7,2.2s-1.6,1-2.5,1.3c-1,0.3-2,0.4-3,0.4c-1.1,0-2.2-0.1-3.1-0.4c-1-0.3-1.8-0.7-2.6-1.3
		c-0.7-0.6-1.3-1.3-1.7-2.2S6.5,107.4,6.5,106.2z"/>
	<path class="st0" d="M33.1,106.2c0-1.3,0.2-2.4,0.6-3.4c0.4-0.9,1-1.7,1.7-2.2c0.7-0.6,1.6-1,2.6-1.2c1-0.3,2-0.4,3.1-0.4
		s2.1,0.1,3,0.4c1,0.3,1.8,0.7,2.5,1.2c0.7,0.6,1.3,1.3,1.7,2.2c0.4,0.9,0.6,2,0.6,3.4c0,1.3-0.2,2.3-0.6,3.2
		c-0.4,0.9-1,1.6-1.7,2.2s-1.6,1-2.5,1.3c-1,0.3-2,0.4-3,0.4c-1.1,0-2.2-0.1-3.1-0.4c-1-0.3-1.8-0.7-2.6-1.3
		c-0.7-0.6-1.3-1.3-1.7-2.2C33.3,108.5,33.1,107.4,33.1,106.2z"/>
	<path class="st0" d="M59.8,106.2c0-1.3,0.2-2.4,0.6-3.4c0.4-0.9,1-1.7,1.7-2.2c0.7-0.6,1.6-1,2.6-1.2c1-0.3,2-0.4,3.1-0.4
		s2.1,0.1,3,0.4c1,0.3,1.8,0.7,2.5,1.2c0.7,0.6,1.3,1.3,1.7,2.2c0.4,0.9,0.6,2,0.6,3.4c0,1.3-0.2,2.3-0.6,3.2
		c-0.4,0.9-1,1.6-1.7,2.2s-1.6,1-2.5,1.3c-1,0.3-2,0.4-3,0.4c-1.1,0-2.2-0.1-3.1-0.4c-1-0.3-1.8-0.7-2.6-1.3
		c-0.7-0.6-1.3-1.3-1.7-2.2C60,108.5,59.8,107.4,59.8,106.2z"/>
	<path class="st0" d="M1682,106.2c0-1.3,0.2-2.4,0.6-3.4c0.4-0.9,1-1.7,1.7-2.2c0.7-0.6,1.6-1,2.6-1.2c1-0.3,2-0.4,3.1-0.4
		s2.1,0.1,3,0.4s1.8,0.7,2.5,1.2c0.7,0.6,1.3,1.3,1.7,2.2c0.4,0.9,0.6,2,0.6,3.4c0,1.3-0.2,2.3-0.6,3.2c-0.4,0.9-1,1.6-1.7,2.2
		s-1.6,1-2.5,1.3c-1,0.3-2,0.4-3,0.4c-1.1,0-2.2-0.1-3.1-0.4c-1-0.3-1.8-0.7-2.6-1.3c-0.7-0.6-1.3-1.3-1.7-2.2
		C1682.2,108.5,1682,107.4,1682,106.2z"/>
	<path class="st0" d="M1708.6,106.2c0-1.3,0.2-2.4,0.6-3.4c0.4-0.9,1-1.7,1.7-2.2c0.7-0.6,1.6-1,2.6-1.2c1-0.3,2-0.4,3.1-0.4
		s2.1,0.1,3,0.4s1.8,0.7,2.5,1.2c0.7,0.6,1.3,1.3,1.7,2.2c0.4,0.9,0.6,2,0.6,3.4c0,1.3-0.2,2.3-0.6,3.2c-0.4,0.9-1,1.6-1.7,2.2
		s-1.6,1-2.5,1.3c-1,0.3-2,0.4-3,0.4c-1.1,0-2.2-0.1-3.1-0.4c-1-0.3-1.8-0.7-2.6-1.3c-0.7-0.6-1.3-1.3-1.7-2.2
		S1708.6,107.4,1708.6,106.2z"/>
	<path class="st0" d="M1735.2,106.2c0-1.3,0.2-2.4,0.6-3.4c0.4-0.9,1-1.7,1.7-2.2c0.7-0.6,1.6-1,2.6-1.2c1-0.3,2-0.4,3.1-0.4
		s2.1,0.1,3,0.4s1.8,0.7,2.5,1.2c0.7,0.6,1.3,1.3,1.7,2.2c0.4,0.9,0.6,2,0.6,3.4c0,1.3-0.2,2.3-0.6,3.2c-0.4,0.9-1,1.6-1.7,2.2
		s-1.6,1-2.5,1.3c-1,0.3-2,0.4-3,0.4c-1.1,0-2.2-0.1-3.1-0.4c-1-0.3-1.8-0.7-2.6-1.3c-0.7-0.6-1.3-1.3-1.7-2.2
		C1735.5,108.5,1735.2,107.4,1735.2,106.2z"/>
</g>
<g>
	<path d="M95.8,114.8c-2.9-2.6-4.3-7.1-4.3-13.2V79.9c0-4.3,1.4-7.4,4.1-9.3c1.9-1.3,4.8-2,8.4-2c3.4,0,5.8,0.7,7.2,2
		s2.1,3.1,2.1,5.2c0,2.4-0.5,4.3-1.4,5.5s-2.2,1.8-3.7,1.8c-1.3,0-2.5-0.2-3.4-0.5v18.8c0,4.4,0.6,7.3,1.9,8.8
		c0.7,0.8,1.6,1.2,2.6,1.2c2.8,0,4.2-2.9,4.2-8.8v-3h6.6v3c0,5.9,1.4,8.8,4.2,8.8c1.1,0,2-0.5,2.7-1.4c1.2-1.6,1.8-4.5,1.8-8.7V82.7
		c-1,0.3-2.1,0.5-3.4,0.5c-1.5,0-2.8-0.6-3.7-1.8c-0.9-1.2-1.4-3-1.4-5.5c0-2.1,0.7-3.8,2.1-5.2s3.8-2,7.2-2c3.7,0,6.5,0.7,8.4,2
		c0.5,0.3,0.9,0.7,1.2,1c0.7-1,1.1-2.1,1.1-3.2c0-0.5-0.1-1-0.2-1.6l5-0.3c0.2,0.7,0.2,1.5,0.2,2.1c0,2.8-1.2,5.3-3.6,7.7
		c0.2,1.1,0.4,2.2,0.4,3.5v21.6c0,6.1-1.4,10.5-4.2,13.2c-2.2,2-5.6,3-10.3,3c-5,0-8.6-1.7-10.8-5c-2.2,3.3-5.8,5-10.8,5
		C101.3,117.8,97.9,116.8,95.8,114.8z M108.8,76c0-1.8-1-2.7-3-2.7s-3,0.9-3,2.7c0,1.8,1,2.7,3,2.7S108.8,77.8,108.8,76z
		 M127.4,78.7c1,0,2-0.6,3-1.7c-0.3-2.5-1.3-3.7-3-3.7s-2.5,0.9-2.5,2.7C124.9,77.8,125.7,78.7,127.4,78.7z"/>
	<path d="M128.7,127.7c-0.3,0.9-0.5,1.7-0.5,2.5c0,0.3,0,0.7,0.1,1c0.2,0.6,0.9,0.9,2,0.9c1.4,0,2.2-1.6,2.2-4.9v-6.8h7.5v7
		c0,5.5-3.2,8.3-9.6,8.3c-4.8,0-7.6-0.7-8.4-2.2c-0.5-0.9-0.7-1.7-0.7-2.4c0-0.6,0.1-1.2,0.4-1.7c-0.9,0-1.7-0.2-2.5-0.6
		c-0.9-0.4-1.5-1-1.9-1.7s-0.6-1.5-0.6-2.2c0-0.8,0.2-1.6,0.6-2.3c0.4-0.7,1.1-1.3,1.9-1.6c0.9-0.4,2.4-0.6,4.5-0.6
		c1.2,0,2.3,0.2,3.1,0.6c0.8,0.4,1.5,0.9,2,1.6s0.7,1.5,0.7,2.3C129.4,125.6,129.2,126.5,128.7,127.7z M121,123.6
		c-0.2,0.1-0.4,0.3-0.6,0.6c-0.1,0.2-0.2,0.5-0.2,0.8s0.1,0.5,0.2,0.8c0.1,0.2,0.3,0.4,0.5,0.6c0.2,0.1,0.7,0.2,1.5,0.3
		c0.4-0.6,0.6-1.1,0.6-1.6c0-0.3-0.1-0.5-0.2-0.8c-0.1-0.2-0.3-0.4-0.5-0.6c-0.2-0.1-0.4-0.2-0.7-0.2
		C121.4,123.4,121.2,123.5,121,123.6z"/>
	<path d="M112,58c-1-0.6-1.5-1.3-1.5-2.3v-0.3c0.1-1.1,0.9-1.9,2.2-2.6c1.1-0.5,2.4-0.7,3.8-0.7c0.3,0,0.6,0,1,0
		c3.7,0.1,5.9,0.6,6.6,1.5c0.6,0.8,0.9,1.7,0.9,2.8v0.3c-0.1,1.3-1.3,2.7-3.6,4.5c2.4-0.2,4.6-1,6.6-2.4s3.6-3.3,4.8-5.6l9.7,1.8
		c-1.9,2.5-3.8,4.3-5.6,5.5c-1.9,1.2-4.2,2.1-7,2.9s-7.1,1.1-13,1.1H107v-2.8c4.2-0.6,7.1-1.5,8.8-2.7C114.2,58.8,113,58.5,112,58z
		 M118.3,56.8c0.2-0.4,0.3-0.7,0.3-0.9s0-0.3-0.1-0.5c-0.4-0.5-0.9-0.8-1.6-0.8h-0.4c-0.6,0.1-0.9,0.5-0.9,1.1v0.1
		c0,0.5,0.2,0.9,0.7,0.9c0.4,0.1,0.9,0.1,1.3,0.1C117.8,56.8,118,56.8,118.3,56.8z"/>
	<path d="M163.8,84.7c-0.9,0.2-2,0.3-3.1,0.3c-3.1,0-5.4-0.8-6.9-2.3c-1.3-1.3-1.9-3.3-1.9-5.8s0.6-4.5,1.9-5.8
		c1.4-1.5,3.7-2.3,6.9-2.3c6.8,0,11.2,0.8,13.1,2.5c2.2,1.8,3.3,4.7,3.3,8.6v23c0,1.5-0.1,2.9-0.4,4.2c1.8,0.1,3.6,1,5.3,2.6
		c1.8,1.3,4,2,6.7,2c3.4,0,5.1-2.5,5.1-7.5V68.7h13.3v35.4c0,9.1-5.8,13.6-17.5,13.6c-4.6,0-8.5-1.5-11.5-4.5c-1-1-2.1-1.5-3.3-1.6
		c-2.7,4.1-9.4,6.1-19.9,6.1v-6.1c3,0,5.2-0.7,6.7-2.2s2.2-3.7,2.2-6.6L163.8,84.7L163.8,84.7z M160.7,80.1c2.3,0,3.5-1.1,3.5-3.2
		s-1.2-3.2-3.5-3.2s-3.5,1.1-3.5,3.2S158.4,80.1,160.7,80.1z"/>
	<path d="M190,46.8c1.8,0,3.5,0.3,5.1,1s2.9,1.6,3.9,2.9c0.9,1.2,1.4,2.5,1.4,3.9s-0.4,2.7-1.3,3.9c-0.9,1.2-2.2,2.2-3.8,2.9
		c-1.7,0.7-3.4,1-5.2,1s-3.5-0.3-5.1-1c-1.7-0.7-3-1.6-3.9-2.9s-1.4-2.5-1.4-3.9c0-1.3,0.5-2.6,1.4-3.9c0.9-1.2,2.2-2.2,3.9-2.9
		S188.3,46.8,190,46.8z M188.9,51.9c-0.4,0.3-0.7,0.6-0.9,1.1s-0.3,1-0.3,1.5c0,0.6,0.1,1.1,0.3,1.6s0.5,0.9,0.9,1.1
		s0.7,0.4,1.1,0.4c0.4,0,0.8-0.1,1.2-0.4s0.7-0.6,0.9-1.1s0.3-1,0.3-1.6c0-0.5-0.1-1.1-0.3-1.5c-0.2-0.5-0.5-0.9-0.9-1.1
		s-0.8-0.4-1.2-0.4S189.3,51.6,188.9,51.9z"/>
	<path d="M239.2,117.8V84.9c0-3.3-0.6-5-1.8-5.1c0,5.4-3,8.1-8.9,8.1c-5.8,0-8.8-2.7-8.8-8.1c0-7.4,4.7-11.1,14.1-11.1
		c12.5,0,18.7,5.4,18.7,16.2v32.8L239.2,117.8L239.2,117.8z M227.8,79.8c0,2.1,0.7,3.2,2.1,3.2c1.4,0,2.1-1.1,2.1-3.2
		c0-1.3-0.7-2-2.1-2S227.8,78.5,227.8,79.8z"/>
	<path d="M281.2,104.7c0.9-0.4,1.9-0.6,2.9-0.6c1.2,0,2.3,0.3,3.4,0.8s2,1.3,2.6,2.4c0.6,1,0.9,2.1,0.9,3.2c0,2.4-0.7,4.1-2,5.3
		c-1.4,1.3-3.5,1.9-6.3,1.9c-4.7,0-8.3-1-10.8-3c-2.6-2.1-4-5.4-4-9.8V81.5c0-4.5,1.3-7.8,4-9.9c2.4-1.9,5.9-2.9,10.5-2.9
		c2.7,0,5.6,0.4,8.6,1.3v6.1c-2.4-0.9-4.2-1.3-5.4-1.3c-1.5,0-2.6,0.5-3.3,1.5c-0.7,1-1.1,2.7-1.1,5.1L281.2,104.7L281.2,104.7z
		 M282.9,108.7c-0.4,0.2-0.7,0.4-0.9,0.8c-0.2,0.3-0.3,0.7-0.3,1.1s0.1,0.7,0.3,1.1c0.2,0.3,0.5,0.6,0.9,0.8
		c0.4,0.2,0.8,0.3,1.2,0.3c0.4,0,0.8-0.1,1.2-0.3c0.4-0.2,0.7-0.4,0.9-0.8c0.2-0.3,0.3-0.7,0.3-1.1s-0.1-0.7-0.3-1.1
		c-0.2-0.3-0.5-0.6-0.9-0.8c-0.4-0.2-0.7-0.3-1.1-0.3C283.7,108.4,283.3,108.5,282.9,108.7z M315,104.7c0.9-0.4,1.9-0.6,2.9-0.6
		c1.2,0,2.3,0.3,3.4,0.8c1.1,0.6,2,1.3,2.6,2.4c0.6,1,0.9,2.1,0.9,3.2c0,2.4-0.7,4.1-2,5.3c-1.4,1.3-3.5,1.9-6.3,1.9
		c-4.7,0-8.3-1-10.8-3c-2.6-2.1-4-5.4-4-9.8V81.5c0-4.5,1.3-7.8,4-9.9c2.4-1.9,5.9-2.9,10.5-2.9c2.7,0,5.6,0.4,8.6,1.3v6.1
		c-2.4-0.9-4.2-1.3-5.4-1.3c-1.5,0-2.6,0.5-3.3,1.5c-0.7,1-1.1,2.7-1.1,5.1L315,104.7L315,104.7z M316.7,108.7
		c-0.4,0.2-0.7,0.4-0.9,0.8c-0.2,0.3-0.3,0.7-0.3,1.1s0.1,0.7,0.3,1.1c0.2,0.3,0.5,0.6,0.9,0.8c0.4,0.2,0.8,0.3,1.2,0.3
		c0.4,0,0.8-0.1,1.2-0.3c0.4-0.2,0.7-0.4,0.9-0.8c0.2-0.3,0.3-0.7,0.3-1.1s-0.1-0.7-0.3-1.1c-0.2-0.3-0.5-0.6-0.9-0.8
		c-0.4-0.2-0.7-0.3-1.1-0.3C317.5,108.4,317.1,108.5,316.7,108.7z"/>
	<path d="M383.5,101.6c0,10.8-7.7,16.2-23.1,16.2s-23.1-5.2-23.1-15.5c0-5.1,1.7-9.8,5.2-14.2c1.2-1.5,2.1-2.9,2.9-4.2
		c-2.8,0-4.9-0.7-6.3-2.1c-1.2-1.2-1.8-3-1.8-5.2c0-2.5,0.6-4.4,1.9-5.7c1.4-1.4,3.4-2.1,6.3-2.1c4.6,0,7.7,0.7,9.3,2
		c1.4,1.3,2.2,3.2,2.2,5.8c0,4.2-1.1,8.6-3.2,13.2s-3.2,8.8-3.2,12.6c0,6.2,3.3,9.3,9.8,9.3s9.8-3.4,9.8-10.1V84.5H369
		c-2,0-3.7-0.7-5.2-2.1s-2.2-3.3-2.2-5.8c0-2.7,1-4.7,2.9-6c2-1.3,4.5-1.9,7.7-1.9c5.9,0,9.5,2,10.8,6c3.4-4,7.1-6,11.2-6
		c5,0,8.9,1,11.7,2.9c3.3,2.2,4.9,5.8,4.9,10.8v35.4h-13.3V82.4c0-3.1-0.6-5.1-1.9-6.1s-2.7-1.4-4.4-1.4c-1.1,0-3.1,1.7-6.1,5.2
		l-1.5,2v19.5H383.5z M344.9,79.3c1.9,0,2.8-0.9,2.8-2.7c0-1.8-0.9-2.7-2.8-2.7s-2.8,0.9-2.8,2.7C342.1,78.3,343.1,79.3,344.9,79.3z
		 M370.3,79.6v-1c0-3.4-0.6-5-1.9-5c-1.2,0-1.8,1-1.8,3s0.8,3,2.4,3C369.4,79.6,369.8,79.6,370.3,79.6z"/>
	<path d="M388.1,51.4h9v13h-9V51.4z"/>
	<path d="M450.1,130.8c-3.6,2.7-10.1,4.1-19.6,4.1c-3.4,0-6.7-0.3-10.1-0.9v-6.1c3.4,0.6,6.7,0.9,10.1,0.9c3.5,0,6.2-0.7,8.1-2.2
		c2.4-1.8,3.6-4.7,3.6-8.7v-33c0-6.2-2.2-9.6-6.5-10.4c1.6,1.3,2.4,3.1,2.4,5.2c0,5.4-3,8.1-8.9,8.1c-5.8,0-8.8-2.7-8.8-8.1
		c0-7.4,5.2-11.1,15.5-11.1c13.1,0,19.6,5.4,19.6,16.2v32.8C455.5,123.7,453.7,128.1,450.1,130.8z M425.8,79.8
		c0,2.1,1.2,3.2,3.5,3.2s3.5-1.1,3.5-3.2c0-2.2-1.2-3.2-3.5-3.2C426.9,76.5,425.8,77.6,425.8,79.8z"/>
	<path d="M480.6,117.8c-3.8-0.1-6.7-1-8.6-2.9c-2-1.8-3-4.6-3-8.3c0-4.8,1.2-8.3,3.6-10.3s6.6-3.1,12.5-3.1c3.5,0,6.4,1.3,8.7,4
		c2.3,2.7,4.1,5.7,5.5,9.2s2.5,5.2,3.5,5.2s1.4-1.1,1.4-3.2V83.6c0-5.8-4-8.7-11.9-8.7c-6.7,0-10,2.9-10,8.7H469
		c0-4.9,1.9-8.6,5.7-11.1c3.8-2.5,9.6-3.7,17.3-3.7c9.3,0,15.8,1.3,19.7,3.8c3.8,2.5,5.7,6.2,5.7,11.1v24.8c0,3.2-1,5.6-3,7.2
		c-1.9,1.5-4.6,2.2-8,2.2c-3.5,0-6.2-0.6-8.1-1.7s-3.3-3.1-4.2-5.8c-0.9-2.8-2.1-4.9-3.6-6.4c-1.4-1.5-3.3-2.3-5.5-2.3
		c-2.4,0-3.8,0.8-4.1,2.4c2.9,0,5.1,0.5,6.5,1.6c1.3,1,2,2.5,2,4.4c0.1,0.5,0.1,0.9,0.1,1.4c0,1.9-0.6,3.4-1.8,4.4
		C486.3,117.1,483.9,117.7,480.6,117.8z M481.4,114.2c2.2,0,3.2-1,3.2-3s-1.1-3-3.2-3c-2.2,0-3.2,1-3.2,3
		C478.2,113.2,479.3,114.2,481.4,114.2z"/>
	<path d="M495.7,54.6c0.6,1.1,1,2.2,1,3.4s-0.3,2.3-1,3.4c-0.7,1.1-1.6,1.9-2.8,2.5c-1.2,0.6-2.4,0.9-3.6,0.9c-2.8,0-4.8-0.3-6-0.9
		s-2.1-1.4-2.7-2.5c-0.7-1.1-1-2.2-1-3.4c0-3.9,1.8-6.8,5.3-8.8c3.5-1.9,7.9-2.9,13.2-2.9c6.3,0,11.8,1.4,16.5,4.1
		c4.7,2.7,7.5,7.3,8.3,13.5h-13.3c-0.5-4.2-1.6-7.3-3.2-9.1s-3.7-2.8-6-2.8C497.8,52.1,496.3,52.9,495.7,54.6z M489.3,60.9
		c0.5,0,1-0.1,1.5-0.4c0.5-0.3,0.9-0.6,1.2-1c0.3-0.4,0.4-0.9,0.4-1.4s-0.1-0.9-0.4-1.4c-0.3-0.4-0.7-0.8-1.1-1
		c-0.5-0.2-1-0.3-1.5-0.3s-1,0.1-1.5,0.3s-0.8,0.6-1.1,1c-0.2,0.4-0.4,0.9-0.4,1.4s0.1,0.9,0.4,1.4c0.3,0.4,0.6,0.8,1.1,1
		S488.8,60.9,489.3,60.9z"/>
	<path d="M555.3,103.5c1.4,1.4,2.2,3.4,2.2,6.1s-0.7,4.7-2.2,6.1c-1.4,1.3-4.2,2-8.4,2c-4.3,0-7.6-0.7-9.9-2.2
		c-3.2-2-4.8-5.5-4.8-10.4V84.9c0-10.8,8.1-16.2,24.2-16.2c16.1,0,24.2,5.4,24.2,16.2v32.8h-13.3V84.9c0-6.7-3.6-10.1-10.9-10.1
		c-7.3,0-10.9,3.4-10.9,10.1v17.8c1.4-0.9,3.1-1.3,4.9-1.3C552.2,101.5,553.8,102.2,555.3,103.5z M551.6,112.2c0.7-0.5,1-1.4,1-2.6
		c0-1-0.3-1.8-0.8-2.3c-0.6-0.6-1.5-0.9-2.7-0.9c-2.3,0-3.5,1.1-3.5,3.2c0,1.3,0.4,2.2,1.2,2.7c0.6,0.3,1.3,0.5,2.3,0.5
		C550.2,112.8,551,112.6,551.6,112.2z"/>
	<path d="M599.9,117.8c-3.1,0-5.4-0.8-6.9-2.3c-1.3-1.4-1.9-3.3-1.9-5.8c0-2.6,0.6-4.5,1.9-5.8c1.5-1.5,3.8-2.3,6.9-2.3
		c1.1,0,2.2,0.1,3.1,0.3V84.5h-1.2c-3.8,0-6.6-0.8-8.4-2.3c-1.5-1.3-2.3-3.2-2.3-5.6c0-2.7,0.8-4.7,2.3-6s3.7-1.9,6.6-1.9
		c9.3,0,14.6,2,15.9,6c3.4-4,8.1-6,13.9-6c5,0,8.9,1,11.7,2.9c3.3,2.2,4.9,5.8,4.9,10.8v35.4H633V82.4c0-2.5-0.8-4.4-2.4-5.7
		c-1.5-1.2-3.3-1.8-5.3-1.8s-4.5,1.7-7.5,5.2l-1.5,2v24.5c0,3.9-1.1,6.8-3.3,8.6C611.1,116.9,606.7,117.8,599.9,117.8z M603,79.6v-1
		c0-3.4-1.1-5-3.3-5s-3.2,1-3.2,3s1.7,3,5.2,3C602.1,79.6,602.6,79.6,603,79.6z M596.5,109.6c0,2.1,1.2,3.2,3.5,3.2s3.5-1.1,3.5-3.2
		c0-2.2-1.2-3.2-3.5-3.2C597.6,106.4,596.5,107.5,596.5,109.6z"/>
	<path d="M680.7,83.6c2.3,0,4.3-0.9,6-2.8s2.7-4.9,3.2-9.1h13.3c-0.8,6.3-3.6,10.8-8.3,13.5s-10.2,4.1-16.5,4.1
		c-5.2,0-9.6-1-13.1-2.9s-5.3-4.9-5.3-8.8c0-1.2,0.3-2.3,1-3.4s1.6-1.9,2.7-2.5c1.2-0.6,3.2-0.9,6-0.9c1.2,0,2.4,0.3,3.6,0.9
		c1.2,0.6,2.1,1.4,2.8,2.5s1,2.2,1,3.4s-0.3,2.3-1,3.4C676.5,82.8,678.1,83.6,680.7,83.6z M680.7,110.2c2.3,0,4.3-0.9,6-2.8
		s2.7-4.9,3.2-9.1h13.3c-0.8,6.3-3.6,10.8-8.3,13.5s-10.2,4.1-16.5,4.1c-5.2,0-9.6-1-13.1-2.9s-5.3-4.9-5.3-8.8c0-1.2,0.3-2.3,1-3.4
		s1.6-1.9,2.7-2.5c1.2-0.6,3.2-0.9,6-0.9c1.2,0,2.4,0.3,3.6,0.9c1.2,0.6,2.1,1.4,2.8,2.5s1,2.2,1,3.4s-0.3,2.3-1,3.4
		C676.5,109.3,678.1,110.2,680.7,110.2z M668.1,75.2c-0.5,0.3-0.8,0.6-1.1,1s-0.4,0.9-0.4,1.4s0.1,0.9,0.4,1.4
		c0.2,0.4,0.6,0.8,1.1,1s1,0.3,1.5,0.3s1-0.1,1.5-0.3c0.5-0.2,0.9-0.6,1.1-1c0.3-0.4,0.4-0.9,0.4-1.4s-0.1-0.9-0.4-1.4
		c-0.3-0.4-0.7-0.8-1.2-1c-0.5-0.3-1-0.4-1.5-0.4C669.1,74.9,668.6,75,668.1,75.2z M668.1,101.8c-0.5,0.3-0.8,0.6-1.1,1
		s-0.4,0.9-0.4,1.4s0.1,0.9,0.4,1.4c0.2,0.4,0.6,0.8,1.1,1s1,0.3,1.5,0.3s1-0.1,1.5-0.3c0.5-0.2,0.9-0.6,1.1-1
		c0.3-0.4,0.4-0.9,0.4-1.4s-0.1-0.9-0.4-1.4c-0.3-0.4-0.7-0.8-1.2-1c-0.5-0.3-1-0.4-1.5-0.4C669.1,101.4,668.6,101.5,668.1,101.8z"
		/>
	<path d="M715.8,76.5c0-2.5,0.6-4.4,1.9-5.7c1.4-1.4,3.4-2.1,6.3-2.1c4.6,0,7.7,0.7,9.3,2c1.4,1.3,2.2,3.2,2.2,5.8
		c0,4.2-1.1,8.6-3.2,13.2s-3.2,8.8-3.2,12.6c0,6.2,3.3,9.3,9.8,9.3s9.8-3.4,9.8-10.1V68.7H762v32.8c0,10.8-7.7,16.2-23.1,16.2
		c-15.4,0-23.1-5.2-23.1-15.5c0-5.1,1.7-9.8,5.2-14.2c1.2-1.5,2.1-2.9,2.9-4.2c-2.8,0-4.9-0.7-6.3-2.1
		C716.4,80.5,715.8,78.8,715.8,76.5z M723.3,79.3c1.9,0,2.8-0.9,2.8-2.7c0-1.8-0.9-2.7-2.8-2.7c-1.9,0-2.8,0.9-2.8,2.7
		C720.5,78.3,721.4,79.3,723.3,79.3z"/>
	<path d="M796.3,83.6c2.3,0,4.3-0.9,6-2.8s2.7-4.9,3.2-9.1h13.3c-0.8,6.3-3.6,10.8-8.3,13.5s-10.2,4.1-16.5,4.1
		c-5.2,0-9.6-1-13.1-2.9s-5.3-4.9-5.3-8.8c0-1.2,0.3-2.3,1-3.4s1.6-1.9,2.7-2.5c1.2-0.6,3.2-0.9,6-0.9c1.2,0,2.4,0.3,3.6,0.9
		c1.2,0.6,2.1,1.4,2.8,2.5s1,2.2,1,3.4s-0.3,2.3-1,3.4C792.1,82.8,793.7,83.6,796.3,83.6z M796.3,110.2c2.3,0,4.3-0.9,6-2.8
		s2.7-4.9,3.2-9.1h13.3c-0.8,6.3-3.6,10.8-8.3,13.5s-10.2,4.1-16.5,4.1c-5.2,0-9.6-1-13.1-2.9s-5.3-4.9-5.3-8.8c0-1.2,0.3-2.3,1-3.4
		s1.6-1.9,2.7-2.5c1.2-0.6,3.2-0.9,6-0.9c1.2,0,2.4,0.3,3.6,0.9c1.2,0.6,2.1,1.4,2.8,2.5s1,2.2,1,3.4s-0.3,2.3-1,3.4
		C792.1,109.3,793.7,110.2,796.3,110.2z M783.8,75.2c-0.5,0.3-0.8,0.6-1.1,1s-0.4,0.9-0.4,1.4s0.1,0.9,0.4,1.4
		c0.2,0.4,0.6,0.8,1.1,1s1,0.3,1.5,0.3s1-0.1,1.5-0.3c0.5-0.2,0.9-0.6,1.1-1c0.3-0.4,0.4-0.9,0.4-1.4s-0.1-0.9-0.4-1.4
		c-0.3-0.4-0.7-0.8-1.2-1c-0.5-0.3-1-0.4-1.5-0.4C784.7,74.9,784.2,75,783.8,75.2z M783.8,101.8c-0.5,0.3-0.8,0.6-1.1,1
		s-0.4,0.9-0.4,1.4s0.1,0.9,0.4,1.4c0.2,0.4,0.6,0.8,1.1,1s1,0.3,1.5,0.3s1-0.1,1.5-0.3c0.5-0.2,0.9-0.6,1.1-1
		c0.3-0.4,0.4-0.9,0.4-1.4s-0.1-0.9-0.4-1.4c-0.3-0.4-0.7-0.8-1.2-1c-0.5-0.3-1-0.4-1.5-0.4C784.7,101.4,784.2,101.5,783.8,101.8z"
		/>
	<path d="M869.9,72.6c0.5-1.7,0.8-3.7,0.9-6l9.1,1.3c-0.4,3.6-1.2,6.6-2.2,9.3c1.4,1.9,2.2,4.1,2.2,6.4v24.8c0,3.2-1,5.6-3,7.2
		c-1.9,1.5-4.6,2.2-8,2.2c-3.5,0-6.2-0.6-8.1-1.7c-1.9-1.1-3.3-3.1-4.2-5.8c-0.9-2.8-2.1-4.8-3.6-6.2c-1.4-1.4-3.7-2.1-6.9-2.1
		c-1.5,0-2.4,0.7-2.7,2c2.9,0,5.1,0.5,6.5,1.6c1.3,1,2,2.5,2,4.4c0.1,0.5,0.1,0.9,0.1,1.4c0,1.9-0.6,3.4-1.8,4.4
		c-1.5,1.3-3.9,1.9-7.2,2c-3.8-0.1-6.7-1-8.6-2.9c-2-1.8-3-4.6-3-8.3c0-3.1,1.2-5.7,3.6-7.7c2.4-2,6.1-3,11.1-3
		c4.4,0,7.8,0.9,10.1,2.7c2.3,1.8,4.1,4.4,5.5,7.9s2.5,5.2,3.5,5.2s1.4-1.1,1.4-3.2V85.6c-3,2.9-7.7,4.4-14.3,4.4
		c-7.2,0-12.5-0.7-15.8-2.2s-5.1-4.1-5.1-7.8s1.7-6.5,5.1-8.4c3.4-1.9,8.7-2.9,15.8-2.9C859.4,68.7,865.2,70,869.9,72.6z
		 M843.8,114.2c2.2,0,3.2-1,3.2-3s-1.1-3-3.2-3c-2.2,0-3.2,1-3.2,3S841.6,114.2,843.8,114.2z M864.9,79c-1-1.2-2.2-2.2-3.7-3
		c-1.4-0.8-4.4-1.2-8.9-1.2c-2.7,0-4.6,0.5-5.8,1.6s-1.8,2.3-1.8,3.5s0.6,2.2,1.8,2.8c1.2,0.7,3.1,1,5.8,1c4.5,0,7.4-0.4,8.8-1.2
		C862.5,81.8,863.8,80.6,864.9,79z"/>
	<path d="M914.2,83.6c2.3,0,4.3-0.9,6-2.8s2.7-4.9,3.2-9.1h13.3c-0.8,6.3-3.6,10.8-8.3,13.5s-10.2,4.1-16.5,4.1
		c-5.2,0-9.6-1-13.1-2.9s-5.3-4.9-5.3-8.8c0-1.2,0.3-2.3,1-3.4s1.6-1.9,2.7-2.5c1.2-0.6,3.2-0.9,6-0.9c1.2,0,2.4,0.3,3.6,0.9
		c1.2,0.6,2.1,1.4,2.8,2.5s1,2.2,1,3.4s-0.3,2.3-1,3.4C910.1,82.8,911.6,83.6,914.2,83.6z M914.2,110.2c2.3,0,4.3-0.9,6-2.8
		s2.7-4.9,3.2-9.1h13.3c-0.8,6.3-3.6,10.8-8.3,13.5s-10.2,4.1-16.5,4.1c-5.2,0-9.6-1-13.1-2.9s-5.3-4.9-5.3-8.8c0-1.2,0.3-2.3,1-3.4
		s1.6-1.9,2.7-2.5c1.2-0.6,3.2-0.9,6-0.9c1.2,0,2.4,0.3,3.6,0.9c1.2,0.6,2.1,1.4,2.8,2.5s1,2.2,1,3.4s-0.3,2.3-1,3.4
		C910.1,109.3,911.6,110.2,914.2,110.2z M901.7,75.2c-0.5,0.3-0.8,0.6-1.1,1s-0.4,0.9-0.4,1.4s0.1,0.9,0.4,1.4
		c0.2,0.4,0.6,0.8,1.1,1s1,0.3,1.5,0.3s1-0.1,1.5-0.3c0.5-0.2,0.9-0.6,1.1-1c0.3-0.4,0.4-0.9,0.4-1.4s-0.1-0.9-0.4-1.4
		c-0.3-0.4-0.7-0.8-1.2-1c-0.5-0.3-1-0.4-1.5-0.4C902.7,74.9,902.2,75,901.7,75.2z M901.7,101.8c-0.5,0.3-0.8,0.6-1.1,1
		s-0.4,0.9-0.4,1.4s0.1,0.9,0.4,1.4c0.2,0.4,0.6,0.8,1.1,1s1,0.3,1.5,0.3s1-0.1,1.5-0.3c0.5-0.2,0.9-0.6,1.1-1
		c0.3-0.4,0.4-0.9,0.4-1.4s-0.1-0.9-0.4-1.4c-0.3-0.4-0.7-0.8-1.2-1c-0.5-0.3-1-0.4-1.5-0.4C902.7,101.4,902.2,101.5,901.7,101.8z"
		/>
	<path d="M982.2,70.8c0-5,2-10.2,5.9-15.6l9.4,3c-1.3,2.8-2,7-2,12.6v30.7c0,10.8-7.7,16.2-23.1,16.2c-15.4,0-23.1-5.2-23.1-15.5
		c0-5.1,1.7-9.8,5.2-14.2c1.2-1.5,2.1-2.9,2.9-4.2c-2.8,0-4.9-0.7-6.3-2.1c-1.2-1.2-1.8-3-1.8-5.2c0-2.5,0.6-4.4,1.9-5.7
		c1.4-1.4,3.4-2.1,6.3-2.1c4.6,0,7.7,0.7,9.3,2c1.4,1.3,2.2,3.2,2.2,5.8c0,4.2-1.1,8.6-3.2,13.2s-3.2,8.8-3.2,12.6
		c0,6.2,3.3,9.3,9.8,9.3s9.8-3.4,9.8-10.1L982.2,70.8L982.2,70.8z M956.9,79.3c1.9,0,2.8-0.9,2.8-2.7c0-1.8-0.9-2.7-2.8-2.7
		c-1.9,0-2.8,0.9-2.8,2.7C954.1,78.3,955,79.3,956.9,79.3z"/>
	<path d="M1024.9,110.3c2.9,0.9,5.4,1.4,7.3,1.4c8.1,0,12.1-3.4,12.1-10.1v-8.8c-3.7,1.6-7.7,2.4-12.1,2.4c-6.2,0-11.5-1.1-16.1-3.4
		s-6.9-5.5-6.9-9.8c0-4.8,2.2-8.2,6.5-10.2s9.8-3,16.6-3c9.5,0.3,16.1,1.7,19.8,4.3c3.7,2.6,5.5,6.5,5.5,11.9v16.6
		c0,10.8-8.5,16.2-25.4,16.2c-15.4,0-23.1-4.7-23.1-14.2l0,0c0.1-1.1,0.4-2,1.1-3c0.7-1.1,1.7-1.9,3.1-2.5c1.4-0.6,3.1-0.9,5-0.9
		s3.5,0.3,4.8,0.9s2.3,1.5,3,2.5c0.7,1.1,1.1,2.2,1.1,3.5C1027.2,107.4,1026.4,109.5,1024.9,110.3z M1016.4,103.9
		c0,0.3,0,0.6,0.1,0.9c0.1,0.2,0.2,0.4,0.3,0.6c0.2,0.4,0.6,0.8,1.1,1s1,0.3,1.5,0.3s1-0.1,1.5-0.3c0.5-0.2,0.8-0.6,1.1-1
		s0.4-0.9,0.4-1.4s-0.1-0.9-0.4-1.4s-0.7-0.8-1.1-1c-0.5-0.2-1-0.4-1.5-0.4s-1,0.1-1.4,0.4c-0.5,0.2-0.8,0.6-1.1,1
		C1016.5,103,1016.4,103.4,1016.4,103.9z M1043.9,82c-0.5-2.3-1.5-4.1-2.9-5.3c-1.4-1.2-4.3-1.8-8.8-1.8c-2.6,0-4.9,0.7-6.9,2.2
		c-1.9,1.5-2.9,3.1-2.9,4.9s0.8,3.4,2.4,4.9c1.6,1.5,4.1,2.2,7.3,2.2c4.8,0,7.8-0.6,9.1-1.8C1042.5,86,1043.4,84.3,1043.9,82z"/>
	<path d="M1095.3,103.5c1.4,1.4,2.2,3.4,2.2,6.1s-0.7,4.7-2.2,6.1c-1.4,1.3-4.2,2-8.4,2c-4.3,0-7.6-0.7-9.9-2.2
		c-3.2-2-4.8-5.5-4.8-10.4V84.9c0-10.8,8.1-16.2,24.2-16.2s24.2,5.4,24.2,16.2v32.8h-13.3V84.9c0-6.7-3.6-10.1-10.9-10.1
		s-10.9,3.4-10.9,10.1v17.8c1.4-0.9,3.1-1.3,4.9-1.3C1092.2,101.5,1093.8,102.2,1095.3,103.5z M1091.6,112.2c0.7-0.5,1-1.4,1-2.6
		c0-1-0.3-1.8-0.8-2.3c-0.6-0.6-1.5-0.9-2.7-0.9c-2.3,0-3.5,1.1-3.5,3.2c0,1.3,0.4,2.2,1.2,2.7c0.6,0.3,1.3,0.5,2.3,0.5
		C1090.2,112.8,1091,112.6,1091.6,112.2z"/>
	<path d="M1149.9,110.3c2.9,0.9,5.4,1.4,7.3,1.4c8.1,0,12.1-3.4,12.1-10.1v-8.8c-3.7,1.6-7.7,2.4-12.1,2.4c-6.2,0-11.5-1.1-16.1-3.4
		s-6.9-5.5-6.9-9.8c0-4.8,2.2-8.2,6.5-10.2s9.8-3,16.6-3c9.5,0.3,16.1,1.7,19.8,4.3c3.7,2.6,5.5,6.5,5.5,11.9v16.6
		c0,10.8-8.5,16.2-25.4,16.2c-15.4,0-23.1-4.7-23.1-14.2l0,0c0.1-1.1,0.4-2,1.1-3c0.7-1.1,1.7-1.9,3.1-2.5s3.1-0.9,5-0.9
		s3.5,0.3,4.8,0.9s2.3,1.5,3,2.5c0.7,1.1,1.1,2.2,1.1,3.5C1152.3,107.4,1151.5,109.5,1149.9,110.3z M1141.4,103.9
		c0,0.3,0,0.6,0.1,0.9c0.1,0.2,0.2,0.4,0.3,0.6c0.2,0.4,0.6,0.8,1.1,1s1,0.3,1.5,0.3s1-0.1,1.5-0.3c0.5-0.2,0.8-0.6,1.1-1
		c0.3-0.4,0.4-0.9,0.4-1.4s-0.1-0.9-0.4-1.4s-0.7-0.8-1.1-1c-0.5-0.2-1-0.4-1.5-0.4s-1,0.1-1.4,0.4c-0.5,0.2-0.8,0.6-1.1,1
		C1141.6,103,1141.5,103.4,1141.4,103.9z M1168.9,82c-0.5-2.3-1.5-4.1-2.9-5.3c-1.4-1.2-4.3-1.8-8.8-1.8c-2.6,0-4.9,0.7-6.9,2.2
		c-1.9,1.5-2.9,3.1-2.9,4.9s0.8,3.4,2.4,4.9s4.1,2.2,7.3,2.2c4.8,0,7.8-0.6,9.1-1.8C1167.5,86,1168.4,84.3,1168.9,82z"/>
	<path d="M1165.5,59.2c2.3,0,4.3-0.9,6-2.8s2.7-4.9,3.2-9.1h13.3c-0.8,6.3-3.6,10.8-8.3,13.5c-4.7,2.7-10.2,4.1-16.5,4.1
		c-5.2,0-9.6-1-13.2-2.9c-3.5-1.9-5.3-4.9-5.3-8.8c0-1.2,0.3-2.3,1-3.4c0.7-1.1,1.6-1.9,2.7-2.5c1.2-0.6,3.2-0.9,6-0.9
		c1.2,0,2.4,0.3,3.6,0.9c1.2,0.6,2.1,1.4,2.8,2.5c0.7,1.1,1,2.2,1,3.4s-0.3,2.3-1,3.4C1161.3,58.3,1162.9,59.2,1165.5,59.2z
		 M1152.9,50.8c-0.5,0.3-0.8,0.6-1.1,1c-0.3,0.4-0.4,0.9-0.4,1.4s0.1,0.9,0.4,1.4c0.2,0.4,0.6,0.8,1.1,1s1,0.3,1.5,0.3
		s1-0.1,1.5-0.3s0.9-0.6,1.1-1c0.3-0.4,0.4-0.9,0.4-1.4s-0.1-0.9-0.4-1.4c-0.3-0.4-0.7-0.8-1.2-1c-0.5-0.3-1-0.4-1.5-0.4
		C1153.9,50.4,1153.4,50.5,1152.9,50.8z"/>
	<path d="M1211.9,110.3c2.9,0.9,5.4,1.4,7.3,1.4c8.1,0,12.1-3.4,12.1-10.1v-8.8c-3.7,1.6-7.7,2.4-12.1,2.4c-6.2,0-11.5-1.1-16.1-3.4
		s-6.9-5.5-6.9-9.8c0-4.8,2.2-8.2,6.5-10.2s9.8-3,16.6-3c9.5,0.3,16.1,1.7,19.8,4.3c3.7,2.6,5.5,6.5,5.5,11.9v16.6
		c0,10.8-8.5,16.2-25.4,16.2c-15.4,0-23.1-4.7-23.1-14.2l0,0c0.1-1.1,0.4-2,1.1-3c0.7-1.1,1.7-1.9,3.1-2.5s3.1-0.9,5-0.9
		s3.5,0.3,4.8,0.9s2.3,1.5,3,2.5c0.7,1.1,1.1,2.2,1.1,3.5C1214.3,107.4,1213.5,109.5,1211.9,110.3z M1203.5,103.9
		c0,0.3,0,0.6,0.1,0.9c0.1,0.2,0.2,0.4,0.3,0.6c0.2,0.4,0.6,0.8,1.1,1s1,0.3,1.5,0.3s1-0.1,1.5-0.3c0.5-0.2,0.8-0.6,1.1-1
		c0.3-0.4,0.4-0.9,0.4-1.4s-0.1-0.9-0.4-1.4s-0.7-0.8-1.1-1c-0.5-0.2-1-0.4-1.5-0.4s-1,0.1-1.4,0.4c-0.5,0.2-0.8,0.6-1.1,1
		C1203.6,103,1203.5,103.4,1203.5,103.9z M1231,82c-0.5-2.3-1.5-4.1-2.9-5.3c-1.4-1.2-4.3-1.8-8.8-1.8c-2.6,0-4.9,0.7-6.9,2.2
		c-1.9,1.5-2.9,3.1-2.9,4.9s0.8,3.4,2.4,4.9s4.1,2.2,7.3,2.2c4.8,0,7.8-0.6,9.1-1.8C1229.6,86,1230.4,84.3,1231,82z"/>
	<path d="M1258.2,76.5c0-2.5,0.6-4.4,1.9-5.7c1.4-1.4,3.4-2.1,6.3-2.1c4.6,0,7.7,0.7,9.3,2c1.4,1.3,2.2,3.2,2.2,5.8
		c0,4.2-1.1,8.6-3.2,13.2s-3.2,8.8-3.2,12.6c0,6.2,3.3,9.3,9.8,9.3s9.8-3.4,9.8-10.1V68.7h13.3v32.8c0,10.8-7.7,16.2-23.1,16.2
		s-23.1-5.2-23.1-15.5c0-5.1,1.7-9.8,5.2-14.2c1.2-1.5,2.1-2.9,2.9-4.2c-2.8,0-4.9-0.7-6.3-2.1C1258.8,80.5,1258.2,78.8,1258.2,76.5
		z M1265.7,79.3c1.9,0,2.8-0.9,2.8-2.7c0-1.8-0.9-2.7-2.8-2.7s-2.8,0.9-2.8,2.7C1262.9,78.3,1263.9,79.3,1265.7,79.3z"/>
	<path d="M1318.9,81.5c0-5.1,3.3-9.5,9.9-13L1315,57.2c-2.1-1.7-3.2-3.9-3.4-6.7v-0.3c0-2,0.6-3.8,1.9-5.3c1.9-1.8,3.9-2.7,6.1-2.9
		c0.3,0,0.7,0,1,0c2.7,0,5,0.7,6.8,2.2l4.9,3.9c4.9,4.1,8.6,6.1,11.1,6.1c0.3,0,0.6,0,0.9-0.1V59c-1.5,0.5-2.9,0.7-4.2,0.7
		c-0.7,0-1.3-0.1-2-0.2c-1.8-0.4-5.5-3-11.1-7.8c-1-0.9-1.9-1.3-2.8-1.3s-1.7,0.4-2.4,1.3c-0.3,0.3-0.4,0.7-0.4,1
		c0,0.8,0.6,1.6,1.8,2.6l16.3,13.3l0.2,0.1h-0.1l0.1,0.1h-0.2c-3.9,2.4-6.1,4.5-6.6,6.4c-0.5,1.8-0.7,4-0.7,6.3v23.2
		c0.9-0.4,1.9-0.6,2.9-0.6c1.2,0,2.3,0.3,3.4,0.8s2,1.3,2.6,2.4s0.9,2.1,0.9,3.2c0,2.4-0.7,4.1-2,5.3c-1.4,1.3-3.5,1.9-6.3,1.9
		c-4.7,0-8.3-1-10.8-3c-2.6-2.1-4-5.4-4-9.8L1318.9,81.5L1318.9,81.5z M1333,109.4c-0.2,0.3-0.3,0.7-0.3,1.1s0.1,0.7,0.3,1.1
		c0.2,0.3,0.5,0.6,0.9,0.8c0.4,0.2,0.8,0.3,1.2,0.3c0.4,0,0.8-0.1,1.2-0.3c0.4-0.2,0.7-0.4,0.9-0.8c0.2-0.3,0.3-0.7,0.3-1.1
		s-0.1-0.7-0.3-1.1c-0.2-0.3-0.5-0.6-0.9-0.8s-0.7-0.3-1.1-0.3s-0.8,0.1-1.2,0.3S1333.2,109.1,1333,109.4z"/>
	<path d="M1359.4,114.7c-3.6-2.1-5.5-4.9-5.5-8.6c0-3.2,1.2-5.7,3.6-7.3c2.4-1.6,5.1-2.5,8.1-2.5c4,0,6.7,0.6,8.1,1.8
		s2.1,2.7,2.1,4.6c0,2.1-0.6,3.7-1.9,4.8c-1.2,1.1-3.1,1.6-5.6,1.6c1.8,1.7,4.7,2.5,8.6,2.5c3,0,5.3-0.6,7.1-1.7
		c1.8-1.2,2.7-3.4,2.7-6.6c0-2.4-1.2-4.7-3.5-7c-2.4-2.2-7.8-3.9-16.4-5.1s-12.9-4.8-12.9-11c0-7.7,7.3-11.5,21.8-11.5
		c9.3,0,17.4,2.9,24.3,8.6l-6.7,7.2c-6.9-6.5-12.7-9.7-17.3-9.7c-5.9,0-8.8,1.8-8.8,5.4c0,2.9,3.6,5,10.9,6.4s12.7,3.5,16.4,6.1
		c3.7,2.7,5.6,6.2,5.6,10.5c0,5.3-1.9,9-5.8,11.2c-3.8,2.2-9.6,3.3-17.3,3.3C1368.9,117.8,1363,116.7,1359.4,114.7z M1366.2,100.9
		c-0.6,0.5-0.9,1.1-0.9,1.7c0,0.7,0.3,1.4,0.9,1.9s1.3,0.8,2.1,0.8c0.8,0,1.5-0.3,2.1-0.8s0.9-1.1,0.9-1.9c0-0.7-0.3-1.3-0.9-1.7
		s-1.3-0.7-2.1-0.7C1367.5,100.2,1366.8,100.4,1366.2,100.9z"/>
	<path d="M1436.8,103.5c1.4,1.4,2.2,3.4,2.2,6.1s-0.7,4.7-2.2,6.1c-1.4,1.3-4.2,2-8.4,2c-4.3,0-7.6-0.7-9.9-2.2
		c-3.2-2-4.8-5.5-4.8-10.4V84.9c0-10.8,8.1-16.2,24.2-16.2s24.2,5.4,24.2,16.2v32.8h-13.3V84.9c0-6.7-3.6-10.1-10.9-10.1
		s-10.9,3.4-10.9,10.1v17.8c1.4-0.9,3.1-1.3,4.9-1.3C1433.7,101.5,1435.4,102.2,1436.8,103.5z M1433.2,112.2c0.7-0.5,1-1.4,1-2.6
		c0-1-0.3-1.8-0.8-2.3c-0.6-0.6-1.5-0.9-2.7-0.9c-2.3,0-3.5,1.1-3.5,3.2c0,1.3,0.4,2.2,1.2,2.7c0.6,0.3,1.3,0.5,2.3,0.5
		C1431.8,112.8,1432.6,112.6,1433.2,112.2z"/>
	<path d="M1476.6,81.5c0-5.1,3.3-9.5,9.9-13l-13.8-11.3c-2.1-1.7-3.2-3.9-3.4-6.7v-0.3c0-2,0.6-3.8,1.9-5.3c1.9-1.8,3.9-2.7,6.1-2.9
		c0.3,0,0.7,0,1,0c2.7,0,5,0.7,6.8,2.2l4.9,3.9c4.9,4.1,8.6,6.1,11.1,6.1c0.3,0,0.6,0,0.9-0.1V59c-1.5,0.5-2.9,0.7-4.2,0.7
		c-0.7,0-1.3-0.1-2-0.2c-1.8-0.4-5.5-3-11.1-7.8c-1-0.9-1.9-1.3-2.8-1.3s-1.7,0.4-2.4,1.3c-0.3,0.3-0.4,0.7-0.4,1
		c0,0.8,0.6,1.6,1.8,2.6l16.3,13.3l0.2,0.1h-0.1l0.1,0.1h-0.2c-3.9,2.4-6.1,4.5-6.6,6.4c-0.5,1.8-0.7,4-0.7,6.3v23.2
		c0.9-0.4,1.9-0.6,2.9-0.6c1.2,0,2.3,0.3,3.4,0.8s2,1.3,2.6,2.4c0.6,1,0.9,2.1,0.9,3.2c0,2.4-0.7,4.1-2,5.3
		c-1.4,1.3-3.5,1.9-6.3,1.9c-4.7,0-8.3-1-10.8-3c-2.6-2.1-4-5.4-4-9.8L1476.6,81.5L1476.6,81.5z M1490.8,109.4
		c-0.2,0.3-0.3,0.7-0.3,1.1s0.1,0.7,0.3,1.1c0.2,0.3,0.5,0.6,0.9,0.8c0.4,0.2,0.8,0.3,1.2,0.3s0.8-0.1,1.2-0.3
		c0.4-0.2,0.7-0.4,0.9-0.8c0.2-0.3,0.3-0.7,0.3-1.1s-0.1-0.7-0.3-1.1c-0.2-0.3-0.5-0.6-0.9-0.8s-0.7-0.3-1.1-0.3s-0.8,0.1-1.2,0.3
		S1491,109.1,1490.8,109.4z"/>
	<path d="M1525.9,102.8c1.4-0.9,3.1-1.3,4.9-1.3s3.5,0.7,5,2c1.4,1.4,2.2,3.4,2.2,6.1s-0.7,4.7-2.2,6.1c-1.4,1.3-4.2,2-8.4,2
		c-4.3,0-7.6-0.7-9.9-2.2c-3.2-2-4.8-5.5-4.8-10.4V84.9c0-6.1,1.4-10.3,4.2-12.7s6.1-3.5,9.9-3.5c3.9,0,7.3,2,10.1,6.1
		c2.8-4.1,6.2-6.1,10.1-6.1c3.8,0,7.1,1.2,9.9,3.6s4.2,6.6,4.2,12.6v32.8h-13.3V84.9c0-6.7-0.7-10.1-2-10.1s-4.3,2.6-9,7.8
		c-4.6-5.2-7.6-7.8-9-7.8c-1.3,0-2,3.4-2,10.1v17.9H1525.9z M1532.1,112.2c0.7-0.5,1-1.4,1-2.6c0-1-0.3-1.8-0.8-2.3
		c-0.6-0.6-1.5-0.9-2.7-0.9c-2.3,0-3.5,1.1-3.5,3.2c0,1.3,0.4,2.2,1.2,2.7c0.6,0.3,1.3,0.5,2.3,0.5
		C1530.7,112.8,1531.5,112.6,1532.1,112.2z"/>
	<path d="M1606.1,117.8c-5.4,0-8.8-1.5-10.1-4.5c-0.6-1.3-0.9-2.6-0.9-4c0-1.6,0.4-3.1,1.2-4.7c1.6-2.9,2.4-4.5,2.4-4.6
		c-0.6,0.5-2,0.8-3.9,0.8h-0.3c-2.5-0.3-4.4-1.2-5.7-2.5c-1.3-1.3-2-3.2-2.1-5.6v-0.4c0-2.2,0.7-3.9,2-5.2c1.4-1.4,3.6-2.3,6.4-2.7
		h0.2c3,0,5.4,0.6,7.1,1.7c1.6,1,2.6,2.5,3,4.5c0.3,1.5,0.5,2.8,0.5,4.2c0,2.2-0.4,4.1-1.2,5.9c-1.4,2.9-2,5.7-2,8.2
		c0,1.9,1.2,2.9,3.5,2.9c2,0,3-0.9,3-2.6V83.6c0-3-1.2-5.3-3.5-6.6c-2.4-1.4-5.1-2.1-8.3-2.1c-4.9,0-8.2,0.7-9.8,2.1
		c-1.7,1.4-2.5,3.6-2.5,6.6h-13.3c0-4.9,1.9-8.6,5.7-11.1c3.8-2.5,10.4-3.7,19.7-3.7c16.9,0,25.4,4.9,25.4,14.8v25.6
		c0,2.6-0.8,4.7-2.5,6.1C1618,116.9,1613.4,117.8,1606.1,117.8z M1596.2,95.5c2.3,0,3.5-1,3.5-3c0-1.9-1.1-2.9-3.3-2.9
		c-2.3,0-3.5,1-3.6,2.9v0.2C1592.8,94.6,1593.9,95.5,1596.2,95.5L1596.2,95.5z"/>
	<path d="M1599.1,51.8c-4,0-6.6,0.2-7.8,0.7c-1.2,0.5-2,1.1-2.5,1.9c-0.2,0.3-0.3,0.6-0.3,0.9c0,0.5,0.3,0.9,0.8,1.3
		c0.8,0.6,2.2,1.5,4.1,2.7l-2.8,3.4c-0.2,0-0.4,0-0.6,0c-1.7-0.6-3.1-1.1-4.2-1.6s-2.3-1.1-3.4-1.8s-1.9-1.3-2.2-1.9
		c-0.4-0.5-0.6-1.3-0.8-2.2c0-1.1,0.8-2.3,2.5-3.6c1.6-1.3,3.9-2.2,6.7-2.8c2.8-0.5,6.7-0.8,11.6-0.8s8.8,0.3,11.6,0.8
		c2.8,0.5,5.1,1.5,6.7,2.8s2.4,2.5,2.4,3.6c-0.2,1-0.4,1.7-0.8,2.2s-1.1,1.2-2.2,2s-2.3,1.5-3.4,2s-2.5,0.9-4.2,1.3
		c-0.2,0-0.4,0-0.6,0l-2.7-3.4c1.8-1.3,3.2-2.2,4-2.7c0.5-0.4,0.8-0.8,0.8-1.3c0-0.3-0.1-0.5-0.3-0.9c-0.5-0.8-1.4-1.5-2.5-1.9
		c-1.2-0.5-3.8-0.7-7.8-0.7H1599.1z"/>
	<path d="M1662.7,130.8c-3.6,2.7-10.1,4.1-19.6,4.1c-3.4,0-6.7-0.3-10.1-0.9v-6.1c3.4,0.6,6.7,0.9,10.1,0.9c3.5,0,6.2-0.7,8.1-2.2
		c2.4-1.8,3.6-4.7,3.6-8.7v-33c0-6.2-2.2-9.6-6.5-10.4c1.6,1.3,2.4,3.1,2.4,5.2c0,5.4-3,8.1-8.9,8.1c-5.8,0-8.8-2.7-8.8-8.1
		c0-7.4,5.2-11.1,15.5-11.1c13.1,0,19.6,5.4,19.6,16.2v32.8C1668.1,123.7,1666.3,128.1,1662.7,130.8z M1638.3,79.8
		c0,2.1,1.2,3.2,3.5,3.2s3.5-1.1,3.5-3.2c0-2.2-1.2-3.2-3.5-3.2C1639.5,76.5,1638.3,77.6,1638.3,79.8z"/>
</g>
</svg>
