<svg xmlns="http://www.w3.org/2000/svg" width="52" height="52" viewBox="0 0 52 52">
  <defs>
    <style>
      .cls-1 {
        fill: #e50011;
        fill-rule: evenodd;
      }
    </style>
  </defs>
  <path id="icon_copy_2" data-name="icon copy 2" class="cls-1" d="M39.513,7.549H17.7a5.81,5.81,0,0,0-5.831,5.788V44.453A5.81,5.81,0,0,0,17.7,50.241H39.513a5.81,5.81,0,0,0,5.831-5.788V13.338A5.81,5.81,0,0,0,39.513,7.549ZM38.794,28.83H18.419a0.94,0.94,0,1,1,0-1.88H38.794A0.94,0.94,0,1,1,38.794,28.83Zm0-4.713H18.419a0.94,0.94,0,1,1,0-1.88H38.794A0.94,0.94,0,1,1,38.794,24.117Zm0-4.713H18.419a0.94,0.94,0,1,1,0-1.88H38.794A0.94,0.94,0,1,1,38.794,19.4Z"/>
  <path id="icon_copy" data-name="icon copy" class="cls-1" d="M34.275,0.994H11.568A6.554,6.554,0,0,0,5,7.516v32a6.554,6.554,0,0,0,6.571,6.523H34.275a6.554,6.554,0,0,0,6.571-6.523v-32A6.554,6.554,0,0,0,34.275.994Zm4.2,38.526a4.186,4.186,0,0,1-4.2,4.166H11.568a4.186,4.186,0,0,1-4.2-4.166v-32a4.186,4.186,0,0,1,4.2-4.166H34.275a4.186,4.186,0,0,1,4.2,4.166v32Z"/>
</svg>
